<svg width="205" height="152" viewBox="0 0 205 152" fill="none" xmlns="http://www.w3.org/2000/svg">
<g clip-path="url(#clip0)">
<path d="M188.859 36.949C165.592 4.62997 116.442 -8.48005 68.1036 5.63975C42.5487 13.1045 17.9091 28.0611 5.6983 57.0221C-5.29766 83.1017 0.875954 100.24 13.5421 111.5C26.0196 122.593 44.7977 127.982 59.6695 130.597C74.1606 133.145 87.8087 137.425 100.281 143.253C122.718 153.737 162.435 163.028 192.384 119.355C214.091 87.7011 204.358 58.4767 188.859 36.949Z" fill="white"/>
<path d="M53.9647 43.3435C53.8996 42.8299 53.768 42.3268 53.5731 41.847C53.5482 41.7563 53.5047 41.6717 53.4453 41.5987C53.3859 41.5257 53.312 41.4658 53.2281 41.4229C53.116 41.3938 52.9985 41.3925 52.8858 41.419L51.1283 41.6875C50.9812 41.6942 50.8403 41.7488 50.7273 41.843C50.4984 42.0833 50.7238 42.4703 50.7168 42.8018C50.7089 43.1746 50.3771 43.4772 50.0172 43.5773C49.6499 43.6514 49.2711 43.6467 48.9057 43.5635L46.4482 43.1823C47.172 42.9516 47.8162 42.5225 48.3073 41.9439C48.6307 41.5615 48.8028 40.8475 48.3354 40.6664C48.1965 40.6283 48.0517 40.6167 47.9086 40.6322C46.7951 40.6408 45.919 39.7128 44.8766 39.322C44.2095 39.088 43.4853 39.0706 42.8077 39.2723C42.13 39.4739 41.5336 39.8843 41.1037 40.4447L42.4129 40.5077C42.536 40.5009 42.6582 40.5334 42.7616 40.6006C43.0485 40.8359 42.6918 41.2878 42.7322 41.6563C42.7847 42.135 43.4215 42.2372 43.9015 42.2856C44.3815 42.334 44.9904 42.7233 44.7595 43.1461C42.347 43.9756 39.892 41.5247 37.3584 41.8264C36.7171 41.9027 36.1116 42.1542 35.4856 42.3123C31.6611 43.2782 27.7073 40.7011 23.8003 41.2469C22.9318 41.3947 22.0781 41.6194 21.2495 41.9184C20.7178 42.0927 20.1632 42.281 19.7768 42.6852C19.3905 43.0894 19.2434 43.7806 19.6094 44.2032C18.6006 44.2862 17.585 44.1898 16.6099 43.9186C16.8736 44.0649 17.093 44.2794 17.245 44.5395C17.397 44.7997 17.4761 45.0958 17.4739 45.397C15.8987 45.6534 14.3652 46.1201 12.9147 46.7846C13.1855 47.234 13.5017 47.6545 13.8584 48.0394L11.8643 49.3182C12.538 49.4877 12.8863 50.4047 12.4945 50.9774C13.1931 50.6672 13.626 49.8647 14.373 49.702C14.8624 49.5954 15.3603 49.7952 15.8246 49.983C16.2888 50.1707 16.7991 50.3527 17.2797 50.2118C17.7603 50.0709 18.1148 49.4489 17.8094 49.0526C19.8636 48.4543 21.9866 48.1232 24.1257 48.0675C24.2907 48.0468 24.4581 48.0785 24.6041 48.1581C24.8825 48.351 24.8093 48.7675 24.7943 49.1055C24.7793 49.4434 25.0431 49.8876 25.3458 49.7353C24.9897 50.0435 25.2941 50.6236 25.6357 50.9477C25.9772 51.2717 26.3889 51.7189 26.1798 52.1404C26.1252 52.2504 26.0326 52.3384 25.9801 52.4495C25.8251 52.7772 26.0712 53.1592 26.3615 53.3768C26.6518 53.5944 27.0074 53.7465 27.209 54.0478C27.4107 54.3492 27.3191 54.8766 26.9585 54.9187L25.9336 53.6198C25.5835 53.9822 25.3434 54.4363 25.2413 54.9294C26.3281 55.8162 26.4916 57.6213 25.5817 58.6884C25.1168 59.2336 24.4555 59.565 23.8784 59.9903C23.3014 60.4156 22.7674 61.0212 22.7688 61.7373C22.7713 62.9744 22.6701 64.1237 23.1345 65.2706C23.9908 67.3855 24.9795 69.4445 26.0947 71.4355C26.3876 71.9584 26.766 72.5314 27.3593 72.6214C26.6095 70.7994 25.9346 68.9491 25.3345 67.0704C25.7253 67.072 26.177 67.1029 26.4062 67.419C26.5959 67.6808 26.5552 68.0367 26.6141 68.3543C26.6891 68.6621 26.8141 68.9556 26.9843 69.2229L30.5646 75.5892C30.8614 76.1169 31.2018 76.6834 31.7691 76.8971C32.1318 77.0338 32.5514 77.008 32.8852 77.2047C33.1468 77.3589 33.3231 77.6327 33.5898 77.7779C34.344 78.1886 35.3928 77.401 36.0977 77.8913C36.2992 78.0315 36.4274 78.2543 36.6131 78.4148C37.2641 78.9775 38.332 78.6011 39.0834 79.0208C39.5678 79.2914 39.8188 79.8325 40.0771 80.3228C40.7242 81.551 41.7712 82.7543 43.1579 82.8521C43.5935 82.8828 44.0385 82.8004 44.4643 82.8971C44.8901 82.9938 45.3092 83.3647 45.2409 83.7953C45.1237 84.5334 45.489 85.3416 45.3909 86.0825C45.2122 87.432 43.2946 88.025 43.1298 89.3763C43.0938 89.6722 43.1502 89.9776 43.0797 90.2672C42.9932 90.6221 42.7261 90.9111 42.6312 91.2639C42.4514 91.9325 42.9313 92.5978 43.4584 93.0476C43.9856 93.4974 44.6144 93.8853 44.9026 94.5149C45.2072 95.1804 45.0576 95.9564 45.1566 96.6814C45.3729 98.2641 46.7424 99.4374 48.1518 100.194C48.5812 100.424 49.0423 100.648 49.3202 101.047C49.683 101.569 49.6468 102.257 49.768 102.881C50.0646 104.408 51.3526 105.667 51.3892 107.222C51.4152 108.327 50.7996 109.33 50.4319 110.373C50.0871 111.373 49.9624 112.434 50.0661 113.486C50.1699 114.538 50.4997 115.555 51.0331 116.468C51.3082 116.932 51.6372 117.369 51.8318 117.872C52.179 118.769 52.0663 119.788 52.3865 120.695C52.8098 121.895 53.973 122.885 53.8617 124.151C54.3898 125.246 55.5558 125.784 56.7284 126.11L58.8299 126.694C59.2323 126.806 59.6527 126.918 60.0625 126.837C60.4722 126.756 60.8632 126.417 60.8526 126C59.8221 125.768 58.7585 125.521 57.909 124.894C57.0595 124.267 56.4776 123.151 56.7999 122.147C56.9493 121.681 57.2673 121.144 56.965 120.759C56.7919 120.538 56.4754 120.481 56.2802 120.28C55.9757 119.966 56.0803 119.44 56.2992 119.062C56.5181 118.684 56.8346 118.346 56.9229 117.918C56.9674 117.679 56.9376 117.432 56.8375 117.21C56.7374 116.988 56.5716 116.802 56.3626 116.677C56.7522 116.53 57.1066 116.303 57.4027 116.01C57.6763 115.699 57.8026 115.218 57.5874 114.863C58.2264 114.944 58.9808 114.984 59.4003 114.496C59.7352 114.106 59.7122 113.524 59.5799 113.028C59.4475 112.532 59.2238 112.05 59.2169 111.536C60.6909 111.606 62.1682 111.556 63.6341 111.387C63.4221 110.674 62.9404 110.072 62.2911 109.708C62.955 109.596 63.5599 108.802 63.7696 108.164C63.9794 107.525 63.9259 106.829 63.7962 106.17C63.7465 106 63.7396 105.82 63.7764 105.647C63.8511 105.409 64.0852 105.264 64.3017 105.14L67.5972 103.251C67.7939 103.153 67.9721 103.021 68.1242 102.863C68.4694 102.458 68.4183 101.847 68.2415 101.345C68.0647 100.844 67.7815 100.372 67.7134 99.8447C67.5098 98.2677 69.201 97.1362 69.7717 95.6517C69.9957 95.0691 70.0413 94.4359 70.0847 93.8134C70.1312 93.1448 70.1347 92.3682 69.6204 91.9374C69.1274 91.5244 68.3572 91.6165 67.8413 91.2323C67.3684 90.8801 67.2052 90.1961 66.6885 89.9116C66.2193 89.6532 65.631 89.8176 65.1092 89.696C64.1903 89.4821 63.6121 88.425 62.6737 88.3272C62.1443 88.2719 61.5451 88.5303 61.1111 88.2225C60.7288 87.9513 60.7134 87.4062 60.6407 86.9436C60.5131 86.2248 60.1679 85.5622 59.6516 85.0451C59.1353 84.528 58.4726 84.1814 57.7528 84.0517C57.207 83.9643 56.6128 83.9975 56.1484 83.6981C55.6781 83.3948 55.4625 82.8271 55.0931 82.4072C54.4978 81.7304 53.5602 81.49 52.6818 81.2838L49.1092 80.4455C48.4749 80.2966 47.6574 80.2177 47.3171 80.7723C47.2164 80.9834 47.145 81.2073 47.1051 81.4378C46.9776 81.8547 46.7209 82.2205 46.3721 82.4826C46.0232 82.7447 45.6 82.8897 45.1634 82.8966C44.864 82.3868 44.3789 82.0122 43.8094 81.8508C43.4471 81.7501 43.0593 81.7388 42.7138 81.5906C42.5257 81.4989 42.3582 81.3699 42.2217 81.2113C42.0853 81.0528 41.9826 80.8682 41.9201 80.6687C41.8576 80.4692 41.8365 80.2591 41.8582 80.0512C41.8799 79.8433 41.9438 79.642 42.0461 79.4596C42.2521 79.0936 42.3316 78.67 42.2725 78.2543C42.2133 77.8386 42.0187 77.4539 41.7187 77.1596C41.1112 76.6151 40.2323 76.4835 39.4176 76.538C39.2043 76.0733 39.561 75.5489 39.9455 75.2112C40.3299 74.8735 40.7968 74.5415 40.8805 74.0371C41.0122 73.2438 39.9981 72.6413 39.2282 72.8778C38.4582 73.1143 37.9668 73.8609 37.642 74.5967C37.4556 75.0189 37.2971 75.4635 37.0031 75.8195C36.7091 76.1755 36.2357 76.4304 35.7879 76.3162C35.1539 76.1544 34.909 75.4026 34.7687 74.7646C34.5805 73.9086 34.3911 73.0407 34.4306 72.1653C34.47 71.2898 34.7657 70.3909 35.4124 69.7982C36.4663 68.8324 38.083 68.9271 39.5053 69.0812C39.1693 68.7032 39.2523 68.0663 39.6119 67.7106C39.8017 67.5423 40.0297 67.4227 40.2763 67.3622C40.5228 67.3018 40.7804 67.3022 41.0268 67.3636C41.4553 67.4527 41.8414 67.6831 42.1229 68.0178C42.527 68.5097 42.642 69.1738 42.9475 69.7322C43.253 70.2905 43.9399 70.7667 44.5022 70.4672C44.9878 70.2084 45.0649 69.5362 44.944 69.0002C44.8232 68.4641 44.5665 67.9428 44.6102 67.395C44.6938 66.3498 45.7792 65.7207 46.737 65.2903C47.6948 64.8598 48.7915 64.2809 48.9432 63.2434C48.9484 63.0403 48.9868 62.8394 49.0569 62.6486C49.1631 62.4801 49.3107 62.3415 49.4857 62.246C52.2811 60.402 55.1229 58.5355 58.3178 57.5279C58.484 57.4754 58.5035 57.5337 58.6729 57.4926C58.91 57.3559 58.7529 56.9775 58.5256 56.8251C58.2983 56.6726 57.9945 56.5557 57.9368 56.2885C57.8944 56.0921 58.0104 55.8992 58.0405 55.7006C58.1145 55.2124 57.5294 54.7616 57.0751 54.9568C56.8185 54.6175 57.3263 54.2233 57.7369 54.1105C58.9699 53.7717 60.2356 53.5653 61.5125 53.4948C61.6599 53.4714 61.8108 53.4971 61.9421 53.5678C62.1566 53.716 62.1292 54.0562 61.9772 54.2678C61.8252 54.4795 61.5888 54.6124 61.3994 54.7915C61.1925 54.9927 61.0449 55.2468 60.9727 55.5261C60.9006 55.8053 60.9066 56.099 60.9903 56.375C61.6569 56.7135 62.3816 57.0619 63.1199 56.9427C63.8582 56.8234 64.5135 55.9954 64.1665 55.3341C63.8433 54.7182 62.8726 54.5793 62.7056 53.9044C62.5102 53.1141 63.6309 52.4113 63.3784 51.6373C63.2679 51.2983 62.9294 51.0988 62.6697 50.854C62.3629 50.5539 62.1543 50.1682 62.0711 49.7476C61.9879 49.327 62.0342 48.8911 62.2037 48.4972C61.7806 48.5714 61.3459 48.5434 60.9359 48.4153C60.526 48.2873 60.1528 48.063 59.8476 47.7612C59.2841 47.1935 58.8345 46.2979 58.0343 46.3233C57.2999 46.3466 56.6674 47.2018 55.9807 46.9409C55.8118 46.8767 55.6337 46.7461 55.47 46.8226C55.4164 46.8574 55.3713 46.9039 55.3383 46.9586C55.3053 47.0133 55.2852 47.0747 55.2795 47.1383C55.105 47.9711 55.4052 48.9199 54.9505 49.6396C54.4557 50.4227 53.3112 50.5312 52.7113 51.2374C52.3857 51.6207 52.2596 52.1372 51.9603 52.5414C51.661 52.9455 51.0257 53.2025 50.6665 52.8503C50.843 52.488 50.8913 52.0767 50.8033 51.6835C50.7153 51.2904 50.4963 50.9387 50.1821 50.6859C49.8486 50.4687 49.4891 50.2941 49.1121 50.1663C48.6908 49.9883 48.29 49.7654 47.9168 49.5013C47.7298 49.3887 47.5778 49.2265 47.4779 49.0326C47.3989 48.7899 47.4096 48.527 47.5079 48.2915C47.6901 47.7702 48.0114 47.3085 48.4372 46.9562C48.863 46.6039 49.3771 46.3744 49.924 46.2925C50.4023 46.2276 50.9589 46.2504 51.2754 45.8867C51.4428 45.6942 51.5307 45.4033 51.7738 45.3251C51.9292 45.2939 52.0907 45.3138 52.2339 45.3817L54.019 46.0088C54.2181 46.0986 54.4373 46.1348 54.6549 46.1138C54.7627 46.0993 54.8611 46.0446 54.9302 45.9608C54.9994 45.8769 55.0342 45.77 55.0276 45.6616C54.9706 45.3657 54.5145 45.2237 54.556 44.9252C54.5792 44.8285 54.6313 44.7411 54.7054 44.6745C55.3496 43.9901 56.1374 43.4563 57.0124 43.1114C57.8875 42.7664 58.8281 42.6189 59.767 42.6793C59.9923 43.0487 59.636 43.4861 59.3395 43.8014C59.043 44.1167 58.8047 44.6801 59.1633 44.9228C59.3102 44.9977 59.4737 45.0344 59.6386 45.0297C60.078 45.089 60.5051 45.2183 60.9036 45.4127C61.5205 45.6806 62.1254 45.9738 62.7186 46.2922C62.6662 45.9018 62.6162 45.4905 62.7644 45.1255C62.9127 44.7605 63.334 44.4742 63.702 44.6163C64.0566 44.7533 64.2385 45.2221 64.6164 45.265C65.1204 45.3223 65.3192 44.5791 65.1087 44.1184C64.8982 43.6577 64.4814 43.2719 64.4466 42.7668C64.4231 42.4259 64.553 42.0033 64.2803 41.7969C64.1833 41.7349 64.0731 41.6964 63.9585 41.6843L57.149 40.4334C56.7446 40.3592 56.1604 40.4161 56.1424 40.8261C56.1324 41.055 56.3372 41.2814 56.2465 41.4919C56.1497 41.7165 55.8316 41.6959 55.6 41.7754C55.2405 41.8986 55.0602 42.3247 55.0947 42.7025C55.1579 43.0779 55.3036 43.4347 55.5212 43.7473C55.0783 43.5624 54.4076 43.5284 53.9647 43.3435Z" fill="#5F5A9C"/>
<path d="M48.5313 37.5734C48.1019 37.4315 47.6392 37.4249 47.2059 37.5544C46.7726 37.684 46.3897 37.9434 46.1091 38.2975C45.9969 38.4448 45.9028 38.648 45.9966 38.8076C46.1312 39.0363 46.4741 38.946 46.7269 38.8641C47.0985 38.7316 47.503 38.722 47.8804 38.8367C48.1178 38.918 48.3302 39.0618 48.5686 39.1401C48.6847 39.1886 48.8118 39.2046 48.9363 39.1864C49.0608 39.1682 49.1779 39.1166 49.2753 39.037C49.4389 38.8704 49.4492 38.6114 49.4495 38.3781C49.4608 38.3001 49.4545 38.2205 49.4311 38.1451C49.4077 38.0698 49.3678 38.0006 49.3142 37.9426C49.2187 37.8874 49.1115 37.8558 49.0013 37.8503C48.7547 37.8047 48.5316 37.6746 48.3707 37.4824" fill="#5F5A9C"/>
<path d="M50.9865 36.8905C50.8904 36.8853 50.7945 36.9048 50.7082 36.9472C50.6219 36.9897 50.5479 37.0535 50.4935 37.1328C50.439 37.212 50.4059 37.3038 50.3973 37.3995C50.3887 37.4952 50.4049 37.5915 50.4443 37.6791C50.7394 37.7594 51.0477 37.7795 51.3508 37.7381C51.502 37.7147 51.6428 37.6471 51.7556 37.5439C51.8683 37.4407 51.948 37.3065 51.9844 37.1582C51.6276 37.223 51.2594 37.1528 50.9516 36.9613" fill="#5F5A9C"/>
<path d="M59.2247 35.7508C58.4215 35.9213 57.6412 36.1859 56.9001 36.5391C57.2495 36.6731 57.5465 36.9156 57.7473 37.2309C57.9481 37.5462 58.0422 37.9175 58.0156 38.2901C57.9843 38.4332 57.9879 38.5817 58.0262 38.7231C58.1116 38.9297 58.359 39.0072 58.5765 39.0602C58.9672 39.179 59.3753 39.2309 59.7834 39.214C59.9875 39.2034 60.1858 39.142 60.3602 39.0356C60.5346 38.9292 60.6797 38.7811 60.7824 38.6046C60.8415 38.4372 60.9109 38.2734 60.9901 38.1144C61.5115 37.3219 63.0602 38.2802 63.6199 37.5142C63.8171 37.2443 63.799 36.8382 64.0561 36.6243C64.1891 36.5312 64.3431 36.4725 64.5045 36.4535C65.6301 36.2303 66.7671 36.0687 67.9104 35.9693C68.4521 35.9223 69.1582 35.7281 69.1627 35.1853C67.1223 34.7853 65.0066 35.0694 63.1446 35.9935C62.4737 36.3289 61.5865 37.0344 60.9403 36.5898C60.6983 36.4233 60.7103 35.9749 60.3773 35.7877C60.0368 35.5963 59.5861 35.6742 59.2247 35.7508Z" fill="#5F5A9C"/>
<path d="M65.8976 36.9967L66.8554 37.1804C66.6791 37.1726 66.5032 37.2025 66.3393 37.2679C66.1755 37.3334 66.0275 37.433 65.9053 37.56C65.783 37.6871 65.6893 37.8387 65.6304 38.0048C65.5716 38.1709 65.5488 38.3476 65.5638 38.5231C66.4607 38.8222 67.4386 38.5311 68.3835 38.5709C69.3283 38.6106 70.4276 39.2844 70.2663 40.2145C70.2176 40.4958 70.0548 40.7768 70.1395 41.0494C70.1988 41.2405 70.3676 41.3761 70.4629 41.5521C70.6615 41.9189 70.5028 42.3827 70.252 42.7161C70.0013 43.0495 69.6642 43.3155 69.4442 43.6698C68.8967 44.5509 69.2078 45.6901 69.5338 46.6745C69.6281 47.0465 69.8022 47.3936 70.0441 47.6917C70.5272 48.2045 71.3145 48.2491 72.0196 48.2593C72.5328 48.2668 73.1207 48.2415 73.4452 47.8446C73.8689 47.3265 73.5726 46.518 73.8516 45.9099C74.1049 45.3575 74.7504 45.1206 75.3352 44.9525C76.4066 44.6447 77.4984 44.3829 78.5112 43.9179C79.769 43.3404 80.9444 42.4405 82.3267 42.3662C82.7146 42.3453 83.112 42.391 83.4856 42.2849C83.8591 42.1789 84.214 41.8565 84.1857 41.4698C84.1616 41.1394 83.8815 40.8968 83.6627 40.6478C83.4439 40.3987 83.2721 40.0158 83.4732 39.7523L87.0966 39.0767C86.8398 38.378 86.6397 37.4578 87.2299 37.003C87.4428 36.8389 87.7279 36.7733 87.9092 36.5749C88.2182 36.2368 88.0629 35.6544 87.7061 35.3668C87.3494 35.0793 86.8671 35.0126 86.4102 34.9747C84.8214 34.843 83.2235 34.93 81.6317 35.0171C78.5199 35.1873 75.4082 35.3576 72.2965 35.5279C71.6701 35.5621 70.9468 35.5098 70.3723 35.7231C69.8859 35.9037 69.5401 36.2352 68.9838 36.3517C67.9569 36.5667 66.8268 36.4212 65.8976 36.9967Z" fill="#5F5A9C"/>
<path d="M83.0564 44.5541C82.9588 44.5387 82.859 44.5613 82.7776 44.6172C82.7238 44.6764 82.6918 44.7521 82.6869 44.8318C82.625 45.1838 82.6987 45.5461 82.8931 45.8462C82.9921 45.9934 83.1288 46.1114 83.289 46.1881C83.4492 46.2647 83.627 46.2972 83.804 46.2821C84.2352 46.2272 84.5531 45.8599 84.9496 45.6807C85.5607 45.4047 88.1559 44.9745 86.3607 44.0063C85.742 43.6727 85.3422 43.9672 84.8546 44.187C84.2998 44.4703 83.6781 44.5972 83.0564 44.5541Z" fill="#5F5A9C"/>
<path d="M98.7807 36.4502C98.571 36.5356 98.3957 36.688 98.282 36.8835C98.2296 36.9828 98.2174 37.0983 98.248 37.2063C98.2785 37.3142 98.3495 37.4063 98.4462 37.4635C98.5245 37.4918 98.6075 37.505 98.6908 37.5022L99.5431 37.5276C99.9052 37.5384 100.358 37.6154 100.455 37.9637C100.527 38.2224 100.365 38.5547 100.56 38.7396C100.644 38.8043 100.745 38.8435 100.85 38.8525C101.131 38.9245 101.424 38.9339 101.709 38.8801C102.329 38.7141 102.004 38.3362 102.199 37.9998C102.498 37.485 102.446 37.7967 102.973 37.5016C103.362 37.2837 103.864 36.8885 103.539 36.3332C102.975 35.3675 99.6136 36.0353 98.7807 36.4502Z" fill="#5F5A9C"/>
<path d="M115.604 35.9646L115.109 36.0305C113.993 36.1792 112.871 36.3292 111.796 36.6638C112.261 36.8474 112.749 36.967 113.247 37.0192C113.521 37.0326 113.793 37.0712 114.06 37.1346C114.534 37.2756 115.013 37.64 115.472 37.4533C115.756 37.3376 115.849 37.042 116.084 36.8854C116.247 36.7772 116.864 36.6021 116.933 36.4929C117.491 35.6102 116.033 35.9075 115.604 35.9646Z" fill="#5F5A9C"/>
<path d="M117.778 38.2102C117.116 38.5792 116.503 39.0276 115.951 39.5454C115.718 39.7636 115.481 40.035 115.502 40.3529C115.53 40.7754 115.981 41.0205 116.372 41.1855L117.954 41.8542C118.146 41.5842 117.97 41.2114 117.772 40.946C117.573 40.6806 117.338 40.3736 117.425 40.0542C117.525 39.6898 117.97 39.5656 118.344 39.5028C118.952 39.4006 120.593 39.4088 120.395 38.4304C120.163 37.2775 118.388 37.8695 117.778 38.2102Z" fill="#5F5A9C"/>
<path d="M117.459 103.451C117.309 103.886 117.295 104.399 117.555 104.779C117.847 105.206 118.433 105.364 118.939 105.256C119.443 105.122 119.892 104.834 120.224 104.432C120.526 104.095 120.776 103.713 120.962 103.301C121.223 102.658 121.407 101.986 121.51 101.3L122.001 98.7256C122.111 98.1501 122.107 96.386 121.047 96.9608C120.758 97.1178 120.088 98.3575 119.785 98.7091C119.238 99.3427 119.165 99.9575 118.878 100.725C118.517 101.687 117.793 102.488 117.459 103.451Z" fill="#5F5A9C"/>
<path d="M173.419 116.626C173.072 116.491 172.736 116.331 172.412 116.148C172.088 117.038 171.915 117.977 171.902 118.925L174.274 117.585C174.631 117.383 175.036 117.103 175.028 116.694C175.031 116.643 175.021 116.593 174.997 116.548C174.974 116.502 174.94 116.464 174.897 116.437C174.844 116.416 174.787 116.41 174.73 116.418C174.379 116.447 174.058 116.62 173.726 116.74C173.394 116.86 173.006 116.924 172.702 116.745" fill="#5F5A9C"/>
<path d="M185.933 117.422C185.673 117.493 185.419 117.584 185.173 117.695C184.628 117.971 184.258 118.496 183.768 118.86C183.299 119.209 182.735 119.4 182.181 119.586C182.018 119.73 182.093 120.02 182.27 120.146C182.46 120.254 182.678 120.303 182.896 120.287C183.472 120.299 184.078 120.305 184.582 120.027C184.866 119.843 185.132 119.633 185.376 119.398C185.965 118.908 186.673 118.584 187.374 118.271C187.629 118.174 187.865 118.034 188.07 117.855C188.511 117.422 188.542 116.754 187.907 116.607C187.394 116.488 186.422 117.264 185.933 117.422Z" fill="#5F5A9C"/>
<path d="M191.462 113.817C191.491 113.519 191.451 113.218 191.346 112.938C191.242 112.658 191.074 112.405 190.857 112.198C190.851 112.794 190.832 113.429 190.497 113.922C190.257 114.274 189.882 114.511 189.62 114.845C189.358 115.18 189.241 115.71 189.549 116.004C189.745 116.153 189.985 116.236 190.232 116.239C190.844 116.311 191.553 116.351 191.982 115.909C192.216 115.668 192.33 115.311 192.616 115.134C192.723 115.09 192.818 115.022 192.894 114.935C193.012 114.748 192.825 114.501 192.614 114.434C192.403 114.366 192.17 114.398 191.958 114.334C191.746 114.27 191.551 114.032 191.66 113.839" fill="#5F5A9C"/>
<path d="M181.635 91.9606C181.314 92.0386 180.981 92.0581 180.653 92.0184C180.108 91.9184 179.684 91.5084 179.244 91.1721C178.198 90.3771 176.927 89.9337 175.612 89.9054C174.417 89.8829 173.21 90.2063 172.035 89.9807C172.112 90.4066 172.477 90.7261 172.867 90.916C173.257 91.1059 173.687 91.2015 174.078 91.3875C174.705 91.6884 175.202 92.2048 175.479 92.842C175.605 93.1358 175.684 93.4555 175.875 93.7121C176.265 94.2364 177.005 94.3515 177.658 94.3086C178.51 94.2527 179.399 94.0083 180.191 94.3249C180.797 94.5672 181.231 95.0966 181.737 95.5082C182.243 95.9199 182.955 96.2254 183.536 95.9284C182.933 95.7333 182.408 95.3509 182.037 94.8369C181.667 94.3228 181.471 93.7041 181.478 93.071C182.048 93.1233 183.689 93.103 183.601 92.1366C183.526 91.3175 182.125 91.8722 181.635 91.9606Z" fill="#5F5A9C"/>
<path d="M174.181 98.6246C174.282 98.0707 174.836 97.5816 174.663 97.0455C174.544 96.6748 174.113 96.4917 173.723 96.4826C173.333 96.4734 172.95 96.5894 172.56 96.6003C172.307 96.5868 172.052 96.5905 171.799 96.6111C171.025 96.7381 170.548 97.5479 169.818 97.8359C169.375 98.0109 168.877 97.9775 168.415 98.0985C167.368 98.3733 166.706 99.361 165.974 100.157C164.791 101.438 163.25 102.335 161.551 102.732C160.956 102.869 160.316 102.958 159.842 103.343C159.216 103.855 159.062 104.731 158.922 105.527C158.537 107.724 157.948 109.881 157.164 111.97L159.65 112.287C160.123 112.348 160.612 112.406 161.068 112.267C161.399 112.142 161.712 111.975 162.001 111.771C163.108 111.085 164.347 110.638 165.638 110.46C166.29 110.371 166.972 110.354 167.583 110.596C168.194 110.838 168.718 111.385 168.77 112.039C169.034 111.957 169.315 111.949 169.584 112.014C169.853 112.079 170.099 112.216 170.296 112.41C170.686 112.806 170.941 113.314 171.025 113.862C171.091 114.202 171.156 114.609 171.472 114.751C171.729 114.868 172.025 114.742 172.306 114.72C173.262 114.643 174.055 115.756 174.995 115.565C176.003 115.359 176.25 113.853 177.233 113.551C177.798 113.378 178.59 113.588 178.86 113.064C179.098 112.602 178.623 112.069 178.672 111.551C178.732 110.914 179.485 110.644 180.066 110.372C182.066 109.435 183.016 106.747 182.046 104.764C181.472 103.589 180.341 102.665 180.133 101.374C179.972 100.381 180.364 99.2237 179.73 98.4422C179.407 98.0446 178.861 97.8252 178.669 97.3508C178.548 97.0522 178.597 96.7134 178.532 96.398C178.467 96.0826 178.191 95.7526 177.879 95.8344C176.973 96.0717 176.684 98.8649 176.199 99.5435C175.462 100.575 173.949 99.8956 174.181 98.6246Z" fill="#5F5A9C"/>
<path d="M157.439 93.0155C157.129 92.9289 156.791 92.8436 156.495 92.9674C156.198 93.0912 156.025 93.5258 156.263 93.7415C158.125 93.6691 159.999 93.5972 161.845 93.8497C163.972 94.1405 166.078 94.861 168.215 94.649C166.994 94.2896 165.753 94.0022 164.499 93.7884L162.407 93.3895C161.846 93.2722 161.279 93.1847 160.709 93.1275C159.515 93.0291 158.612 93.3439 157.439 93.0155Z" fill="#5F5A9C"/>
<path d="M159.303 86.5414C159.148 86.5285 158.957 86.5174 158.877 86.6501C158.8 86.7768 158.888 86.9443 158.847 87.0865C158.791 87.2807 158.536 87.3303 158.335 87.3039C158.134 87.2774 157.917 87.2141 157.739 87.3107C157.649 87.3723 157.581 87.4613 157.546 87.5645C157.511 87.6677 157.51 87.7796 157.544 87.8833C157.617 88.0891 157.735 88.2762 157.889 88.4312C158.152 88.762 158.451 89.0621 158.782 89.3257C159.422 89.7973 160.289 90.0245 160.692 90.7091C160.749 90.8418 160.836 90.9593 160.947 91.0519C161.141 91.1743 161.393 91.0812 161.602 90.9861L162.332 90.653C162.464 90.6057 162.581 90.526 162.673 90.4212C162.84 90.1952 162.738 89.8739 162.598 89.6304C162.458 89.387 162.278 89.135 162.308 88.8558C162.362 88.3581 163.003 88.1678 163.267 87.7419C163.532 87.3127 163.359 86.7597 163.39 86.256C163.426 85.667 163.797 84.9008 163.2 84.4607C162.693 84.0867 162.209 84.4323 161.845 84.8452C161.077 85.716 160.714 86.659 159.303 86.5414Z" fill="#5F5A9C"/>
<path d="M163.736 77.7408C163.986 78.2174 164.506 78.5018 164.777 78.9659C165.072 79.469 165.039 80.119 165.358 80.6066C165.686 81.1068 166.347 81.3724 166.531 81.9415C166.731 82.5627 166.276 83.3177 166.639 83.8605C166.707 83.9492 166.792 84.0229 166.89 84.077C166.988 84.131 167.096 84.1642 167.207 84.1744C167.318 84.1846 167.43 84.1716 167.536 84.1363C167.642 84.1009 167.74 84.044 167.823 83.9691C167.976 83.8026 168.058 83.583 168.051 83.3571C168.044 83.1312 167.95 82.9169 167.787 82.7597C167.572 82.564 167.263 82.4794 167.083 82.2508C166.99 82.1188 166.928 81.9674 166.901 81.8079C166.803 81.3479 166.819 80.8711 166.947 80.4185C166.995 80.3036 167.007 80.1769 166.982 80.055C166.901 79.8205 166.583 79.8038 166.36 79.695C165.852 79.4479 165.865 78.7333 165.953 78.1769C165.894 78.5473 164.572 77.9173 164.434 77.7075C164.159 77.2906 164.309 76.4865 164.254 76.0259C163.66 76.3114 163.432 77.1581 163.736 77.7408Z" fill="#5F5A9C"/>
<path d="M150.419 85.0737C150.175 84.801 149.807 84.5158 149.48 84.6803C149.231 84.8057 149.162 85.1504 149.26 85.4117C149.379 85.6654 149.562 85.8838 149.792 86.0451C150.474 86.6063 151.208 87.1128 151.802 87.7651C152.867 88.9326 153.43 90.5079 154.588 91.5834C154.821 91.8327 155.129 91.9991 155.465 92.0572C155.802 92.0885 156.181 91.873 156.22 91.5372C156.252 91.2606 156.058 91.013 155.87 90.808C155.42 90.3198 154.928 89.8704 154.503 89.3604C154.307 89.1644 154.184 88.9076 154.154 88.6323C154.152 88.3576 154.403 88.0702 154.669 88.1382C154.345 88.0555 154.105 87.5163 153.629 87.4149C153.231 87.3302 153.135 87.576 152.662 87.3734C151.759 86.9869 151.051 85.7801 150.419 85.0737Z" fill="#5F5A9C"/>
<path d="M171.628 58.5257C171.369 58.4489 171.115 58.3581 170.866 58.2538C170.195 58.053 169.309 58.5447 169.398 59.2375C169.457 59.6978 169.886 60.0081 170.123 60.4073C170.475 60.9994 170.381 61.7504 170.197 62.4134C170.151 62.6188 170.065 62.8129 169.943 62.9842C169.772 63.1652 169.568 63.3116 169.342 63.4155C168.437 63.9221 167.639 64.5989 166.992 65.4086C166.922 65.4834 166.873 65.5756 166.85 65.6757C166.818 65.9096 167.054 66.08 167.187 66.2751C167.483 66.7084 167.269 67.2916 167.298 67.8151C167.294 67.8892 167.308 67.9631 167.34 68.03C167.372 68.0968 167.421 68.1544 167.482 68.1971C167.66 68.2876 167.871 68.134 167.968 67.9592C168.289 67.3793 168.047 66.4483 168.649 66.1687C168.763 66.1158 168.901 66.0935 168.976 65.9937C169.097 65.8354 168.981 65.601 169.042 65.4118C169.133 65.1277 169.523 65.115 169.821 65.1276C170.336 65.1491 170.85 65.0807 171.341 64.9256C171.534 64.8799 171.709 64.7787 171.845 64.6347C172.024 64.4107 172.008 64.0921 171.973 63.8073C171.793 62.3873 171.342 61.0147 170.645 59.7638C171.173 59.8312 171.748 59.8895 172.204 59.6146C172.46 59.4607 172.766 59.0003 172.639 58.687C172.439 58.1915 172.077 58.6085 171.628 58.5257Z" fill="#5F5A9C"/>
<path d="M103.879 66.3355C103.942 66.6741 104.004 67.0306 103.893 67.3567C103.782 67.6828 103.432 67.9552 103.102 67.8553C102.846 67.7778 102.698 67.5205 102.516 67.3244C101.504 66.2339 99.2207 66.8653 98.5956 65.5162C98.3404 64.9655 98.5138 64.3059 98.3398 63.7246C98.23 63.3887 98.0116 63.0987 97.7188 62.9001C97.4259 62.7015 97.0754 62.6057 96.722 62.6276C96.3998 62.674 96.0861 62.7675 95.7911 62.905C93.8146 63.6951 91.7396 64.2132 89.6231 64.4449C89.2209 64.4694 88.8231 64.5416 88.438 64.6601C87.569 64.9746 86.9752 65.7789 86.5526 66.5995C86.1301 67.4202 85.8181 68.3086 85.2516 69.0377C84.6562 69.804 83.8218 70.3406 83.0435 70.9209C82.7437 71.1138 82.4941 71.375 82.3151 71.683C82.1464 72.0288 82.1559 72.431 82.169 72.8153L82.3281 77.4839C82.3485 78.0844 82.3742 78.7064 82.6435 79.2438C82.9797 79.9148 83.6439 80.3543 84.1046 80.9471C84.5749 81.5563 84.8198 82.309 84.798 83.0777C84.7882 83.3868 84.7575 83.7523 84.9986 83.9464C85.1453 84.0414 85.3169 84.0906 85.4917 84.088L91.8183 84.6049C92.9312 84.6958 94.1645 84.8453 94.8911 85.6916C95.234 86.0911 95.5095 86.6655 96.0347 86.7083C96.26 86.7267 96.4793 86.6344 96.7046 86.6166C97.2731 86.5716 97.7725 87.0024 98.0877 87.4768C98.5648 88.1999 98.7813 89.0635 98.7018 89.9256C98.6501 90.4668 98.482 90.993 98.4458 91.5354C98.3079 93.5994 100.061 95.3927 100.095 97.461C100.115 98.6776 99.5362 99.8143 98.9721 100.893C99.8825 102.27 99.137 104.103 99.4994 105.712C99.8433 107.239 101.119 108.435 101.437 109.967C101.582 110.669 101.59 111.532 102.21 111.894C102.482 112.026 102.784 112.086 103.086 112.069C104.907 112.09 106.708 111.681 108.341 110.874C109.108 110.495 109.902 109.928 110.036 109.084C110.144 108.404 109.798 107.643 110.15 107.051C110.564 106.352 111.626 106.408 112.236 105.871C113.225 105 112.454 103.339 112.855 102.084C113.215 100.956 114.456 100.357 115.07 99.3452C115.312 98.9099 115.486 98.4402 115.585 97.9523C115.867 96.7864 116.042 95.5973 116.109 94.3998C116.125 93.6722 116.179 92.946 116.27 92.2239C116.933 88.1128 121.004 85.36 122.326 81.4107C122.453 81.0336 122.512 80.5312 122.176 80.3178C121.976 80.2228 121.75 80.1992 121.536 80.2509L118.619 80.6179C118.257 80.6635 117.873 80.7061 117.54 80.5559C117.208 80.4057 116.969 79.9856 117.146 79.6666C117.641 78.771 116.622 77.6392 116.169 76.7213C114.95 74.2499 113.499 71.8997 111.834 69.7026C111.727 69.5896 111.66 69.445 111.644 69.2906L112.471 69.3182C112.192 68.3174 111.731 67.2222 110.757 66.8561C110.208 66.6498 109.6 66.7212 109.015 66.7531C107.337 66.8446 105.539 66.5918 103.879 66.3355Z" fill="#5F5A9C"/>
<path d="M109.016 43.783C109.455 44.2483 109.947 44.7416 110.582 44.8227C111.703 44.966 112.51 43.8081 113.023 42.8024C113.042 43.0588 113.161 43.2977 113.354 43.4682C113.546 43.6388 113.798 43.7275 114.055 43.7157C114.332 43.6692 114.597 43.566 114.832 43.4127C117.054 42.2004 119.543 41.5581 122.076 41.5434C122.052 41.3519 122.099 41.1582 122.21 40.9996C122.32 40.8411 122.485 40.729 122.673 40.6849C123.188 40.583 123.652 41.0274 123.901 41.489C124.149 41.9506 124.304 42.4857 124.698 42.8312C125.093 43.1767 125.857 43.1617 126.013 42.6613C126.163 42.1809 125.661 41.7713 125.245 41.4881C124.828 41.2049 124.389 40.6807 124.67 40.2627C126.798 39.7925 128.939 39.3206 131.116 39.2271C131.487 39.24 131.856 39.1765 132.201 39.0405C132.533 38.8779 132.797 38.5086 132.708 38.1503C132.233 38.2618 131.735 38.2295 131.279 38.0576C130.822 37.8856 130.427 37.5818 130.144 37.1848C133.165 36.9359 136.379 36.7238 139.056 38.1429C139.377 38.8314 137.74 39.4043 138.178 40.0253C138.318 40.2234 138.598 40.2466 138.84 40.2511C140.701 40.2856 142.572 40.3194 144.412 40.039C145.084 39.9365 145.764 39.7919 146.438 39.875C147.563 40.0134 148.524 40.7622 149.63 41.0063C150.081 41.1057 150.585 41.109 150.965 40.8477C151.344 40.5863 151.507 39.9912 151.196 39.6514C152.238 38.6326 153.966 38.8851 155.34 39.3728C156.714 39.8606 158.015 40.6472 159.47 40.7559C160.512 40.8339 161.569 40.5539 162.6 40.7319C163.247 40.8437 163.85 41.1312 164.483 41.3079C165.679 41.642 166.946 41.5714 168.188 41.5875C171.359 41.6302 174.495 42.2522 177.441 43.4228C177.824 43.5473 178.175 43.7544 178.469 44.0294C178.744 44.3224 178.883 44.7778 178.699 45.134L175.655 44.69C175.942 45.2537 176.684 45.3497 177.286 45.5441C177.889 45.7386 178.514 46.4029 178.152 46.9215C177.499 46.714 176.907 47.3656 176.577 47.9652C176.247 48.5647 175.845 49.2828 175.161 49.3193C174.548 49.352 173.807 48.8312 173.408 49.2962C173.96 49.991 174.432 50.7451 174.817 51.5444C175.211 52.3649 175.492 53.3989 174.959 54.1371C174.875 54.2689 174.748 54.3674 174.599 54.4157C174.164 54.5258 173.881 53.9939 173.568 53.6716C173.175 53.2653 172.579 53.1503 172.046 52.9597C171.513 52.7692 170.952 52.3944 170.91 51.8308C170.884 51.4801 171.07 51.1541 171.206 50.83C171.436 50.2838 171.536 49.692 171.5 49.1007C171.47 48.625 171.336 48.1301 170.994 47.7978C170.652 47.4654 170.061 47.3599 169.693 47.6644C169.522 47.8064 169.384 48.0336 169.162 48.0421C168.768 48.0571 168.466 47.3725 168.15 47.6062C168.187 47.8552 168.135 48.1093 168.004 48.3241C167.059 49.1441 165.608 48.7972 164.391 49.0868C163.812 49.2522 163.258 49.4939 162.743 49.8054C162.55 49.8876 162.386 50.025 162.271 50.2001C162.119 50.495 162.287 50.8725 162.555 51.0686C162.839 51.2425 163.158 51.3513 163.49 51.387C164.974 51.6676 166.48 52.102 167.652 53.0537C168.824 54.0054 169.592 55.5787 169.221 57.0405L166.294 54.2485C166.405 55.4208 166.468 56.5964 166.483 57.7751C166.502 58.0053 166.471 58.2368 166.391 58.4535C166.182 58.9136 165.616 59.0684 165.121 59.1699C164.983 59.1961 164.852 59.2511 164.737 59.3312C164.622 59.4114 164.525 59.5149 164.453 59.6351C164.381 59.7552 164.335 59.8893 164.319 60.0284C164.302 60.1674 164.315 60.3084 164.357 60.4421C164.533 61.015 164.972 61.4617 165.374 61.9068C165.776 62.3519 166.172 62.8578 166.225 63.4548C166.277 64.0518 165.826 64.7247 165.227 64.6832C164.773 64.6517 164.436 64.246 164.243 63.8348C164.049 63.4237 163.934 62.9657 163.643 62.6164C162.762 61.559 160.784 62.0121 159.995 60.8848C159.794 61.1126 159.654 61.3878 159.59 61.6845C159.525 61.9811 159.538 62.2893 159.626 62.5798C159.993 62.3505 160.495 62.5636 160.771 62.8969C161.047 63.2302 161.177 63.6574 161.394 64.0318C161.686 64.5369 162.151 64.9847 162.192 65.5665C162.181 65.7866 162.185 66.0071 162.203 66.2266C162.275 66.5792 162.574 66.8323 162.781 67.127C163.262 67.8127 163.239 68.7547 162.928 69.5327C162.618 70.3108 162.06 70.9609 161.508 71.5912C160.543 72.6921 159.558 73.7865 158.414 74.7007C158.088 74.9616 157.74 75.2181 157.536 75.5828C157.333 75.9476 157.323 76.4595 157.635 76.7369C157.412 76.7481 157.011 76.8578 156.787 76.869C156.709 75.974 156.692 75.0746 156.736 74.1773C155.854 73.7545 154.904 74.8867 155.018 75.8568C155.132 76.8269 155.835 77.6054 156.335 78.4446C156.701 79.0584 156.973 79.7741 156.851 80.4778C156.729 81.1816 156.1 81.8308 155.387 81.7687C154.253 81.67 153.779 80.0452 152.656 79.8592C152.557 79.836 152.453 79.8463 152.36 79.8885C152.194 79.9798 152.165 80.2024 152.155 80.392C152.109 81.3223 152.07 82.2896 152.434 83.1473C152.966 84.4021 154.341 85.456 154.052 86.7879C152.499 86.0669 151.691 84.3276 151.324 82.6569C150.957 80.9862 150.896 79.2323 150.238 77.6529C149.739 78.2917 148.69 77.7636 148.234 77.0935C147.801 76.4582 147.535 75.7233 147.115 75.0795C146.696 74.4356 146.053 73.8591 145.284 73.8237C144.479 73.7866 143.78 74.3386 143.165 74.8602C142.66 75.2891 142.141 75.7349 141.845 76.3278C141.415 77.1906 141.528 78.2078 141.507 79.1712C141.485 80.2127 141.263 81.3116 140.552 82.074C139.841 82.8365 138.529 83.1021 137.744 82.4149C137.335 82.0562 137.136 81.5201 136.96 81.0056C136.109 78.5255 135.4 75.999 134.836 73.4383C134.704 74.0228 134.19 74.7761 133.699 74.4318C133.589 74.3392 133.5 74.2244 133.437 74.0949C132.521 72.5449 130.824 71.6152 129.11 71.0578C127.396 70.5003 125.592 70.2403 123.897 69.6277C122.947 69.2842 122.04 68.833 121.193 68.283C120.977 68.5996 120.851 68.9687 120.828 69.351C120.805 69.7333 120.886 70.1147 121.063 70.4547C121.439 71.1193 122.29 71.5039 123.018 71.2716C123.395 71.1515 123.713 70.8907 124.086 70.7618C124.46 70.633 124.961 70.6963 125.124 71.0555C125.281 71.3993 125.044 71.8152 125.162 72.1742C125.34 72.7209 126.166 72.763 126.455 73.2606C126.67 73.6307 126.493 74.1223 126.186 74.421C125.879 74.7197 125.47 74.8836 125.095 75.0915C123.88 75.7662 123.016 76.9179 121.953 77.8139C120.891 78.71 119.392 79.3642 118.126 78.7894C118.428 77.2642 116.608 76.1443 116.273 74.626C116.163 74.1262 116.22 73.5953 116.063 73.1083C115.835 72.4031 115.208 71.9183 114.694 71.3839C114.07 70.7288 113.585 69.9556 113.265 69.1099C112.946 68.2643 112.799 67.3634 112.834 66.4603C112.862 65.8328 112.978 65.195 112.835 64.5834C112.691 63.9717 112.184 63.3797 111.555 63.4074C110.12 63.4707 108.311 63.5774 107.557 62.3556C107.288 61.9195 107.171 61.2808 107.56 60.9467C107.834 60.7111 108.239 60.7333 108.599 60.7686L111.834 61.0863C112.591 61.1606 113.409 61.2219 114.058 60.8271C114.708 60.4322 114.989 59.3841 114.388 58.9195C113.948 58.5801 113.161 58.5985 113.034 58.0588C112.927 57.6093 113.426 57.0993 113.157 56.7237C112.964 56.4544 112.53 56.5291 112.267 56.731C112.004 56.9329 111.813 57.2282 111.519 57.3811C111.002 57.6492 110.386 57.394 109.83 57.2205C109.275 57.0471 108.53 57.0324 108.261 57.5473C107.96 58.1231 108.528 58.8777 108.229 59.4548C107.834 60.2177 106.495 59.7834 105.94 60.4396C105.303 61.1927 106.373 62.3156 106.159 63.2776C105.884 63.4132 105.579 63.4754 105.274 63.4583C104.968 63.4412 104.672 63.3452 104.415 63.1798C104.162 63.0079 103.96 62.7708 103.831 62.4936C103.702 62.2165 103.651 61.9096 103.683 61.6057C103.736 61.173 103.962 60.7312 103.811 60.3223C103.688 59.9916 103.356 59.7948 103.047 59.6243L99.9029 57.8901C99.611 58.4306 99.98 59.1007 100.442 59.5066C100.903 59.9126 101.481 60.2184 101.784 60.7526C101.976 61.1228 102.019 61.552 101.904 61.9528C101.79 62.3535 101.526 62.6955 101.168 62.9088C101.123 62.9398 101.072 62.9606 101.018 62.97C100.964 62.9794 100.909 62.977 100.856 62.9631C100.806 62.9336 100.762 62.8945 100.727 62.8479C100.693 62.8013 100.668 62.7482 100.654 62.6918C100.099 61.2748 99.2665 59.8777 97.935 59.1375C96.6035 58.3973 94.6903 58.5495 93.8171 59.7964C93.6098 60.0926 93.4706 60.4302 93.2899 60.7433C92.3301 62.4069 90.2724 63.1946 88.3498 63.1432C88.1618 63.1536 87.9747 63.1097 87.8109 63.0168C87.5002 62.8026 87.5142 62.348 87.5618 61.9741L87.7636 60.3872C87.8041 60.0686 87.8628 59.7164 88.1155 59.5174C88.4716 59.237 88.9854 59.414 89.439 59.4075C89.7826 59.3914 90.113 59.2703 90.3853 59.0605C90.6576 58.8507 90.8588 58.5624 90.9614 58.2346C91.053 57.9037 91.0524 57.554 90.9597 57.2234C90.867 56.8927 90.6856 56.5936 90.4351 56.3582C90.2273 56.1633 89.9482 55.9185 90.058 55.6557C90.1019 55.5831 90.1611 55.5208 90.2316 55.4735C90.3021 55.4261 90.3821 55.3947 90.466 55.3815C91.2807 55.1453 92.1416 55.0834 92.9427 54.8048C93.7438 54.5261 94.5208 53.956 94.7105 53.1306C94.7686 52.8777 94.7951 52.5712 95.0227 52.4458C95.1369 52.3977 95.2596 52.3727 95.3835 52.3722C95.8179 52.3106 96.2134 52.0888 96.4921 51.7506C96.7708 51.4125 96.9127 50.9824 96.8896 50.5451C97.2736 50.2773 97.8115 50.4743 98.1829 50.7591C98.5544 51.044 98.8823 51.4203 99.3342 51.5431C100.176 51.7719 100.99 51.0275 101.863 51.024C102.23 51.0226 102.61 51.1521 102.956 51.0279C103.306 50.902 103.515 50.5541 103.784 50.2971C104.052 50.0401 104.524 49.8834 104.772 50.1602L104.561 48.5981C104.986 48.7054 105.43 48.7206 105.861 48.6426C106.293 48.5647 106.703 48.3955 107.064 48.1462L104.334 47.2253C104.239 47.2016 104.151 47.1548 104.078 47.089C103.88 46.8756 104.077 46.5431 104.239 46.3006C104.625 45.7203 104.69 44.7645 104.054 44.4756C103.621 44.2784 103.123 44.5151 102.707 44.7467L100.714 45.8559C100.651 46.234 101.114 46.4483 101.401 46.7031C101.575 46.8572 101.698 47.0601 101.754 47.2852C101.81 47.5103 101.797 47.7471 101.715 47.9644C101.634 48.1818 101.489 48.3695 101.299 48.5029C101.109 48.6363 100.883 48.7093 100.65 48.7121C100.782 48.8824 100.873 49.08 100.917 49.2903C100.961 49.5005 100.958 49.7181 100.907 49.9267L99.5657 50.023C99.4152 50.0532 99.2589 50.0228 99.1308 49.9383C98.9874 49.8111 99.0069 49.5883 98.9736 49.3998C98.8934 48.9446 98.4469 48.6257 97.9913 48.5439C97.5357 48.4621 97.0695 48.5669 96.6183 48.6704C96.4268 48.7392 96.2164 48.7344 96.0282 48.6568C95.9203 48.5869 95.8383 48.4835 95.7947 48.3627C95.5969 47.8839 95.7818 47.3212 96.0995 46.9118C96.4172 46.5024 96.8521 46.2031 97.2427 45.8622C98.1767 45.0441 98.863 43.9816 99.2239 42.7947C99.9621 42.486 100.726 42.0665 101.464 41.7578C102.602 41.1826 103.879 40.9358 105.15 41.0451L107.649 41.0927C108.39 41.1068 109.15 41.1249 109.834 41.4066C110.519 41.6882 111.12 42.2974 111.167 43.0349C111.181 43.1183 111.174 43.2041 111.146 43.284C111.118 43.3639 111.07 43.4354 111.007 43.4918C110.91 43.5445 110.801 43.5691 110.691 43.5629C110.001 43.5871 109.706 43.7588 109.016 43.783Z" fill="#5F5A9C"/>
<path d="M89.0905 51.6033C89.1882 51.511 89.2585 51.3937 89.2937 51.2641C89.3289 51.1346 89.3276 50.9978 89.29 50.8689C89.0523 50.7774 88.7938 50.7539 88.5435 50.8011C88.2932 50.8482 88.061 50.9642 87.8732 51.136C87.7251 51.2855 87.5974 51.4539 87.4936 51.6369C87.1651 52.1719 86.8746 52.8109 87.0649 53.4089C87.0804 53.4741 87.1089 53.5356 87.1485 53.5897C87.1881 53.6438 87.2382 53.6894 87.2957 53.724C87.381 53.7582 87.473 53.7725 87.5647 53.766C87.9266 53.7656 88.2881 53.7434 88.6473 53.6995C88.8679 53.6726 89.1241 53.6104 89.2094 53.4056C89.3214 53.1363 89.0502 52.8315 89.1293 52.5508C89.1813 52.4252 89.2601 52.3126 89.3603 52.2206C89.41 52.1742 89.4481 52.117 89.4718 52.0534C89.4954 51.9898 89.5039 51.9215 89.4965 51.8541C89.4646 51.7223 89.2626 51.6476 89.1898 51.7621" fill="#5F5A9C"/>
<path d="M90.967 49.1748C90.6456 49.1011 90.3142 49.0804 89.986 49.1133C89.9134 49.1112 89.8415 49.1275 89.777 49.1607C89.7144 49.2068 89.6691 49.2723 89.6482 49.347C89.5788 49.569 89.5959 49.809 89.6959 50.0191C89.7959 50.2292 89.9715 50.394 90.1877 50.4807C90.3056 50.5077 90.4185 50.553 90.5223 50.6149C90.7998 50.8298 90.6229 51.269 90.6754 51.6156C90.7344 52.0048 91.1118 52.3315 91.0426 52.7191C90.9881 53.0244 90.6614 53.2661 90.714 53.5718C90.7691 53.8919 91.1761 53.9881 91.5004 54.0137C91.6884 54.0466 91.8819 54.0245 92.0576 53.95C92.2337 53.8298 92.3589 53.6488 92.4091 53.4418C92.5419 53.0473 92.5977 52.6309 92.5735 52.2154C92.5721 52.0264 92.5245 51.8406 92.435 51.674C92.3373 51.5421 92.229 51.4183 92.1112 51.304C91.4897 50.5823 92.1441 49.506 90.967 49.1748Z" fill="#5F5A9C"/>
<path opacity="0.8" d="M172.692 105.704C172.692 105.704 125.092 78.43 104.599 83.5978C104.599 83.5978 61.1699 88.2631 56.1367 98.5268C56.1367 98.5268 42.3313 55.4623 37.2981 54.0269" stroke="#536DFE" stroke-width="2" stroke-miterlimit="10"/>
<path opacity="0.8" d="M56.1367 98.5268C64.118 77.2817 136.021 53.7397 136.021 53.7397C125.811 56.3236 104.599 83.5978 104.599 83.5978C104.599 83.5978 59.7319 51.0123 37.2981 54.0268C37.2981 54.0268 136.093 57.2567 172.692 105.704" stroke="#536DFE" stroke-width="2" stroke-miterlimit="10"/>
<path d="M37.2981 56.1082C38.4497 56.1082 39.3833 55.1763 39.3833 54.0268C39.3833 52.8772 38.4497 51.9453 37.2981 51.9453C36.1465 51.9453 35.2129 52.8772 35.2129 54.0268C35.2129 55.1763 36.1465 56.1082 37.2981 56.1082Z" fill="#536DFE"/>
<path d="M56.1367 100.608C57.2883 100.608 58.2219 99.6763 58.2219 98.5268C58.2219 97.3772 57.2883 96.4453 56.1367 96.4453C54.9851 96.4453 54.0515 97.3772 54.0515 98.5268C54.0515 99.6763 54.9851 100.608 56.1367 100.608Z" fill="#536DFE"/>
<path d="M136.021 55.8211C137.173 55.8211 138.106 54.8892 138.106 53.7397C138.106 52.5901 137.173 51.6582 136.021 51.6582C134.869 51.6582 133.936 52.5901 133.936 53.7397C133.936 54.8892 134.869 55.8211 136.021 55.8211Z" fill="#536DFE"/>
<path d="M172.691 107.786C173.843 107.786 174.777 106.854 174.777 105.704C174.777 104.555 173.843 103.623 172.691 103.623C171.54 103.623 170.606 104.555 170.606 105.704C170.606 106.854 171.54 107.786 172.691 107.786Z" fill="#536DFE"/>
<path d="M104.599 85.679C105.751 85.679 106.685 84.7471 106.685 83.5976C106.685 82.448 105.751 81.5161 104.599 81.5161C103.448 81.5161 102.514 82.448 102.514 83.5976C102.514 84.7471 103.448 85.679 104.599 85.679Z" fill="#536DFE"/>
</g>
<defs>
<clipPath id="clip0">
<rect width="205" height="152" fill="white"/>
</clipPath>
</defs>
</svg>
