<svg width="34" height="20" viewBox="0 0 34 20" fill="none" xmlns="http://www.w3.org/2000/svg">
<path d="M33.6053 2.68799H0V19.2578H33.6053V2.68799Z" fill="#E6E6E6"/>
<path d="M8.40836 5.88037H2.25354V9.04808H8.40836V5.88037Z" fill="white"/>
<path d="M16.0562 5.88037H9.90137V9.04808H16.0562V5.88037Z" fill="white"/>
<path d="M23.704 5.88037H17.5492V9.04808H23.704V5.88037Z" fill="white"/>
<path d="M31.3518 5.88037H25.197V9.04808H31.3518V5.88037Z" fill="white"/>
<path d="M8.40836 10.3638H2.25354V13.5315H8.40836V10.3638Z" fill="white"/>
<path d="M16.0562 10.3638H9.90137V13.5315H16.0562V10.3638Z" fill="white"/>
<path d="M23.704 10.3638H17.5492V13.5315H23.704V10.3638Z" fill="white"/>
<path d="M31.3518 10.3638H25.197V13.5315H31.3518V10.3638Z" fill="white"/>
<path d="M8.40836 14.8472H2.25354V18.015H8.40836V14.8472Z" fill="white"/>
<path d="M16.0562 14.8472H9.90137V18.015H16.0562V14.8472Z" fill="white"/>
<path d="M23.704 14.8472H17.5492V18.015H23.704V14.8472Z" fill="white"/>
<path d="M31.3518 14.8472H25.197V18.015H31.3518V14.8472Z" fill="white"/>
<path d="M8.8014 4.63741C9.31128 4.63741 9.72462 4.3101 9.72462 3.90635C9.72462 3.5026 9.31128 3.17529 8.8014 3.17529C8.29152 3.17529 7.87817 3.5026 7.87817 3.90635C7.87817 4.3101 8.29152 4.63741 8.8014 4.63741Z" fill="white"/>
<path d="M24.0653 4.63741C24.5752 4.63741 24.9885 4.3101 24.9885 3.90635C24.9885 3.5026 24.5752 3.17529 24.0653 3.17529C23.5554 3.17529 23.1421 3.5026 23.1421 3.90635C23.1421 4.3101 23.5554 4.63741 24.0653 4.63741Z" fill="white"/>
<path d="M9.17064 0.73877H8.43207V4.10144H9.17064V0.73877Z" fill="#E6E6E6"/>
<path d="M24.4346 0.73877H23.696V4.10144H24.4346V0.73877Z" fill="#E6E6E6"/>
<path d="M29.6662 7.46384C29.6659 7.72851 29.545 7.9842 29.3257 8.18392C29.1064 8.38365 28.8034 8.514 28.4724 8.55102C28.1415 8.58804 27.8048 8.52925 27.5242 8.38544C27.2436 8.24163 27.0379 8.02248 26.9451 7.76823C26.8522 7.51399 26.8783 7.24175 27.0185 7.00152C27.1588 6.76129 27.4039 6.56922 27.7087 6.4606C28.0135 6.35197 28.3575 6.33409 28.6776 6.41024C28.9977 6.48639 29.2724 6.65146 29.4511 6.87511C29.5917 7.0513 29.6663 7.25544 29.6662 7.46384Z" fill="#6C63FF"/>
<path d="M29.451 6.87553L28.081 7.96013C27.9949 7.85457 27.5151 7.36403 27.5151 7.36403C27.5766 7.31483 27.6422 7.26897 27.7115 7.22678L28.1093 7.64675L29.2906 6.71143C29.3505 6.76199 29.4042 6.81694 29.451 6.87553Z" fill="white"/>
<path d="M14.3706 11.9476C14.3702 12.2123 14.2493 12.4679 14.03 12.6677C13.8107 12.8674 13.5077 12.9977 13.1768 13.0347C12.8458 13.0717 12.5091 13.0129 12.2285 12.8692C11.9479 12.7254 11.7423 12.5062 11.6494 12.252C11.5565 11.9978 11.5826 11.7256 11.7229 11.4854C11.8632 11.2451 12.1082 11.0531 12.413 10.9445C12.7178 10.8359 13.0619 10.818 13.382 10.8941C13.7021 10.9703 13.9767 11.1353 14.1555 11.3589C14.296 11.5351 14.3706 11.7392 14.3706 11.9476Z" fill="#6C63FF"/>
<path d="M14.1555 11.3589L12.7854 12.4434C12.6993 12.3379 12.2195 11.8474 12.2195 11.8474C12.281 11.7982 12.3466 11.7523 12.4159 11.7101L12.8137 12.1301L13.995 11.1948C14.0549 11.2454 14.1086 11.3003 14.1555 11.3589Z" fill="white"/>
<path d="M6.72275 11.9476C6.72243 12.2123 6.6015 12.4679 6.38219 12.6676C6.16288 12.8674 5.85992 12.9977 5.52896 13.0347C5.19801 13.0717 4.8613 13.0129 4.5807 12.8692C4.3001 12.7254 4.09447 12.5062 4.00158 12.252C3.90869 11.9978 3.93478 11.7256 4.07507 11.4853C4.21535 11.2451 4.46041 11.0531 4.7652 10.9445C5.06999 10.8359 5.41405 10.818 5.73416 10.8941C6.05427 10.9703 6.32892 11.1353 6.50765 11.3589C6.64821 11.5351 6.72279 11.7392 6.72275 11.9476Z" fill="#6C63FF"/>
<path d="M6.50768 11.3589L5.13762 12.4434C5.05151 12.3379 4.57178 11.8474 4.57178 11.8474C4.63326 11.7982 4.69886 11.7523 4.76815 11.7101L5.16596 12.1301L6.34724 11.1948C6.40714 11.2454 6.46086 11.3003 6.50768 11.3589Z" fill="white"/>
</svg>
