<svg xmlns="http://www.w3.org/2000/svg" width="32" height="21" fill="none" viewBox="0 0 32 21"><g clip-path="url(#clip0)"><path fill="#E6E6E6" d="M31.6631 0.961914H0.963745V20.2823H31.6631V0.961914Z"/><path fill="#fff" d="M30.7846 3.38428H1.84094V19.1384H30.7846V3.38428Z"/><path fill="#6C63FF" d="M31.6494 0.943848H0.950012V2.22546H31.6494V0.943848Z"/><path fill="#E6E6E6" d="M28.2983 5.1084H17.7628V15.1013H28.2983V5.1084Z"/><path fill="#fff" d="M1.91915 1.83639C2.05265 1.83639 2.16087 1.73004 2.16087 1.59886C2.16087 1.46767 2.05265 1.36133 1.91915 1.36133C1.78565 1.36133 1.67743 1.46767 1.67743 1.59886C1.67743 1.73004 1.78565 1.83639 1.91915 1.83639Z"/><path fill="#fff" d="M2.83669 1.83639C2.97019 1.83639 3.07842 1.73004 3.07842 1.59886C3.07842 1.46767 2.97019 1.36133 2.83669 1.36133C2.70319 1.36133 2.59497 1.46767 2.59497 1.59886C2.59497 1.73004 2.70319 1.83639 2.83669 1.83639Z"/><path fill="#fff" d="M3.7543 1.83639C3.8878 1.83639 3.99602 1.73004 3.99602 1.59886C3.99602 1.46767 3.8878 1.36133 3.7543 1.36133C3.6208 1.36133 3.51257 1.46767 3.51257 1.59886C3.51257 1.73004 3.6208 1.83639 3.7543 1.83639Z"/><path fill="#6C63FF" d="M6.87614 5.0874H4.06671V7.84813H6.87614V5.0874Z"/><path fill="#E6E6E6" d="M10.783 5.10352H7.97357V7.86424H10.783V5.10352Z"/><path fill="#6C63FF" d="M10.7942 8.89551H7.9848V18.0816H10.7942V8.89551Z"/><path fill="#E6E6E6" d="M6.79954 8.875H3.99011V13.575H6.79954V8.875Z"/><path fill="#E6E6E6" d="M28.2983 16.707H17.7628V18.0874H28.2983V16.707Z"/><path fill="#E6E6E6" d="M6.79954 14.6123H3.99011V18.0613H6.79954V14.6123Z"/><path fill="#E6E6E6" d="M14.7889 5.12256H11.9795V13.5754H14.7889V5.12256Z"/><path fill="#E6E6E6" d="M14.7777 14.6206H11.9683V18.0716H14.7777V14.6206Z"/></g><defs><clipPath id="clip0"><rect width="30.712" height="19.337" fill="#fff" transform="translate(0.950012 0.943848)"/></clipPath></defs></svg>