<svg width="179" height="114" viewBox="0 0 179 114" fill="none" xmlns="http://www.w3.org/2000/svg">
<g opacity="0.5">
<path opacity="0.5" d="M36.1479 60.6683C50.0739 60.6683 61.3631 49.379 61.3631 35.453C61.3631 21.527 50.0739 10.2378 36.1479 10.2378C22.2219 10.2378 10.9326 21.527 10.9326 35.453C10.9326 49.379 22.2219 60.6683 36.1479 60.6683Z" fill="url(#paint0_linear)"/>
</g>
<path d="M36.1966 59.9758C49.8291 59.9758 60.8803 48.9245 60.8803 35.2921C60.8803 21.6597 49.8291 10.6084 36.1966 10.6084C22.5642 10.6084 11.5129 21.6597 11.5129 35.2921C11.5129 48.9245 22.5642 59.9758 36.1966 59.9758Z" fill="#F5F5F5"/>
<path d="M49.7757 37.7248C49.7757 45.9356 43.8761 49.9763 36.2165 49.9763C28.5569 49.9763 22.0378 45.9356 22.0378 37.7248C22.0378 29.5141 28.2472 22.8579 35.9068 22.8579C43.5664 22.8579 49.7757 29.5141 49.7757 37.7248Z" fill="#333333"/>
<path d="M36.2164 60.0732C41.0395 60.0809 45.7583 58.6688 49.7844 56.0129C48.8748 51.0422 45.4136 50.7588 45.4136 50.7588H26.3283C26.3283 50.7588 23.062 51.027 22.0417 55.5996C26.1914 58.5185 31.1429 60.0812 36.2164 60.0732Z" fill="#6C63FF"/>
<path opacity="0.1" d="M32.1125 44.6953H39.7467V51.0155C39.7467 51.9714 39.367 52.8881 38.691 53.564C38.0151 54.24 37.0984 54.6197 36.1425 54.6197H35.7168C34.7609 54.6197 33.8441 54.24 33.1682 53.564C32.4923 52.8881 32.1126 51.9714 32.1126 51.0155V44.6953H32.1125Z" fill="black"/>
<path d="M32.8002 44.4131H39.0591C39.2414 44.4131 39.4163 44.4855 39.5453 44.6145C39.6742 44.7434 39.7467 44.9183 39.7467 45.1007V50.7333C39.7467 51.6892 39.367 52.6059 38.691 53.2818C38.0151 53.9577 37.0984 54.3375 36.1425 54.3375H35.7168C34.7609 54.3375 33.8441 53.9577 33.1682 53.2818C32.4923 52.6059 32.1125 51.6892 32.1125 50.7333V45.1007C32.1125 44.9183 32.185 44.7434 32.3139 44.6145C32.4429 44.4855 32.6178 44.4131 32.8002 44.4131V44.4131Z" fill="#FDA57D"/>
<path opacity="0.1" d="M32.1267 47.5783C34.5871 48.4976 37.2954 48.5051 39.7608 47.5994V46.6616H32.1267V47.5783Z" fill="black"/>
<path d="M35.9579 48.0891C42.0011 48.0891 46.9001 43.1901 46.9001 37.1468C46.9001 31.1036 42.0011 26.2046 35.9579 26.2046C29.9146 26.2046 25.0156 31.1036 25.0156 37.1468C25.0156 43.1901 29.9146 48.0891 35.9579 48.0891Z" fill="#FDA57D"/>
<path opacity="0.1" d="M23.3455 37.8624C23.3455 37.8624 30.1595 37.0365 35.3216 30.4289C35.3216 30.4289 42.1356 37.9312 46.8848 37.1053C46.8848 37.1053 49.6379 34.2145 46.8848 31.3237C44.1316 28.4329 41.9979 24.785 38.35 25.2668C34.7021 25.7486 30.2283 25.9551 28.3011 27.6758C26.3739 29.3965 23.3455 37.8624 23.3455 37.8624Z" fill="black"/>
<path d="M23.3455 37.7247C23.3455 37.7247 30.1595 36.8988 35.3216 30.2912C35.3216 30.2912 42.1356 37.7935 46.8848 36.9676C46.8848 36.9676 49.6379 34.0768 46.8848 31.186C44.1316 28.2952 41.9979 24.6473 38.35 25.1291C34.7021 25.6109 30.2283 25.8174 28.3011 27.5381C26.3739 29.2588 23.3455 37.7247 23.3455 37.7247Z" fill="#333333"/>
<path d="M25.011 39.0451C25.5732 39.0451 26.0289 38.1906 26.0289 37.1366C26.0289 36.0825 25.5732 35.228 25.011 35.228C24.4489 35.228 23.9932 36.0825 23.9932 37.1366C23.9932 38.1906 24.4489 39.0451 25.011 39.0451Z" fill="#FDA57D"/>
<path d="M46.8985 39.0451C47.4607 39.0451 47.9164 38.1906 47.9164 37.1366C47.9164 36.0825 47.4607 35.228 46.8985 35.228C46.3363 35.228 45.8806 36.0825 45.8806 37.1366C45.8806 38.1906 46.3363 39.0451 46.8985 39.0451Z" fill="#FDA57D"/>
<g opacity="0.5">
<path opacity="0.5" d="M142.935 62.4671C156.861 62.4671 168.15 51.1779 168.15 37.2519C168.15 23.3259 156.861 12.0366 142.935 12.0366C129.009 12.0366 117.72 23.3259 117.72 37.2519C117.72 51.1779 129.009 62.4671 142.935 62.4671Z" fill="url(#paint1_linear)"/>
</g>
<path d="M142.984 61.7746C156.616 61.7746 167.668 50.7233 167.668 37.0909C167.668 23.4585 156.616 12.4072 142.984 12.4072C129.352 12.4072 118.3 23.4585 118.3 37.0909C118.3 50.7233 129.352 61.7746 142.984 61.7746Z" fill="#F5F5F5"/>
<path d="M143.004 61.8716C147.827 61.8793 152.546 60.4672 156.572 57.8113C155.662 52.8406 152.201 52.5571 152.201 52.5571H133.116C133.116 52.5571 129.849 52.8253 128.829 57.3979C132.979 60.3168 137.93 61.8796 143.004 61.8716Z" fill="#6C63FF"/>
<path d="M142.745 48.4848C149.325 48.4848 154.659 43.1506 154.659 36.5705C154.659 29.9905 149.325 24.6562 142.745 24.6562C136.165 24.6562 130.831 29.9905 130.831 36.5705C130.831 43.1506 136.165 48.4848 142.745 48.4848Z" fill="#72351C"/>
<path opacity="0.1" d="M138.9 46.4941H146.534V52.8143C146.534 53.7702 146.154 54.6869 145.478 55.3629C144.802 56.0388 143.885 56.4185 142.93 56.4185H142.504C141.548 56.4185 140.631 56.0388 139.955 55.3629C139.279 54.6869 138.9 53.7702 138.9 52.8143V46.4941Z" fill="black"/>
<path d="M139.587 46.2114H145.846C146.029 46.2114 146.203 46.2839 146.332 46.4128C146.461 46.5418 146.534 46.7167 146.534 46.899V52.5316C146.534 53.4875 146.154 54.4042 145.478 55.0801C144.802 55.7561 143.885 56.1358 142.93 56.1358H142.504C141.548 56.1358 140.631 55.7561 139.955 55.0801C139.279 54.4042 138.9 53.4875 138.9 52.5316V46.899C138.9 46.7167 138.972 46.5418 139.101 46.4128C139.23 46.2839 139.405 46.2114 139.587 46.2114Z" fill="#FDA57D"/>
<path opacity="0.1" d="M138.914 49.3767C141.374 50.2959 144.082 50.3034 146.548 49.3978V48.46H138.914V49.3767Z" fill="black"/>
<path d="M142.745 49.8874C148.788 49.8874 153.687 44.9884 153.687 38.9452C153.687 32.9019 148.788 28.0029 142.745 28.0029C136.702 28.0029 131.803 32.9019 131.803 38.9452C131.803 44.9884 136.702 49.8874 142.745 49.8874Z" fill="#FDA57D"/>
<path opacity="0.1" d="M134.951 28.9919C134.951 28.9919 139.562 38.3526 152.571 32.9151L149.542 28.166L144.174 26.2388L134.951 28.9919Z" fill="black"/>
<path d="M134.951 28.8547C134.951 28.8547 139.562 38.2154 152.571 32.7779L149.542 28.0288L144.174 26.1016L134.951 28.8547Z" fill="#72351C"/>
<path d="M134.91 28.2225C135.221 27.2599 135.758 26.3859 136.477 25.674C138.629 23.5465 142.157 23.0973 143.967 20.6714C144.066 20.843 144.127 21.0334 144.148 21.2302C144.168 21.4271 144.147 21.626 144.086 21.8143C144.025 22.0025 143.925 22.1758 143.793 22.3231C143.661 22.4703 143.499 22.5883 143.318 22.6693C145.05 22.658 147.062 22.5063 148.042 21.0785C148.284 21.6426 148.362 22.2639 148.265 22.8702C148.168 23.4765 147.901 24.0428 147.495 24.5034C149.032 24.5731 150.672 25.6162 150.771 27.1515C150.837 28.1743 150.196 29.1427 149.355 29.7293C148.482 30.2714 147.511 30.6371 146.497 30.8058C143.575 31.45 133.003 34.1501 134.91 28.2225Z" fill="#72351C"/>
<path d="M153.687 39.0415H153.397L147.753 44.066C142.315 41.5193 138.323 44.066 138.323 44.066L132.404 39.248L131.807 39.323C131.888 42.1949 133.095 44.9197 135.168 46.9091C137.241 48.8985 140.013 49.9929 142.886 49.9559C145.758 49.9189 148.501 48.7536 150.522 46.7115C152.543 44.6695 153.68 41.9145 153.687 39.0415V39.0415ZM142.728 45.9932C140.6 45.9932 138.874 45.5617 138.874 45.0296C138.874 44.4974 140.6 44.066 142.728 44.066C144.857 44.066 146.583 44.4974 146.583 45.0296C146.583 45.5617 144.857 45.9932 142.728 45.9932Z" fill="#72351C"/>
<path d="M131.798 40.8439C132.361 40.8439 132.816 39.9894 132.816 38.9354C132.816 37.8813 132.361 37.0269 131.798 37.0269C131.236 37.0269 130.781 37.8813 130.781 38.9354C130.781 39.9894 131.236 40.8439 131.798 40.8439Z" fill="#FDA57D"/>
<path d="M153.686 40.8439C154.248 40.8439 154.704 39.9894 154.704 38.9354C154.704 37.8813 154.248 37.0269 153.686 37.0269C153.124 37.0269 152.668 37.8813 152.668 38.9354C152.668 39.9894 153.124 40.8439 153.686 40.8439Z" fill="#FDA57D"/>
<g opacity="0.5">
<path opacity="0.5" d="M89.5444 103.836C103.47 103.836 114.76 92.5465 114.76 78.6205C114.76 64.6945 103.47 53.4053 89.5444 53.4053C75.6184 53.4053 64.3291 64.6945 64.3291 78.6205C64.3291 92.5465 75.6184 103.836 89.5444 103.836Z" fill="url(#paint2_linear)"/>
</g>
<path d="M89.5443 103.167C103.177 103.167 114.228 92.1154 114.228 78.483C114.228 64.8506 103.177 53.7993 89.5443 53.7993C75.9119 53.7993 64.8606 64.8506 64.8606 78.483C64.8606 92.1154 75.9119 103.167 89.5443 103.167Z" fill="#F5F5F5"/>
<path d="M79.9107 78.7026C79.9107 78.7026 77.1115 92.4896 75.5847 91.7262C75.5847 91.7262 90.3157 104.45 103.322 91.7262C103.322 91.7262 101.032 82.0108 97.7237 78.7026H79.9107Z" fill="#333333"/>
<path d="M89.6131 103.241C94.4363 103.248 99.155 101.836 103.181 99.1804C102.272 94.2097 98.8103 93.9263 98.8103 93.9263H79.725C79.725 93.9263 76.4587 94.1945 75.4385 98.7671C79.5881 101.686 84.5397 103.249 89.6131 103.241Z" fill="#6C63FF"/>
<path d="M89.3544 88.8816C95.3976 88.8816 100.297 83.9826 100.297 77.9393C100.297 71.8961 95.3976 66.9971 89.3544 66.9971C83.3111 66.9971 78.4121 71.8961 78.4121 77.9393C78.4121 83.9826 83.3111 88.8816 89.3544 88.8816Z" fill="#333333"/>
<path opacity="0.1" d="M85.5093 87.8628H93.1434V94.183C93.1434 95.1389 92.7637 96.0556 92.0878 96.7315C91.4118 97.4074 90.4951 97.7872 89.5392 97.7872H89.1135C88.1576 97.7872 87.2408 97.4074 86.5649 96.7315C85.889 96.0556 85.5093 95.1389 85.5093 94.183V87.8628Z" fill="black"/>
<path d="M86.1969 87.5801H92.4558C92.6382 87.5801 92.8131 87.6525 92.942 87.7815C93.071 87.9104 93.1434 88.0853 93.1434 88.2677V93.9002C93.1434 94.8561 92.7637 95.7729 92.0878 96.4488C91.4118 97.1247 90.4951 97.5044 89.5392 97.5044H89.1135C88.1576 97.5044 87.2408 97.1247 86.5649 96.4488C85.889 95.7729 85.5093 94.8561 85.5093 93.9002V88.2677C85.5093 88.0853 85.5817 87.9104 85.7107 87.7815C85.8396 87.6525 86.0145 87.5801 86.1969 87.5801H86.1969Z" fill="#BE7C5E"/>
<path opacity="0.1" d="M85.5232 90.7453C87.9836 91.6646 90.6919 91.6721 93.1573 90.7664V89.8286H85.5232V90.7453Z" fill="black"/>
<path d="M89.3544 91.2566C95.3976 91.2566 100.297 86.3576 100.297 80.3143C100.297 74.2711 95.3976 69.3721 89.3544 69.3721C83.3111 69.3721 78.4121 74.2711 78.4121 80.3143C78.4121 86.3576 83.3111 91.2566 89.3544 91.2566Z" fill="#BE7C5E"/>
<path d="M78.8928 76.1579H99.7595C99.7595 76.1579 97.9781 67.7321 90.0895 68.2693C82.2009 68.8065 78.8928 76.1579 78.8928 76.1579Z" fill="#333333"/>
<path d="M78.6383 81.756C79.2004 81.756 79.6561 80.9016 79.6561 79.8475C79.6561 78.7934 79.2004 77.939 78.6383 77.939C78.0761 77.939 77.6204 78.7934 77.6204 79.8475C77.6204 80.9016 78.0761 81.756 78.6383 81.756Z" fill="#BE7C5E"/>
<path d="M100.014 81.756C100.576 81.756 101.032 80.9016 101.032 79.8475C101.032 78.7934 100.576 77.939 100.014 77.939C99.4518 77.939 98.9961 78.7934 98.9961 79.8475C98.9961 80.9016 99.4518 81.756 100.014 81.756Z" fill="#BE7C5E"/>
<path opacity="0.1" d="M78.8928 76.4406H99.7595C99.7595 76.4406 97.9781 68.0148 90.0895 68.552C82.2009 69.0892 78.8928 76.4406 78.8928 76.4406Z" fill="black"/>
<path d="M89.5443 55.6381C94.0899 55.6381 98.5334 56.986 102.313 59.5113C106.092 62.0367 109.038 65.6261 110.778 69.8257C112.517 74.0252 112.972 78.6462 112.085 83.1044C111.199 87.5626 109.01 91.6578 105.796 94.8719C102.581 98.0861 98.4862 100.275 94.028 101.162C89.5698 102.049 84.9488 101.593 80.7492 99.854C76.5497 98.1144 72.9603 95.1687 70.4349 91.3892C67.9096 87.6097 66.5617 83.1663 66.5617 78.6207C66.5617 75.6026 67.1561 72.614 68.3111 69.8256C69.4661 67.0373 71.159 64.5037 73.2931 62.3695C75.4273 60.2354 77.9609 58.5425 80.7493 57.3875C83.5376 56.2325 86.5262 55.6381 89.5443 55.6381ZM89.5443 49.9624C83.8763 49.9624 78.3355 51.6432 73.6226 54.7922C68.9098 57.9412 65.2366 62.417 63.0675 67.6537C60.8984 72.8903 60.3309 78.6525 61.4367 84.2117C62.5425 89.7709 65.2719 94.8773 69.2798 98.8852C73.2878 102.893 78.3942 105.623 83.9534 106.728C89.5126 107.834 95.2748 107.267 100.511 105.098C105.748 102.929 110.224 99.2553 113.373 94.5424C116.522 89.8296 118.203 84.2888 118.203 78.6207C118.194 71.0227 115.172 63.7383 109.799 58.3657C104.427 52.9931 97.1424 49.971 89.5443 49.9624Z" fill="#CCCCCC"/>
<path d="M92.0195 43.2627H85.3015V50.3343H92.0195V43.2627Z" fill="#CCCCCC"/>
<path d="M104 46.1274L100.358 52.189L106.117 55.649L109.759 49.5875L104 46.1274Z" fill="#CCCCCC"/>
<path d="M118.31 57.7088L112.125 61.1372L115.382 67.0129L121.567 63.5845L118.31 57.7088Z" fill="#CCCCCC"/>
<path d="M115.783 89.8941L112.223 95.5913L118.22 99.3387L121.78 93.6415L115.783 89.8941Z" fill="#CCCCCC"/>
<path d="M60.7787 57.7088L57.5217 63.5845L63.7067 67.0128L66.9636 61.1371L60.7787 57.7088Z" fill="#CCCCCC"/>
<path d="M63.3056 89.8942L57.3086 93.6416L60.8686 99.3388L66.8656 95.5914L63.3056 89.8942Z" fill="#CCCCCC"/>
<path d="M75.0885 46.1279L69.3301 49.5879L72.9722 55.6494L78.7307 52.1894L75.0885 46.1279Z" fill="#CCCCCC"/>
<path d="M92.0195 106.907H85.3015V113.979H92.0195V106.907Z" fill="#CCCCCC"/>
<path d="M106.117 101.592L100.358 105.052L104 111.114L109.759 107.654L106.117 101.592Z" fill="#CCCCCC"/>
<path d="M72.9722 101.592L69.3301 107.653L75.0885 111.113L78.7307 105.052L72.9722 101.592Z" fill="#CCCCCC"/>
<path d="M61.6113 75.792H53.479V81.8028H61.6113V75.792Z" fill="#CCCCCC"/>
<path d="M117.477 81.8027H125.609V75.7919H117.477V81.8027Z" fill="#CCCCCC"/>
<path d="M142.935 14.2689C147.481 14.2689 151.924 15.6168 155.703 18.1422C159.483 20.6676 162.429 24.257 164.168 28.4565C165.908 32.656 166.363 37.2771 165.476 41.7353C164.589 46.1935 162.4 50.2886 159.186 53.5028C155.972 56.717 151.877 58.9059 147.419 59.7927C142.96 60.6795 138.339 60.2243 134.14 58.4848C129.94 56.7453 126.351 53.7996 123.826 50.0201C121.3 46.2406 119.952 41.7972 119.952 37.2516C119.952 31.1562 122.374 25.3105 126.684 21.0004C130.994 16.6903 136.84 14.2689 142.935 14.2689ZM142.935 8.59326C137.267 8.59326 131.726 10.274 127.013 13.4231C122.3 16.5721 118.627 21.0479 116.458 26.2845C114.289 31.5212 113.721 37.2834 114.827 42.8426C115.933 48.4017 118.663 53.5082 122.67 57.5161C126.678 61.524 131.785 64.2535 137.344 65.3593C142.903 66.4651 148.665 65.8975 153.902 63.7285C159.139 61.5594 163.614 57.8862 166.764 53.1733C169.913 48.4605 171.593 42.9197 171.593 37.2516C171.585 29.6536 168.563 22.3692 163.19 16.9966C157.817 11.624 150.533 8.60185 142.935 8.59326Z" fill="#CCCCCC"/>
<path d="M145.41 1.89355H138.692V8.96515H145.41V1.89355Z" fill="#CCCCCC"/>
<path d="M157.391 4.75877L153.749 10.8203L159.507 14.2803L163.149 8.21881L157.391 4.75877Z" fill="#CCCCCC"/>
<path d="M171.701 16.3397L165.516 19.7681L168.773 25.6438L174.958 22.2154L171.701 16.3397Z" fill="#CCCCCC"/>
<path d="M169.174 48.525L165.614 54.2222L171.611 57.9695L175.171 52.2724L169.174 48.525Z" fill="#CCCCCC"/>
<path d="M114.169 16.3401L110.912 22.2158L117.097 25.6442L120.354 19.7685L114.169 16.3401Z" fill="#CCCCCC"/>
<path d="M116.696 48.5251L110.699 52.2725L114.259 57.9697L120.256 54.2223L116.696 48.5251Z" fill="#CCCCCC"/>
<path d="M128.479 4.75872L122.72 8.21875L126.363 14.2803L132.121 10.8203L128.479 4.75872Z" fill="#CCCCCC"/>
<path d="M145.41 65.5381H138.692V72.6097H145.41V65.5381Z" fill="#CCCCCC"/>
<path d="M159.508 60.2226L153.75 63.6826L157.392 69.7442L163.15 66.2841L159.508 60.2226Z" fill="#CCCCCC"/>
<path d="M126.363 60.2231L122.72 66.2847L128.479 69.7447L132.121 63.6832L126.363 60.2231Z" fill="#CCCCCC"/>
<path d="M115.002 34.4233H106.87V40.4342H115.002V34.4233Z" fill="#CCCCCC"/>
<path d="M170.868 40.4341H179V34.4232H170.868V40.4341Z" fill="#CCCCCC"/>
<path d="M36.1395 12.5009C36.4093 12.5009 36.6799 12.5056 36.9513 12.515C42.9726 12.7242 48.671 15.2896 52.8196 19.6587C56.9682 24.0279 59.2352 29.8514 59.1325 35.8754C59.0299 41.8995 56.5658 47.6424 52.2708 51.8677C47.9758 56.093 42.1933 58.4627 36.1684 58.4667C35.8986 58.4667 35.628 58.462 35.3566 58.4526C29.3353 58.2434 23.6369 55.678 19.4883 51.3089C15.3397 46.9397 13.0727 41.1162 13.1754 35.0921C13.278 29.0681 15.7421 23.3252 20.0371 19.0999C24.3321 14.8746 30.1145 12.5049 36.1395 12.5009ZM36.1412 6.8252V12.5009L36.1407 6.8252C28.6273 6.82869 21.4158 9.78266 16.0589 15.051C10.7021 20.3194 7.62843 27.4807 7.49981 34.9931C7.37119 42.5054 10.1979 49.7678 15.3712 55.2164C20.5446 60.6651 27.6508 63.8642 35.1597 64.1249C35.4948 64.1365 35.8341 64.1424 36.1684 64.1424C43.6817 64.1386 50.893 61.1844 56.2497 55.916C61.6063 50.6475 64.6797 43.4862 64.8082 35.9739C64.9367 28.4617 62.1099 21.1995 56.9365 15.7509C51.7632 10.3024 44.657 7.10339 37.1482 6.84272C36.8131 6.83109 36.4743 6.8252 36.1412 6.8252Z" fill="#CCCCCC"/>
<path d="M33.1401 4.66759e-05L32.8948 7.06738L39.6087 7.30046L39.8541 0.233124L33.1401 4.66759e-05Z" fill="#CCCCCC"/>
<path d="M51.7289 3.51234L47.8787 9.44385L53.5136 13.1016L57.3639 7.17009L51.7289 3.51234Z" fill="#CCCCCC"/>
<path d="M65.6276 15.5827L59.3274 18.7944L62.3785 24.7796L68.6787 21.5679L65.6276 15.5827Z" fill="#CCCCCC"/>
<path d="M61.9855 47.6607L58.23 53.231L64.0934 57.1841L67.8489 51.6139L61.9855 47.6607Z" fill="#CCCCCC"/>
<path d="M8.13097 13.5865L4.67212 19.3457L10.7344 22.9866L14.1933 17.2274L8.13097 13.5865Z" fill="#CCCCCC"/>
<path d="M9.53996 45.8404L3.4165 49.3774L6.7767 55.1947L12.9002 51.6577L9.53996 45.8404Z" fill="#CCCCCC"/>
<path d="M22.834 2.50893L16.959 5.76709L20.3886 11.9513L26.2637 8.69318L22.834 2.50893Z" fill="#CCCCCC"/>
<path d="M30.9321 63.606L30.6868 70.6733L37.4007 70.9064L37.6461 63.8391L30.9321 63.606Z" fill="#CCCCCC"/>
<path d="M51.919 59.0163L46.0439 62.2744L49.4736 68.4587L55.3486 65.2005L51.919 59.0163Z" fill="#CCCCCC"/>
<path d="M18.7946 57.8663L14.9443 63.7979L20.5793 67.4556L24.4295 61.5241L18.7946 57.8663Z" fill="#CCCCCC"/>
<path d="M8.33617 31.6879L0.20874 31.4058L0.000197401 37.413L8.12763 37.6951L8.33617 31.6879Z" fill="#CCCCCC"/>
<path d="M63.9592 39.6334L72.0867 39.9155L72.2952 33.9083L64.1678 33.6261L63.9592 39.6334Z" fill="#CCCCCC"/>
<defs>
<linearGradient id="paint0_linear" x1="36.1479" y1="60.6683" x2="36.1479" y2="10.2378" gradientUnits="userSpaceOnUse">
<stop stop-color="#808080" stop-opacity="0.25"/>
<stop offset="0.53514" stop-color="#808080" stop-opacity="0.12"/>
<stop offset="1" stop-color="#808080" stop-opacity="0.1"/>
</linearGradient>
<linearGradient id="paint1_linear" x1="31579.4" y1="9447.79" x2="31579.4" y2="1830.17" gradientUnits="userSpaceOnUse">
<stop stop-color="#808080" stop-opacity="0.25"/>
<stop offset="0.53514" stop-color="#808080" stop-opacity="0.12"/>
<stop offset="1" stop-color="#808080" stop-opacity="0.1"/>
</linearGradient>
<linearGradient id="paint2_linear" x1="23461.3" y1="15738" x2="23461.3" y2="8120.37" gradientUnits="userSpaceOnUse">
<stop stop-color="#808080" stop-opacity="0.25"/>
<stop offset="0.53514" stop-color="#808080" stop-opacity="0.12"/>
<stop offset="1" stop-color="#808080" stop-opacity="0.1"/>
</linearGradient>
</defs>
</svg>
