<svg xmlns="http://www.w3.org/2000/svg" width="365" height="138" fill="none" viewBox="0 0 365 138"><path fill="#1A50A1" d="M15.9785 45.4082C15.9785 44.2832 15.5801 43.416 14.7832 42.8066C13.998 42.1973 12.5742 41.582 10.5117 40.9609C8.44922 40.3398 6.80859 39.6484 5.58984 38.8867C3.25781 37.4219 2.0918 35.5117 2.0918 33.1562C2.0918 31.0938 2.92969 29.3945 4.60547 28.0586C6.29297 26.7227 8.47852 26.0547 11.1621 26.0547C12.9434 26.0547 14.5312 26.3828 15.9258 27.0391C17.3203 27.6953 18.416 28.6328 19.2129 29.8516C20.0098 31.0586 20.4082 32.4004 20.4082 33.877H15.9785C15.9785 32.541 15.5566 31.498 14.7129 30.748C13.8809 29.9863 12.6855 29.6055 11.127 29.6055C9.67383 29.6055 8.54297 29.916 7.73438 30.5371C6.9375 31.1582 6.53906 32.0254 6.53906 33.1387C6.53906 34.0762 6.97266 34.8613 7.83984 35.4941C8.70703 36.1152 10.1367 36.7246 12.1289 37.3223C14.1211 37.9082 15.7207 38.582 16.9277 39.3438C18.1348 40.0938 19.0195 40.9609 19.582 41.9453C20.1445 42.918 20.4258 44.0605 20.4258 45.373C20.4258 47.5059 19.6055 49.2051 17.9648 50.4707C16.3359 51.7246 14.1211 52.3516 11.3203 52.3516C9.46875 52.3516 7.76367 52.0117 6.20508 51.332C4.6582 50.6406 3.45117 49.6914 2.58398 48.4844C1.72852 47.2773 1.30078 45.8711 1.30078 44.2656H5.74805C5.74805 45.7188 6.22852 46.8438 7.18945 47.6406C8.15039 48.4375 9.52734 48.8359 11.3203 48.8359C12.8672 48.8359 14.0273 48.5254 14.8008 47.9043C15.5859 47.2715 15.9785 46.4395 15.9785 45.4082ZM40.6343 46.041H30.7202L28.646 52H24.023L33.6909 26.4062H37.6812L47.3667 52H42.7261L40.6343 46.041ZM31.9683 42.4551H39.3862L35.6773 31.8379L31.9683 42.4551ZM67.2237 40.5742H56.712V48.4492H68.9991V52H52.2647V26.4062H68.876V29.9922H56.712V37.0586H67.2237V40.5742ZM105.074 43.668C104.816 46.3984 103.809 48.5312 102.051 50.0664C100.293 51.5898 97.9552 52.3516 95.0372 52.3516C92.9981 52.3516 91.1993 51.8711 89.6407 50.9102C88.0938 49.9375 86.8985 48.5605 86.0548 46.7793C85.211 44.998 84.7716 42.9297 84.7364 40.5742V38.1836C84.7364 35.7695 85.1641 33.6426 86.0196 31.8027C86.8751 29.9629 88.0997 28.5449 89.6934 27.5488C91.2989 26.5527 93.1505 26.0547 95.2481 26.0547C98.0723 26.0547 100.346 26.8223 102.068 28.3574C103.791 29.8926 104.793 32.0605 105.074 34.8613H100.645C100.434 33.0215 99.8946 31.6973 99.0274 30.8887C98.172 30.0684 96.9122 29.6582 95.2481 29.6582C93.3145 29.6582 91.8262 30.3672 90.7833 31.7852C89.752 33.1914 89.2247 35.2598 89.2012 37.9902V40.2578C89.2012 43.0234 89.6934 45.1328 90.6778 46.5859C91.6739 48.0391 93.127 48.7656 95.0372 48.7656C96.7833 48.7656 98.0958 48.373 98.9747 47.5879C99.8536 46.8027 100.41 45.4961 100.645 43.668H105.074ZM109.832 42.3145C109.832 40.4512 110.201 38.7754 110.939 37.2871C111.677 35.7871 112.714 34.6387 114.05 33.8418C115.386 33.0332 116.921 32.6289 118.656 32.6289C121.222 32.6289 123.302 33.4551 124.896 35.1074C126.502 36.7598 127.369 38.9512 127.498 41.6816L127.515 42.6836C127.515 44.5586 127.152 46.2344 126.425 47.7109C125.711 49.1875 124.679 50.3301 123.332 51.1387C121.996 51.9473 120.449 52.3516 118.691 52.3516C116.007 52.3516 113.857 51.4609 112.24 49.6797C110.634 47.8867 109.832 45.502 109.832 42.5254V42.3145ZM114.103 42.6836C114.103 44.6406 114.507 46.1758 115.316 47.2891C116.125 48.3906 117.25 48.9414 118.691 48.9414C120.132 48.9414 121.252 48.3789 122.048 47.2539C122.857 46.1289 123.261 44.4824 123.261 42.3145C123.261 40.3926 122.845 38.8691 122.013 37.7441C121.193 36.6191 120.074 36.0566 118.656 36.0566C117.261 36.0566 116.154 36.6133 115.334 37.7266C114.513 38.8281 114.103 40.4805 114.103 42.6836ZM137.651 52H133.38V25H137.651V52ZM148.842 52H144.571V25H148.842V52ZM163.865 52.3516C161.158 52.3516 158.961 51.502 157.274 49.8027C155.598 48.0918 154.76 45.8184 154.76 42.9824V42.4551C154.76 40.5566 155.123 38.8633 155.85 37.375C156.588 35.875 157.619 34.709 158.944 33.877C160.268 33.0449 161.744 32.6289 163.373 32.6289C165.963 32.6289 167.961 33.4551 169.367 35.1074C170.785 36.7598 171.494 39.0977 171.494 42.1211V43.8438H159.067C159.195 45.4141 159.717 46.6562 160.631 47.5703C161.557 48.4844 162.717 48.9414 164.111 48.9414C166.069 48.9414 167.662 48.1504 168.893 46.5684L171.195 48.7656C170.434 49.9023 169.414 50.7871 168.137 51.4199C166.871 52.041 165.447 52.3516 163.865 52.3516ZM163.356 36.0566C162.184 36.0566 161.235 36.4668 160.508 37.2871C159.793 38.1074 159.336 39.25 159.137 40.7148H167.276V40.3984C167.182 38.9688 166.801 37.8906 166.133 37.1641C165.465 36.4258 164.539 36.0566 163.356 36.0566ZM176.058 42.3496C176.058 39.3965 176.75 37.041 178.133 35.2832C179.527 33.5137 181.373 32.6289 183.67 32.6289C185.838 32.6289 187.543 33.3848 188.785 34.8965L188.978 32.9805H192.828V51.4199C192.828 53.916 192.049 55.8848 190.49 57.3262C188.943 58.7676 186.851 59.4883 184.215 59.4883C182.82 59.4883 181.455 59.1953 180.119 58.6094C178.795 58.0352 177.787 57.2793 177.095 56.3418L179.117 53.7754C180.429 55.334 182.047 56.1133 183.968 56.1133C185.386 56.1133 186.506 55.7266 187.326 54.9531C188.146 54.1914 188.556 53.0664 188.556 51.5781V50.2949C187.326 51.666 185.685 52.3516 183.634 52.3516C181.408 52.3516 179.586 51.4668 178.168 49.6973C176.761 47.9277 176.058 45.4785 176.058 42.3496ZM180.312 42.7188C180.312 44.6289 180.699 46.1348 181.472 47.2363C182.258 48.3262 183.341 48.8711 184.724 48.8711C186.447 48.8711 187.724 48.1328 188.556 46.6562V38.2891C187.748 36.8477 186.482 36.127 184.759 36.127C183.353 36.127 182.258 36.6836 181.472 37.7969C180.699 38.9102 180.312 40.5508 180.312 42.7188ZM203.755 52H199.484V32.9805H203.755V52ZM199.22 28.041C199.22 27.3848 199.425 26.8398 199.835 26.4062C200.257 25.9727 200.855 25.7559 201.628 25.7559C202.402 25.7559 202.999 25.9727 203.421 26.4062C203.843 26.8398 204.054 27.3848 204.054 28.041C204.054 28.6855 203.843 29.2246 203.421 29.6582C202.999 30.0801 202.402 30.291 201.628 30.291C200.855 30.291 200.257 30.0801 199.835 29.6582C199.425 29.2246 199.22 28.6855 199.22 28.041ZM221.766 52C221.579 51.6367 221.415 51.0449 221.274 50.2246C219.915 51.6426 218.251 52.3516 216.282 52.3516C214.372 52.3516 212.813 51.8066 211.606 50.7168C210.399 49.627 209.796 48.2793 209.796 46.6738C209.796 44.6465 210.546 43.0938 212.046 42.0156C213.557 40.9258 215.714 40.3809 218.514 40.3809H221.134V39.1328C221.134 38.1484 220.858 37.3633 220.307 36.7773C219.757 36.1797 218.919 35.8809 217.794 35.8809C216.821 35.8809 216.024 36.127 215.403 36.6191C214.782 37.0996 214.471 37.7148 214.471 38.4648H210.2C210.2 37.4219 210.546 36.4492 211.237 35.5469C211.928 34.6328 212.866 33.918 214.05 33.4023C215.245 32.8867 216.575 32.6289 218.04 32.6289C220.266 32.6289 222.042 33.1914 223.366 34.3164C224.69 35.4297 225.37 37 225.405 39.0273V47.6055C225.405 49.3164 225.645 50.6816 226.126 51.7012V52H221.766ZM217.073 48.9238C217.917 48.9238 218.708 48.7188 219.446 48.3086C220.196 47.8984 220.759 47.3477 221.134 46.6562V43.0703H218.831C217.249 43.0703 216.059 43.3457 215.262 43.8965C214.466 44.4473 214.067 45.2266 214.067 46.2344C214.067 47.0547 214.337 47.7109 214.876 48.2031C215.426 48.6836 216.159 48.9238 217.073 48.9238ZM237.211 28.3574V32.9805H240.569V36.1445H237.211V46.7617C237.211 47.4883 237.352 48.0156 237.633 48.3438C237.926 48.6602 238.442 48.8184 239.18 48.8184C239.672 48.8184 240.17 48.7598 240.674 48.6426V51.9473C239.701 52.2168 238.764 52.3516 237.862 52.3516C234.58 52.3516 232.94 50.541 232.94 46.9199V36.1445H229.811V32.9805H232.94V28.3574H237.211ZM254.203 52.3516C251.496 52.3516 249.299 51.502 247.611 49.8027C245.935 48.0918 245.097 45.8184 245.097 42.9824V42.4551C245.097 40.5566 245.461 38.8633 246.187 37.375C246.926 35.875 247.957 34.709 249.281 33.877C250.605 33.0449 252.082 32.6289 253.711 32.6289C256.301 32.6289 258.299 33.4551 259.705 35.1074C261.123 36.7598 261.832 39.0977 261.832 42.1211V43.8438H249.404C249.533 45.4141 250.054 46.6562 250.969 47.5703C251.894 48.4844 253.054 48.9414 254.449 48.9414C256.406 48.9414 258 48.1504 259.23 46.5684L261.533 48.7656C260.771 49.9023 259.752 50.7871 258.474 51.4199C257.209 52.041 255.785 52.3516 254.203 52.3516ZM253.693 36.0566C252.521 36.0566 251.572 36.4668 250.845 37.2871C250.131 38.1074 249.674 39.25 249.474 40.7148H257.613V40.3984C257.519 38.9688 257.138 37.8906 256.47 37.1641C255.803 36.4258 254.877 36.0566 253.693 36.0566ZM298.03 43.668C297.772 46.3984 296.764 48.5312 295.007 50.0664C293.249 51.5898 290.911 52.3516 287.993 52.3516C285.954 52.3516 284.155 51.8711 282.596 50.9102C281.05 49.9375 279.854 48.5605 279.011 46.7793C278.167 44.998 277.727 42.9297 277.692 40.5742V38.1836C277.692 35.7695 278.12 33.6426 278.975 31.8027C279.831 29.9629 281.055 28.5449 282.649 27.5488C284.255 26.5527 286.106 26.0547 288.204 26.0547C291.028 26.0547 293.302 26.8223 295.024 28.3574C296.747 29.8926 297.749 32.0605 298.03 34.8613H293.6C293.389 33.0215 292.85 31.6973 291.983 30.8887C291.128 30.0684 289.868 29.6582 288.204 29.6582C286.27 29.6582 284.782 30.3672 283.739 31.7852C282.708 33.1914 282.18 35.2598 282.157 37.9902V40.2578C282.157 43.0234 282.649 45.1328 283.634 46.5859C284.63 48.0391 286.083 48.7656 287.993 48.7656C289.739 48.7656 291.052 48.373 291.93 47.5879C292.809 46.8027 293.366 45.4961 293.6 43.668H298.03ZM308.131 52H303.86V25H308.131V52ZM326.301 50.1367C325.047 51.6133 323.265 52.3516 320.957 52.3516C318.894 52.3516 317.33 51.748 316.264 50.541C315.209 49.334 314.681 47.5879 314.681 45.3027V32.9805H318.953V45.25C318.953 47.6641 319.955 48.8711 321.959 48.8711C324.033 48.8711 325.433 48.127 326.16 46.6387V32.9805H330.431V52H326.406L326.301 50.1367ZM353.453 42.6836C353.453 45.6367 352.79 47.9863 351.466 49.7324C350.154 51.4785 348.343 52.3516 346.035 52.3516C343.808 52.3516 342.074 51.5488 340.831 49.9434L340.62 52H336.753V25H341.025V34.8086C342.255 33.3555 343.913 32.6289 345.999 32.6289C348.32 32.6289 350.142 33.4902 351.466 35.2129C352.79 36.9355 353.453 39.3438 353.453 42.4375V42.6836ZM349.181 42.3145C349.181 40.252 348.818 38.7051 348.091 37.6738C347.365 36.6426 346.31 36.127 344.927 36.127C343.076 36.127 341.775 36.9355 341.025 38.5527V46.3926C341.786 48.0449 343.099 48.8711 344.962 48.8711C346.298 48.8711 347.329 48.373 348.056 47.377C348.783 46.3809 349.158 44.875 349.181 42.8594V42.3145ZM13.5527 111C13.3652 110.637 13.2012 110.045 13.0605 109.225C11.7012 110.643 10.0371 111.352 8.06836 111.352C6.1582 111.352 4.59961 110.807 3.39258 109.717C2.18555 108.627 1.58203 107.279 1.58203 105.674C1.58203 103.646 2.33203 102.094 3.83203 101.016C5.34375 99.9258 7.5 99.3809 10.3008 99.3809H12.9199V98.1328C12.9199 97.1484 12.6445 96.3633 12.0938 95.7773C11.543 95.1797 10.7051 94.8809 9.58008 94.8809C8.60742 94.8809 7.81055 95.127 7.18945 95.6191C6.56836 96.0996 6.25781 96.7148 6.25781 97.4648H1.98633C1.98633 96.4219 2.33203 95.4492 3.02344 94.5469C3.71484 93.6328 4.65234 92.918 5.83594 92.4023C7.03125 91.8867 8.36133 91.6289 9.82617 91.6289C12.0527 91.6289 13.8281 92.1914 15.1523 93.3164C16.4766 94.4297 17.1562 96 17.1914 98.0273V106.605C17.1914 108.316 17.4316 109.682 17.9121 110.701V111H13.5527ZM8.85938 107.924C9.70312 107.924 10.4941 107.719 11.2324 107.309C11.9824 106.898 12.5449 106.348 12.9199 105.656V102.07H10.6172C9.03516 102.07 7.8457 102.346 7.04883 102.896C6.25195 103.447 5.85352 104.227 5.85352 105.234C5.85352 106.055 6.12305 106.711 6.66211 107.203C7.21289 107.684 7.94531 107.924 8.85938 107.924ZM28.9976 87.3574V91.9805H32.355V95.1445H28.9976V105.762C28.9976 106.488 29.1382 107.016 29.4195 107.344C29.7124 107.66 30.228 107.818 30.9663 107.818C31.4585 107.818 31.9566 107.76 32.4605 107.643V110.947C31.4878 111.217 30.5503 111.352 29.648 111.352C26.3667 111.352 24.7261 109.541 24.7261 105.92V95.1445H21.5972V91.9805H24.7261V87.3574H28.9976ZM62.3482 104.408C62.3482 103.283 61.9498 102.416 61.1529 101.807C60.3677 101.197 58.9439 100.582 56.8814 99.9609C54.8189 99.3398 53.1783 98.6484 51.9595 97.8867C49.6275 96.4219 48.4615 94.5117 48.4615 92.1562C48.4615 90.0938 49.2994 88.3945 50.9752 87.0586C52.6627 85.7227 54.8482 85.0547 57.5318 85.0547C59.313 85.0547 60.9009 85.3828 62.2955 86.0391C63.69 86.6953 64.7857 87.6328 65.5826 88.8516C66.3795 90.0586 66.7779 91.4004 66.7779 92.877H62.3482C62.3482 91.541 61.9263 90.498 61.0826 89.748C60.2505 88.9863 59.0552 88.6055 57.4966 88.6055C56.0435 88.6055 54.9127 88.916 54.1041 89.5371C53.3072 90.1582 52.9087 91.0254 52.9087 92.1387C52.9087 93.0762 53.3423 93.8613 54.2095 94.4941C55.0767 95.1152 56.5064 95.7246 58.4986 96.3223C60.4908 96.9082 62.0904 97.582 63.2974 98.3438C64.5045 99.0938 65.3892 99.9609 65.9517 100.945C66.5142 101.918 66.7955 103.061 66.7955 104.373C66.7955 106.506 65.9752 108.205 64.3345 109.471C62.7056 110.725 60.4908 111.352 57.69 111.352C55.8384 111.352 54.1334 111.012 52.5748 110.332C51.0279 109.641 49.8209 108.691 48.9537 107.484C48.0982 106.277 47.6705 104.871 47.6705 103.266H52.1177C52.1177 104.719 52.5982 105.844 53.5591 106.641C54.5201 107.438 55.897 107.836 57.69 107.836C59.2369 107.836 60.397 107.525 61.1705 106.904C61.9556 106.271 62.3482 105.439 62.3482 104.408ZM87.004 105.041H77.0899L75.0157 111H70.3927L80.0606 85.4062H84.0509L93.7364 111H89.0958L87.004 105.041ZM78.338 101.455H85.7559L82.047 90.8379L78.338 101.455ZM112.011 104.408C112.011 103.283 111.613 102.416 110.816 101.807C110.031 101.197 108.607 100.582 106.545 99.9609C104.482 99.3398 102.841 98.6484 101.623 97.8867C99.2906 96.4219 98.1246 94.5117 98.1246 92.1562C98.1246 90.0938 98.9625 88.3945 100.638 87.0586C102.326 85.7227 104.511 85.0547 107.195 85.0547C108.976 85.0547 110.564 85.3828 111.959 86.0391C113.353 86.6953 114.449 87.6328 115.246 88.8516C116.043 90.0586 116.441 91.4004 116.441 92.877H112.011C112.011 91.541 111.589 90.498 110.746 89.748C109.914 88.9863 108.718 88.6055 107.16 88.6055C105.707 88.6055 104.576 88.916 103.767 89.5371C102.97 90.1582 102.572 91.0254 102.572 92.1387C102.572 93.0762 103.005 93.8613 103.873 94.4941C104.74 95.1152 106.17 95.7246 108.162 96.3223C110.154 96.9082 111.754 97.582 112.961 98.3438C114.168 99.0938 115.052 99.9609 115.615 100.945C116.177 101.918 116.459 103.061 116.459 104.373C116.459 106.506 115.638 108.205 113.998 109.471C112.369 110.725 110.154 111.352 107.353 111.352C105.502 111.352 103.796 111.012 102.238 110.332C100.691 109.641 99.484 108.691 98.6168 107.484C97.7613 106.277 97.3336 104.871 97.3336 103.266H101.781C101.781 104.719 102.261 105.844 103.222 106.641C104.183 107.438 105.56 107.836 107.353 107.836C108.9 107.836 110.06 107.525 110.834 106.904C111.619 106.271 112.011 105.439 112.011 104.408ZM140.833 88.9922H132.853V111H128.441V88.9922H120.53V85.4062H140.833V88.9922ZM155.592 101.139H150.635V111H146.188V85.4062H155.188C158.141 85.4062 160.421 86.0684 162.026 87.3926C163.631 88.7168 164.434 90.6328 164.434 93.1406C164.434 94.8516 164.018 96.2871 163.186 97.4473C162.366 98.5957 161.217 99.4805 159.741 100.102L165.489 110.771V111H160.725L155.592 101.139ZM150.635 97.5703H155.206C156.706 97.5703 157.878 97.1953 158.721 96.4453C159.565 95.6836 159.987 94.6465 159.987 93.334C159.987 91.9629 159.594 90.9023 158.809 90.1523C158.036 89.4023 156.876 89.0156 155.329 88.9922H150.635V97.5703ZM184.959 105.041H175.045L172.971 111H168.348L178.016 85.4062H182.006L191.692 111H187.051L184.959 105.041ZM176.293 101.455H183.711L180.002 90.8379L176.293 101.455Z"/><path fill="#005695" d="M263.937 81.9662C263.768 80.9994 263.501 80.0655 263.141 79.1723L266.37 76.424C265.918 75.5288 265.402 74.6686 264.807 73.8607L260.661 75.1162C260.008 74.3654 259.275 73.6785 258.476 73.0643L259.813 69.17C258.953 68.611 258.037 68.1276 257.084 67.7013L254.158 70.7345C253.207 70.3964 252.214 70.1455 251.184 69.9876L250.263 65.9808C249.742 65.9421 249.22 65.9062 248.688 65.9062C248.155 65.9062 247.633 65.9421 247.111 65.9808L246.19 69.9876C245.161 70.1455 244.167 70.3964 243.216 70.7345L240.29 67.7013C239.337 68.1266 238.421 68.611 237.561 69.17L238.898 73.0643C238.099 73.6785 237.367 74.3663 236.714 75.1162L232.568 73.8607C231.973 74.6686 231.458 75.5288 231.005 76.424L234.234 79.1723C233.874 80.0655 233.606 80.9984 233.438 81.9662L229.173 82.8313C229.132 83.3215 229.094 83.8126 229.094 84.3125C229.094 84.8124 229.132 85.3035 229.173 85.7937L233.438 86.6588C233.606 87.6256 233.874 88.5595 234.234 89.4527L231.005 92.201C231.457 93.0962 231.973 93.9564 232.568 94.7643L236.714 93.5088C237.367 94.2596 238.1 94.9465 238.899 95.5607L237.562 99.455C238.422 100.014 239.338 100.497 240.291 100.924L243.217 97.8905C244.168 98.2286 245.161 98.4795 246.191 98.6374L247.112 102.644C247.633 102.683 248.155 102.719 248.688 102.719C249.22 102.719 249.742 102.683 250.264 102.644L251.185 98.6374C252.214 98.4795 253.208 98.2286 254.159 97.8905L257.085 100.924C258.038 100.498 258.954 100.014 259.814 99.455L258.477 95.5607C259.276 94.9465 260.008 94.2587 260.661 93.5079L264.807 94.7634C265.402 93.9554 265.917 93.0952 266.37 92.2001L263.141 89.4517C263.501 88.5585 263.768 87.6256 263.937 86.6578L268.202 85.7927C268.243 85.3035 268.281 84.8124 268.281 84.3125C268.281 83.8126 268.243 83.3215 268.202 82.8313L263.937 81.9662ZM248.688 94C242.992 94 238.375 89.6629 238.375 84.3125C238.375 78.9621 242.992 74.625 248.688 74.625C254.383 74.625 259 78.9621 259 84.3125C259 89.6629 254.383 94 248.688 94V94Z"/><path fill="#005695" d="M278.242 109.205C278.081 108.704 277.871 108.223 277.612 107.771L279.24 104.839C278.691 104.186 278.064 103.597 277.369 103.081L274.248 104.611C273.766 104.367 273.255 104.169 272.722 104.019L271.666 100.861C271.231 100.812 270.791 100.781 270.344 100.781C269.896 100.781 269.457 100.812 269.023 100.86L267.967 104.018C267.434 104.168 266.922 104.367 266.44 104.61L263.32 103.08C262.625 103.596 261.998 104.185 261.448 104.838L263.077 107.77C262.817 108.222 262.606 108.703 262.446 109.204L259.085 110.196C259.033 110.604 259 111.017 259 111.438C259 111.858 259.033 112.271 259.084 112.678L262.445 113.67C262.605 114.171 262.817 114.652 263.075 115.104L261.447 118.036C261.997 118.689 262.624 119.278 263.319 119.794L266.439 118.264C266.921 118.508 267.433 118.706 267.966 118.856L269.022 122.014C269.457 122.063 269.896 122.094 270.344 122.094C270.791 122.094 271.231 122.063 271.665 122.015L272.721 118.857C273.254 118.707 273.765 118.508 274.247 118.265L277.368 119.795C278.063 119.279 278.69 118.69 279.239 118.037L277.611 115.105C277.871 114.653 278.081 114.172 278.241 113.671L281.603 112.679C281.654 112.271 281.688 111.858 281.688 111.438C281.688 111.017 281.654 110.604 281.604 110.197L278.242 109.205ZM270.344 115.312C268.066 115.312 266.219 113.577 266.219 111.438C266.219 109.298 268.066 107.562 270.344 107.562C272.622 107.562 274.469 109.298 274.469 111.438C274.469 113.577 272.622 115.312 270.344 115.312Z"/><path fill="#005695" d="M286.575 87.3437C286.416 86.8061 286.192 86.2965 285.905 85.8208L286.931 83.7923C286.465 83.2333 285.93 82.7305 285.335 82.2927L283.176 83.2566C282.67 82.9872 282.127 82.777 281.554 82.6278L280.752 80.5082C280.382 80.4656 280.008 80.4375 279.625 80.4375C279.242 80.4375 278.868 80.4656 278.498 80.5082L277.696 82.6278C277.123 82.777 276.581 82.9872 276.074 83.2566L273.915 82.2927C273.32 82.7305 272.785 83.2333 272.319 83.7923L273.345 85.8208C273.058 86.2955 272.834 86.8061 272.675 87.3427L270.419 88.0964C270.374 88.4452 270.344 88.7968 270.344 89.1562C270.344 89.5157 270.374 89.8673 270.419 90.2151L272.675 90.9688C272.834 91.5064 273.058 92.016 273.345 92.4907L272.319 94.5192C272.785 95.0782 273.32 95.581 273.915 96.0189L276.074 95.055C276.58 95.3243 277.123 95.5345 277.696 95.6837L278.498 97.8033C278.868 97.8469 279.242 97.875 279.625 97.875C280.008 97.875 280.382 97.8469 280.752 97.8043L281.554 95.6847C282.127 95.5355 282.669 95.3253 283.176 95.0559L285.335 96.0198C285.93 95.582 286.465 95.0792 286.931 94.5202L285.905 92.4917C286.192 92.017 286.416 91.5064 286.575 90.9688L288.831 90.2151C288.876 89.8673 288.906 89.5157 288.906 89.1562C288.906 88.7968 288.876 88.4452 288.831 88.0974L286.575 87.3437ZM279.625 92.0625C277.916 92.0625 276.531 90.7615 276.531 89.1562C276.531 87.551 277.916 86.25 279.625 86.25C281.334 86.25 282.719 87.551 282.719 89.1562C282.719 90.7615 281.334 92.0625 279.625 92.0625Z"/><path fill="#005695" d="M289.108 120.137L282.94 121.295L281.707 115.502L283.729 115.122L284.285 117.729C285.285 115.776 285.813 113.624 285.813 111.437C285.813 108.097 284.639 104.956 282.42 102.355L284.029 101.143C286.51 104.051 287.875 107.706 287.875 111.437C287.875 113.975 287.251 116.476 286.064 118.733L288.704 118.237L289.108 120.137Z"/><path fill="#005695" d="M250.448 112.123L248.99 110.753L250.391 109.436C249.824 109.47 249.256 109.5 248.688 109.5C240.71 109.5 233.2 106.196 228.085 100.434L229.669 99.1927C234.391 104.512 241.322 107.563 248.688 107.563C249.212 107.563 249.736 107.535 250.26 107.504L248.99 106.31L250.448 104.94L254.271 108.531L250.448 112.123Z"/></svg>