<svg xmlns="http://www.w3.org/2000/svg" width="525" height="245" fill="none" viewBox="0 0 525 245"><path fill="#040404" d="M491.139 190.173L489.256 160.72L489.217 160.657L487.315 161.319L478.564 186.834L464.65 176.966L486.819 160.898L486.84 160.835L486.966 160.79L488.395 159.752L465.158 146.722L459.463 152.98L460.365 158.846L487.081 159.321V159.923L459.86 159.436L458.837 152.784L466.626 144.225L478.275 130.636L478.482 131.198L480.949 128.491L490.137 130.136V129.772L490.739 129.79V130.245L504.385 132.688L491.65 158.154L489.794 159.499V159.649V159.818L519.22 149.565L515.727 177.005L490.757 161.099L489.878 160.606L504.602 184.34L491.139 190.173ZM489.936 161.791L491.696 189.283L503.744 184.054L489.936 161.791ZM465.696 176.966L478.269 185.88L486.494 161.891L465.696 176.966ZM490.462 160.221L491.091 160.573L515.264 175.976L518.513 150.443L490.462 160.221ZM488.326 158.055L489.081 159.273L489.214 159.177L490.116 130.738L481.169 129.132L478.714 131.839L488.326 158.055ZM465.645 146.307L488.161 158.942L487.77 158.302L478.269 132.348L467.077 144.646L465.645 146.307ZM490.727 130.846L489.824 158.732L491.184 157.745L503.492 133.13L490.727 130.846Z"/><path fill="#040404" d="M362.921 190.053L361.035 160.588L360.996 160.525L359.095 161.187L350.346 186.713L336.432 176.849L358.595 160.78L358.616 160.717L358.743 160.672L360.172 159.634L336.934 146.605L331.242 152.862L332.145 158.729L358.866 159.216V159.818L331.645 159.33L330.616 152.67L338.408 144.108L350.066 130.509L350.274 131.072L352.741 128.364L361.904 130.007V129.643L362.506 129.661V130.115L376.152 132.558L363.43 158.013L361.573 159.357V159.508V159.676L390.996 149.423L387.503 176.864L362.533 160.958L361.655 160.465L376.378 184.195L362.921 190.053ZM361.718 161.671L363.478 189.162L375.527 183.934L361.718 161.671ZM337.476 176.843L350.048 185.757L358.273 161.767L337.476 176.843ZM362.241 160.097L362.87 160.449L387.043 175.853L390.292 150.32L362.241 160.097ZM360.105 157.931L360.86 159.15L360.993 159.054L361.895 130.615L352.948 129.014L350.493 131.722L360.105 157.931ZM337.416 146.18L359.931 158.816L359.54 158.175L350.039 132.221L338.851 144.517L337.416 146.18ZM362.506 130.72L361.604 158.614L362.963 157.628L375.271 133.012L362.506 130.72Z"/><path fill="#1C1463" d="M402.564 141.109L389.716 128.43L385.701 132.499L398.549 145.178L402.564 141.109Z"/><path fill="#000" d="M402.564 141.109L389.716 128.43L385.701 132.499L398.549 145.178L402.564 141.109Z" opacity=".1"/><path fill="#000" d="M403.205 127.137C402.672 127.543 402.407 127.778 402.407 127.778C402.407 127.778 392.78 131.087 392.78 122.362C392.78 122.362 393.247 122.116 393.984 121.704C394.728 122.916 395.771 123.918 397.013 124.612C398.255 125.307 399.655 125.672 401.078 125.672H402.097L403.205 127.137Z" opacity=".1"/><path fill="#040404" d="M489.607 124.354C486.414 124.35 483.236 124.78 480.158 125.63C478.57 126.067 477.016 126.617 475.507 127.275C467.465 130.761 461.002 137.106 457.368 145.082C453.734 153.058 453.187 162.098 455.833 170.454C458.479 178.809 464.13 185.887 471.693 190.317C479.255 194.747 488.193 196.215 496.775 194.437C505.357 192.658 512.975 187.76 518.155 180.689C523.335 173.619 525.708 164.879 524.816 156.159C523.924 147.44 519.83 139.362 513.325 133.487C506.821 127.612 498.369 124.358 489.604 124.354H489.607ZM489.487 186.355C483.386 186.353 477.469 184.263 472.719 180.434C467.969 176.604 464.672 171.265 463.375 165.303C462.079 159.341 462.86 153.115 465.591 147.658C468.322 142.202 472.836 137.844 478.386 135.308C479.797 134.662 481.263 134.141 482.766 133.752C486.44 132.799 490.275 132.639 494.016 133.282C497.757 133.926 501.317 135.359 504.461 137.486C507.605 139.613 510.26 142.386 512.249 145.619C514.238 148.851 515.515 152.471 515.996 156.236C516.478 160.001 516.152 163.826 515.04 167.455C513.928 171.084 512.056 174.435 509.548 177.284C507.041 180.134 503.955 182.417 500.496 183.981C497.038 185.545 493.286 186.354 489.49 186.355H489.487Z"/><path fill="#040404" d="M433.021 84.143C433.021 84.143 468.416 82.9396 469.138 87.5155C469.86 92.0913 433.743 90.1629 433.743 90.1629C433.743 90.1629 430.855 87.2718 433.021 84.143Z"/><path fill="#000" d="M433.021 84.143C433.021 84.143 468.416 82.9396 469.138 87.5155C469.86 92.0913 433.743 90.1629 433.743 90.1629C433.743 90.1629 430.855 87.2718 433.021 84.143Z" opacity=".05"/><path fill="#FBFB04" d="M404.369 102.444H398.108V156.861H404.369V102.444Z"/><path fill="#000" d="M404.369 102.44V106.631C402.287 106.902 400.157 107.073 398.108 107.14V102.44H404.369Z" opacity=".1"/><path fill="#040404" d="M403.9 97.9313C403.021 97.8634 402.147 97.7458 401.282 97.5793C397.889 96.9295 389.333 95.5666 387.031 97.8801C384.143 100.768 385.106 105.825 392.81 106.548C400.515 107.27 413.758 105.344 416.409 102.453C416.409 102.441 411.616 98.524 403.9 97.9313Z"/><path fill="#1C1463" d="M402.684 117.372L468.419 96.9053L470.585 101.962L403.165 125.076L402.684 117.372Z"/><path fill="#FB0404" d="M422.188 149.637L469.622 102.925L472.27 106.776L427.002 153.969L422.188 149.637Z"/><path fill="#000" d="M482.763 133.752C481.26 134.141 479.794 134.662 478.383 135.308L475.507 127.272C477.016 126.614 478.571 126.064 480.158 125.626L482.763 133.752Z" opacity=".1"/><path fill="#1C1463" d="M490.811 157.342L487.441 159.267L463.933 93.5833L462.88 90.644L468.419 87.5122L469.806 91.8384L490.811 157.342Z"/><path fill="#000" d="M469.806 91.8384L463.933 93.5833L462.88 90.644L468.419 87.5122L469.806 91.8384Z" opacity=".1"/><path fill="#040404" d="M433.984 96.9047L466.972 85.5869C466.972 85.5869 472.751 86.3089 470.582 91.1255L437.357 100.996C437.357 100.996 432.302 101.478 433.984 96.9047Z"/><path fill="#040404" d="M395.921 151.833C394.715 146.472 392.272 141.467 388.788 137.218C387.495 135.639 386.069 134.173 384.525 132.838C378.591 127.714 371.123 124.706 363.293 124.285C355.464 123.864 347.717 126.055 341.268 130.513C334.818 134.972 330.032 141.446 327.659 148.918C325.287 156.391 325.463 164.44 328.16 171.803C330.856 179.165 335.921 185.423 342.559 189.595C349.197 193.767 357.033 195.618 364.836 194.855C372.64 194.093 379.969 190.761 385.674 185.383C391.379 180.005 395.137 172.884 396.357 165.139C396.641 163.316 396.784 161.473 396.785 159.628C396.787 157.006 396.497 154.391 395.921 151.833ZM361.267 186.235C355.782 186.229 350.431 184.534 345.944 181.38C341.456 178.227 338.048 173.767 336.184 168.609C334.32 163.45 334.09 157.843 335.525 152.549C336.96 147.255 339.991 142.531 344.205 139.02C348.419 135.51 353.613 133.382 359.079 132.927C364.545 132.471 370.019 133.711 374.756 136.476C379.493 139.241 383.263 143.399 385.554 148.382C387.845 153.366 388.546 158.934 387.561 164.33C386.432 170.48 383.183 176.04 378.379 180.043C373.575 184.045 367.52 186.236 361.267 186.235V186.235Z"/><path fill="#000" d="M396.785 159.628C396.784 161.474 396.641 163.316 396.357 165.14C393.469 164.932 390.485 164.631 387.561 164.33C388.21 160.753 388.129 157.081 387.323 153.536C390.172 152.934 393.081 152.36 395.921 151.839C396.497 154.396 396.786 157.008 396.785 159.628V159.628Z" opacity=".1"/><path fill="#000" d="M404.369 150.458V156.857H398.108V151.442C400.274 151.066 402.38 150.732 404.369 150.458Z" opacity=".1"/><path fill="#FB0404" d="M363.917 159.517C363.917 159.517 414.483 146.28 418.575 151.331C422.666 156.382 427.001 163.127 414.252 165.534C401.502 167.941 362.963 161.439 362.963 161.439L363.917 159.517Z"/><path fill="#000" d="M388.788 137.218L382.362 143.1C381.224 141.639 379.938 140.3 378.523 139.105L384.522 132.838C386.067 134.173 387.494 135.639 388.788 137.218V137.218Z" opacity=".1"/><path fill="#FBFB04" d="M362.232 156.86L400.034 117.371L401.24 126.52L364.158 160.47L362.232 156.86Z"/><path fill="#000" d="M361.751 163.362C363.879 163.362 365.605 161.637 365.605 159.508C365.605 157.38 363.879 155.654 361.751 155.654C359.623 155.654 357.897 157.38 357.897 159.508C357.897 161.637 359.623 163.362 361.751 163.362Z" opacity=".1"/><path fill="#040404" d="M361.267 163.362C363.395 163.362 365.121 161.637 365.121 159.508C365.121 157.38 363.395 155.654 361.267 155.654C359.138 155.654 357.413 157.38 357.413 159.508C357.413 161.637 359.138 163.362 361.267 163.362Z"/><path fill="#000" d="M489.247 163.001C491.375 163.001 493.1 161.275 493.1 159.147C493.1 157.018 491.375 155.293 489.247 155.293C487.118 155.293 485.393 157.018 485.393 159.147C485.393 161.275 487.118 163.001 489.247 163.001Z" opacity=".1"/><path fill="#040404" d="M489.487 163.482C491.616 163.482 493.341 161.757 493.341 159.628C493.341 157.5 491.616 155.774 489.487 155.774C487.359 155.774 485.634 157.5 485.634 159.628C485.634 161.757 487.359 163.482 489.487 163.482Z"/><path fill="#000" d="M420.982 163.361C425.237 163.361 428.686 159.912 428.686 155.657C428.686 151.402 425.237 147.952 420.982 147.952C416.726 147.952 413.277 151.402 413.277 155.657C413.277 159.912 416.726 163.361 420.982 163.361Z" opacity=".1"/><path fill="#040404" d="M421.466 163.361C425.721 163.361 429.171 159.912 429.171 155.657C429.171 151.402 425.721 147.952 421.466 147.952C417.211 147.952 413.761 151.402 413.761 155.657C413.761 159.912 417.211 163.361 421.466 163.361Z"/><path fill="#1C1463" d="M419.409 155.078L419.406 155.08C418.502 155.757 418.317 157.039 418.993 157.943L425.108 166.121C425.785 167.025 427.067 167.21 427.972 166.534L427.974 166.532C428.879 165.855 429.064 164.573 428.387 163.668L422.272 155.491C421.596 154.587 420.314 154.402 419.409 155.078Z"/><path fill="#1C1463" d="M431.439 164.03H413.388V169.746H431.439V164.03Z"/><path fill="#000" d="M431.439 164.03H413.388V169.746H431.439V164.03Z" opacity=".1"/><path fill="#FB0404" fill-rule="evenodd" d="M91.1669 72.84C87.4239 74.258 83.1329 76.666 80.2499 78.968C78.5329 80.338 76.8269 81.866 76.6559 82.187C76.4979 82.482 77.8579 84.11 80.9779 87.362C81.7459 88.162 82.4809 88.97 82.6129 89.158C82.9429 89.629 82.9849 89.615 84.2749 88.607C86.0879 87.188 88.2249 85.857 90.5299 84.71C92.1249 83.917 92.6859 83.556 92.7489 83.282C92.8219 82.965 93.3329 73.572 93.3329 72.546C93.3329 72.047 93.2189 72.062 91.1669 72.84ZM175.333 89.495V97.823L192.042 97.871L208.75 97.919L209.737 98.293C214.445 100.082 215.994 103.331 215.994 111.417C215.994 117.358 215.612 119.173 213.875 121.477C213.623 121.811 213.337 122.234 213.239 122.417C212.948 122.963 211.06 124.135 209.89 124.496C208.909 124.799 208.344 124.833 204.334 124.833C181.793 124.833 171.557 146.425 188.667 157.88C190.268 158.952 192.696 161.113 203.414 170.999L216.245 182.833H217.025C217.454 182.833 217.831 182.908 217.861 183C217.898 183.111 231.715 183.153 259.143 183.125L300.369 183.083L293.008 174.375L285.648 165.667H252.77H219.892L207.821 154.54L195.75 143.413L195.702 141.853C195.657 140.411 195.676 140.302 195.952 140.411C199.286 141.736 205.925 141.99 210.655 140.973C229.553 136.912 239.735 115.486 231.139 97.87C228.355 92.165 223.647 87.291 218.155 84.428C216.236 83.428 213.398 82.273 213.184 82.406C213.111 82.451 212.533 82.343 211.9 82.164C208.402 81.177 208.176 81.167 191.067 81.167H175.333V89.495ZM74.9089 83.917C71.7369 87.264 67.0169 94.784 67.6919 95.416C68.0189 95.722 74.3129 99 74.5739 99C74.6949 99 75.1219 98.494 75.5219 97.876C76.6159 96.186 78.6229 93.764 80.3199 92.087C81.1519 91.264 81.8329 90.487 81.8329 90.36C81.8329 90.146 79.7119 87.718 76.7849 84.583L75.5409 83.25L74.9089 83.917Z" clip-rule="evenodd"/><path fill="#FBFBFB" fill-rule="evenodd" d="M105.167 39.3442C70.249 40.7582 41.092 67.3722 36.435 102.083C31.15 141.471 58.566 177.81 97.917 183.575C102.604 184.262 104.597 184.314 127.5 184.347L149.583 184.378L151.408 184.01C179.31 178.382 186.464 141.164 162.654 125.499C159.398 123.356 152.91 120.671 152.519 121.303C152.447 121.42 146.964 121.493 135.649 121.53L118.886 121.583L118.318 120.877C116.457 118.562 116.167 117.286 116.167 111.417C116.167 104.417 117.159 101.906 120.583 100.238L121.583 99.7512L143.375 99.6462C155.36 99.5882 174.975 99.5882 186.962 99.6452L208.758 99.7502L209.864 100.295C213.3 101.987 214.162 104.2 214.165 111.34C214.167 117.641 213.939 118.611 211.883 121.057C210.346 122.887 210.249 122.91 204.099 122.949C201.231 122.967 198.904 123.049 198.849 123.133C198.794 123.217 198.338 123.38 197.833 123.496C176.877 128.309 171.467 148.781 188.25 159.757C189.162 160.353 193.658 164.388 202.474 172.523L215.365 184.417L258.021 184.394L300.677 184.371L301.338 183.933C302.144 183.4 303.048 182.077 303.516 180.744C304.368 178.32 304.333 180.118 304.333 138.402V99.5002H316.992C330.31 99.5002 330.595 99.4862 332.312 98.7282C333.136 98.3652 333.428 98.3332 335.958 98.3332C356.757 98.3332 370.68 78.0162 363.332 58.3872C360.314 50.3242 352.939 43.5132 344.507 41.0022C341.209 40.0202 340.599 39.9612 332.958 39.8802L325.833 39.8062V43.1532V46.5002H322.583H319.333V49.5832V52.6672H316.167H313V49.6672V46.6672H309.833H306.667V49.6672V52.6672H303.417H300.167V49.5832V46.5002H297.083H294V43.1672V39.8332H203.917C113.944 39.8332 113.833 39.8332 113.833 39.5002C113.833 39.1232 111.626 39.0832 105.167 39.3442ZM300.333 42.8332V45.8332H303.5H306.667V42.8332V39.8332H303.5H300.333V42.8332ZM313 42.7502V45.6672H316.167H319.333V42.7502V39.8332H316.167H313V42.7502ZM120.802 43.6122C121.022 45.1582 119.824 45.8822 116.989 45.9162C114.366 45.9482 114 46.0922 114 47.0892C114 47.8842 114.213 47.9622 116.583 48.0262C119.051 48.0942 119.554 48.2792 120.151 49.3412C120.951 50.7652 120.4 53.4242 119.099 54.4162C117.823 55.3892 116.527 55.5282 110.458 55.3422C109.818 55.3232 110.258 53.8452 111.102 53.1812C111.51 52.8612 111.759 52.8332 114.28 52.8332C117.355 52.8332 117.833 52.6562 117.833 51.5172C117.833 50.8272 117.72 50.7902 115.233 50.6602C112.738 50.5302 112.082 50.2772 111.6 49.2612C110.577 47.1052 111.76 44.2522 114.009 43.4532C115.29 42.9972 120.732 43.1252 120.802 43.6122ZM130.672 43.5422C132.394 44.4122 132.441 44.8962 131.401 51.0042C130.591 55.7622 130.62 55.7102 128.977 55.3822L128.25 55.2372V53.7952C128.25 51.9622 128.207 51.9182 126.399 51.9122C124.77 51.9072 124.636 51.8082 124.858 50.7752C125.111 49.6032 125.755 49.1672 127.234 49.1672C128.827 49.1672 129.109 48.9502 129.355 47.5392C129.615 46.0442 129.555 46.0002 127.255 46.0002C125.631 46.0002 125.347 46.0422 125.099 46.3162C124.827 46.6162 123.884 51.1102 123.579 53.5572C123.412 54.9002 122.955 55.4172 121.937 55.4172C120.56 55.4172 120.556 55.3952 121.248 51.4002C122.39 44.8042 122.66 44.2262 124.98 43.3972C126.087 43.0012 129.789 43.0962 130.672 43.5422ZM143.135 43.6122C143.356 45.1632 142.143 45.8962 139.313 45.9232C136.69 45.9472 136.333 46.0882 136.333 47.1032C136.333 47.8802 136.67 48.0002 138.853 48.0002C142.009 48.0002 142.946 48.7942 142.798 51.3442C142.611 54.5882 140.865 55.5832 135.667 55.4112C134.337 55.3672 133.081 55.3312 132.875 55.3322C132.151 55.3352 132.525 53.8982 133.436 53.1812C133.844 52.8612 134.092 52.8332 136.613 52.8332C139.691 52.8332 140.167 52.6572 140.167 51.5132C140.167 50.8072 139.79 50.6672 137.886 50.6662C136.986 50.6652 135.967 50.5862 135.62 50.4902C132.518 49.6282 133.049 44.6342 136.366 43.4812C137.787 42.9872 143.06 43.0892 143.135 43.6122ZM154.002 43.4192C154.717 44.2812 153.837 45.7722 152.525 45.9202C150.258 46.1762 150.38 45.9702 149.503 51.0072C148.775 55.1862 148.629 55.5002 147.407 55.5002C146.504 55.5002 146.174 55.0552 146.341 54.0612C146.416 53.6152 146.638 52.2522 146.833 51.0312C147.144 49.0932 147.634 46.8802 147.916 46.1452C147.99 45.9522 147.718 45.9042 146.429 45.8862C145.561 45.8742 144.764 45.8102 144.657 45.7442C144.335 45.5452 144.544 43.6692 144.919 43.3942C145.402 43.0412 153.707 43.0642 154.002 43.4192ZM162.85 43.3562C165.197 44.1432 165.369 48.5212 163.138 50.6952C162.152 51.6552 162.145 52.2452 163.097 54.0262C163.609 54.9842 163.256 55.5002 162.086 55.5002C160.89 55.5002 160.236 54.8562 159.677 53.1282C159.411 52.3062 158.791 51.8332 157.978 51.8332C157.23 51.8332 157.118 51.4202 157.595 50.4152C158.036 49.4852 158.4 49.2752 159.801 49.1422C161.441 48.9852 162 48.4872 162 47.1842C162 46.0932 161.804 45.9692 159.918 45.8712C157.387 45.7382 157.469 45.6122 156.52 51.1602C155.803 55.3512 155.768 55.4232 154.505 55.4052C153.501 55.3902 153.103 55.1062 153.255 54.5122C153.315 54.2762 153.77 51.7642 154.265 48.9302C154.888 45.3692 155.251 43.6832 155.442 43.4722C155.776 43.1032 161.814 43.0092 162.85 43.3562ZM174.415 43.3532C176.015 43.7972 176.468 44.9292 176.083 47.5202C174.955 55.1082 174.775 55.6132 173.259 55.4092C172.18 55.2642 172.243 55.3792 172.305 53.6712C172.369 51.9122 172.385 51.9292 170.583 51.9152C168.943 51.9022 168.769 51.8122 168.912 51.0492C169.184 49.6012 169.738 49.1672 171.314 49.1672C173.075 49.1672 173.497 48.7282 173.499 46.8932C173.5 46.0292 173.427 45.9992 171.278 46.0032C168.804 46.0062 169.036 45.5422 167.76 53.0642C167.391 55.2412 166.673 55.9192 165.389 55.3062C164.735 54.9942 164.738 54.9262 165.561 50.3082C166.51 44.9842 166.976 44.0512 169 43.4232C169.919 43.1382 173.474 43.0922 174.415 43.3532ZM191.667 43.5872C193.53 44.6642 193.377 48.5202 191.387 50.6702C190.333 51.8082 190.346 51.6882 191.102 53.4492C191.817 55.1142 191.691 55.5012 190.433 55.4992C189.125 55.4982 188.7 55.0512 187.695 52.6222C187.489 52.1232 186.927 51.8332 186.166 51.8332C185.511 51.8332 185.417 51.5982 185.736 50.7622C186.18 49.6012 186.647 49.2842 188.115 49.1432C189.802 48.9822 190.691 47.7962 190.164 46.4102C189.961 45.8762 186.235 45.7092 185.733 46.2112C185.642 46.3032 185.295 48.0912 184.662 51.7322C184.15 54.6862 183.93 55.2612 183.247 55.4322C182.667 55.5782 181.668 55.3642 181.555 55.0702C181.371 54.5902 183.378 43.7882 183.715 43.4522C184.195 42.9722 190.796 43.0842 191.667 43.5872ZM203.005 43.5422C204.73 44.4132 204.818 45.3032 203.758 51.1672C203.002 55.3562 203.06 55.1522 202.564 55.3412C201.033 55.9232 200.263 55.1082 200.683 53.3522C200.98 52.1072 200.629 51.8042 198.928 51.8362C197.295 51.8662 197.346 51.8782 197.147 51.4402C196.739 50.5462 198.074 49.1672 199.349 49.1662C201.136 49.1632 201.833 48.5902 201.833 47.1252C201.833 46.0672 201.698 46.0002 199.562 46.0002C197.566 46.0002 197.258 46.1102 197.087 46.8872C196.92 47.6422 196.332 50.9822 196.083 52.5832C195.682 55.1652 195.237 55.7252 193.831 55.4162C192.989 55.2312 192.983 55.0292 193.689 50.9992C194.657 45.4702 194.866 44.8572 196.068 44.0342C197.406 43.1172 201.579 42.8212 203.005 43.5422ZM214.57 43.2682C214.926 43.4042 214.901 43.8802 214.498 44.6712C213.968 45.7092 213.513 45.9132 211.674 45.9382C209.192 45.9712 209.194 45.9712 208.925 46.3812C208.687 46.7432 207.833 51.1952 207.833 52.0712C207.833 52.7142 208.287 52.8332 210.719 52.8332C213.305 52.8332 213.39 52.8752 213.228 54.0582C213.051 55.3502 213.088 55.3342 210.083 55.3692C205.24 55.4252 204.628 54.7262 205.419 50.0492C206.262 45.0672 206.784 44.0632 208.87 43.4122C209.6 43.1842 214.057 43.0712 214.57 43.2682ZM218.41 43.4342C218.558 43.5812 218.641 43.8252 218.595 43.9762C218.549 44.1272 218.286 45.6002 218.009 47.2502C216.59 55.7142 216.642 55.5522 215.367 55.4182C215.028 55.3822 214.659 55.3482 214.548 55.3432C214.06 55.3202 214.007 54.7152 214.339 52.9772C214.521 52.0272 214.933 49.7122 215.255 47.8332C215.98 43.5962 215.947 43.7442 216.262 43.4282C216.618 43.0722 218.052 43.0762 218.41 43.4342ZM222.548 43.3752C222.701 43.4902 223.396 44.8962 224.092 46.5002C225.525 49.8032 225.739 50.1372 225.879 49.3042C225.931 48.9992 226.131 47.8132 226.324 46.6672C226.797 43.8652 226.795 43.8712 227.171 43.4962C227.784 42.8832 229.5 43.1612 229.5 43.8732C229.5 44.3192 227.636 54.4622 227.481 54.8552C227.334 55.2302 227.185 55.3062 226.446 55.3802C224.999 55.5272 224.909 55.4302 223.502 52.2152C222.218 49.2792 221.912 48.7442 221.765 49.1802C221.655 49.5082 221.21 51.8522 221.001 53.2072C220.7 55.1582 220.152 55.7202 218.861 55.4012C218.005 55.1892 218.008 55.0122 218.995 49.3982C220.057 43.3552 219.982 43.7092 220.276 43.4152C220.583 43.1072 222.153 43.0792 222.548 43.3752ZM239.44 43.6152C239.788 45.0042 238.542 45.8782 236.13 45.9372C235.096 45.9622 234.12 45.9872 233.962 45.9912C233.048 46.0192 231.833 52.2212 232.656 52.6612C233.366 53.0412 236.141 52.8742 236.591 52.4242C237.401 51.6142 237.024 50.6702 235.886 50.6642C235.091 50.6602 234.667 50.0822 234.667 49.0012C234.667 48.1012 234.952 48.0002 237.491 48.0002C240.428 48.0002 240.339 47.9162 239.935 50.3012C239.203 54.6272 238.324 55.3942 234.083 55.4062C229.829 55.4182 229.201 54.6422 229.833 50.1612C230.682 44.1472 231.63 43.1832 236.705 43.1722L239.327 43.1672L239.44 43.6152ZM256.496 43.4122C256.77 43.7422 256.561 45.2282 256.195 45.5532C256.042 45.6892 255.357 45.8862 254.672 45.9912C252.73 46.2882 252.823 46.1082 251.947 51.2612C251.325 54.9152 251.217 55.2432 250.578 55.4032C250.032 55.5402 249.066 55.3642 248.835 55.0862C248.544 54.7352 249.745 47.9822 250.306 46.8132L250.756 45.8752H249.062C247.008 45.8752 247 45.8712 247 44.7402C247 43.1432 246.926 43.1672 251.98 43.1672C255.571 43.1672 256.327 43.2082 256.496 43.4122ZM265.98 43.3922C266.316 43.7982 265.622 45.3342 264.935 45.7022C264.741 45.8062 263.646 45.9122 262.5 45.9392C260.003 45.9972 259.667 46.2022 259.667 47.6692V48.4852L260.354 48.2432C260.814 48.0812 261.724 48.0002 263.098 48.0002C265.491 48.0002 265.572 48.0512 265.319 49.4032C265.081 50.6772 265.107 50.6662 262.355 50.6692C259.604 50.6722 259.179 50.7922 258.937 51.6362C258.657 52.6152 258.957 52.7372 261.88 52.8332L264.417 52.9172L264.466 53.8552C264.545 55.3612 263.567 55.6722 259.593 55.4062C256.295 55.1852 255.78 54.1552 256.592 49.3932C257.279 45.3552 258.038 43.9872 259.913 43.3992C260.883 43.0952 265.729 43.0902 265.98 43.3922ZM276.038 43.5442C277.508 44.1802 277.649 45.5192 276.767 50.4312C276.456 52.1652 276.149 53.9052 276.085 54.2982C275.927 55.2712 275.458 55.5712 274.338 55.4172C273.284 55.2722 273.299 55.3032 273.528 53.6792C273.772 51.9532 273.759 51.9392 271.701 51.8332C269.838 51.7372 269.695 51.5842 270.321 50.3572C270.798 49.4232 271.233 49.1672 272.346 49.1672C274.179 49.1672 274.667 48.7312 274.667 47.0932C274.667 45.9962 274.675 46.0002 272.324 46.0002C269.993 46.0002 270.146 45.7622 269.309 50.7032C268.505 55.4552 268.252 55.8842 266.584 55.3342C265.842 55.0892 265.839 55.2172 266.67 50.5302C267.711 44.6572 268.086 43.9742 270.622 43.3392C271.623 43.0882 275.307 43.2282 276.038 43.5442ZM281.717 43.3752C281.871 43.4902 282.376 44.4422 282.838 45.4912C284.127 48.4132 283.844 48.4032 286.058 45.6032C287.959 43.2002 288.001 43.1672 289.083 43.1672C290.16 43.1672 290.333 43.2802 290.333 43.9822C290.333 44.5202 288.848 53.3042 288.569 54.4162C288.331 55.3642 286.935 55.8282 286.183 55.2082L285.829 54.9172L286.331 52.0832C286.607 50.5252 286.833 49.1962 286.833 49.1302C286.834 48.8242 286.336 49.2642 285.659 50.1682C284.129 52.2122 282.756 52.2232 281.778 50.1982C281.033 48.6572 280.989 48.7132 280.409 51.9632C279.799 55.3812 279.358 55.9522 277.792 55.3512C277.176 55.1142 277.173 55.1472 278.25 49.0912C278.754 46.2552 279.167 43.8802 279.167 43.8132C279.167 43.2292 281.078 42.9012 281.717 43.3752ZM325.833 55.7552V58.6762L333.518 58.6622L341.202 58.6482L342.14 59.1992C349.708 63.6462 349.338 75.2692 341.5 79.3142C338.619 80.8002 334.235 81.1462 331.75 80.0832L330.583 79.5832L294.337 79.5392C258.561 79.4962 258.073 79.5002 256.772 79.8292C254.738 80.3432 253.346 81.2682 252.538 82.6432L252.083 83.4172V89.5002C252.083 96.8302 252.198 97.1912 254.956 98.5672C256.854 99.5152 256.597 99.5002 271.035 99.5002H284.333V131.917V164.333L252.708 164.33L221.083 164.327L218.083 161.552C216.433 160.026 213.771 157.578 212.167 156.111C200.382 145.339 197.452 142.596 197.873 142.73C200.116 143.439 207.14 143.502 210.417 142.842C235.41 137.807 244.643 106.397 226.448 88.3112C222.453 84.3402 215.216 80.3512 211.528 80.0872C210.593 80.0202 209.451 79.8052 209.117 79.6342C208.529 79.3312 122.825 79.4432 121.083 79.7482C102.823 82.9482 91.2 101.263 95.82 119.557C98.376 129.679 105.964 138.076 115.792 141.661C116.365 141.87 116.833 142.106 116.833 142.187C116.833 142.267 117.091 142.333 117.406 142.333C117.721 142.333 118.171 142.406 118.406 142.496C118.684 142.601 118.833 142.601 118.833 142.496C118.833 142.391 124.923 142.333 135.904 142.333H152.974L153.585 143.042C155.384 145.126 155.667 146.398 155.667 152.417C155.667 159.497 154.838 161.686 151.465 163.515L150.417 164.083L129.083 164.203C103.556 164.347 103.699 164.351 98.083 163.246C63.517 156.441 45.322 117.681 62.177 86.7552C71.68 69.3182 88.94 59.3332 109.579 59.3332C113.722 59.3332 113.833 59.3252 113.833 59.0002C113.833 58.6672 113.944 58.6672 203.917 58.6672H294V55.8332V53.0002H297.167H300.333V55.8332V58.6672H303.5H306.667V55.8332V53.0002H309.833H313V55.8332V58.6672H316.167H319.333V55.7502V52.8332H322.583H325.833V55.7552ZM208.77 81.5182C209.881 81.6982 211.298 81.9902 211.919 82.1672C212.54 82.3452 213.109 82.4522 213.183 82.4062C213.665 82.1092 219.086 84.7572 221.492 86.4652C236.548 97.1522 238.557 119.183 225.693 132.542C218.482 140.031 208.046 143.19 198 140.924C197.037 140.707 196.116 140.476 195.952 140.411C195.676 140.302 195.657 140.411 195.702 141.853L195.75 143.413L207.821 154.54L219.892 165.667H252.77C274.508 165.667 285.682 165.723 285.75 165.833C285.807 165.925 285.924 166 286.01 166C286.107 166 286.167 153.103 286.167 131.917V97.8332L272.458 97.8302C257.801 97.8272 257.433 97.8092 255.809 96.9942C253.827 95.9982 253.833 96.0202 253.833 89.5752C253.833 82.7642 253.91 82.5652 256.917 81.6182L258.083 81.2502H293.833H329.583L330.76 81.6202C333.788 82.5732 333.833 82.6892 333.833 89.5002C333.833 98.3752 335.022 97.8262 315.794 97.8302L302.671 97.8332L302.627 137.792L302.583 177.75L302.212 179.054C301.781 180.566 301.102 181.896 300.53 182.346C300.29 182.535 300.168 182.762 300.226 182.914C300.312 183.139 295.875 183.167 259.078 183.167C231.693 183.167 217.833 183.111 217.833 183C217.833 182.908 217.476 182.833 217.039 182.833H216.245L203.414 170.999C192.696 161.113 190.268 158.952 188.667 157.88C171.557 146.425 181.793 124.833 204.334 124.833C208.344 124.833 208.909 124.799 209.89 124.496C211.06 124.135 212.948 122.963 213.239 122.417C213.337 122.234 213.623 121.811 213.875 121.477C215.612 119.173 215.994 117.358 215.994 111.417C215.994 103.331 214.445 100.082 209.737 98.2932L208.75 97.9192L192.042 97.8712C175.341 97.8232 175.333 97.8232 175.333 98.1612C175.333 98.4982 175.278 98.5002 164.667 98.5002C154.111 98.5002 154 98.4972 154 98.1672C154 97.7282 123.686 97.6412 121.645 98.0732C118.971 98.6402 116.877 100.365 115.504 103.132C114.63 104.893 114.477 105.866 114.381 110.277C114.245 116.509 114.616 118.584 116.318 121.093C116.867 121.902 117.167 122.518 117.167 122.838V123.333H135.573H153.98L155.198 123.769C181.439 133.164 182.036 170.524 156.111 180.822C151.487 182.659 150.806 182.716 133.708 182.675C120.408 182.644 119 182.666 119 182.904C119 183.14 117.997 183.167 109 183.167H99V174.417V165.667H109C115.556 165.667 119 165.724 119 165.833C119 166.139 149.39 166.054 150.576 165.745C153.537 164.974 155.78 162.742 156.94 159.415C157.4 158.094 157.404 158.043 157.467 153.124C157.551 146.458 157.157 144.638 155.076 142.083C154.667 141.581 154.333 141.02 154.333 140.836C154.333 140.501 154.265 140.5 136.097 140.5H117.86L116.388 139.983C103.916 135.599 95.598 122.605 96.666 109.175C97.758 95.4402 107.106 84.6802 120.583 81.6432C123.689 80.9432 204.506 80.8292 208.77 81.5182Z" clip-rule="evenodd"/><path fill="#FBFB04" fill-rule="evenodd" d="M138.167 81.171C120.216 81.279 121.384 81.197 116.983 82.662C99.6941 88.416 91.5191 108.806 99.8961 125.281C103.4 132.172 109.411 137.53 116.388 139.983L117.86 140.5H136.097C154.265 140.5 154.333 140.501 154.333 140.836C154.333 141.02 154.667 141.581 155.076 142.083C157.157 144.638 157.551 146.458 157.467 153.124C157.404 158.043 157.4 158.094 156.94 159.415C155.78 162.742 153.537 164.974 150.576 165.745C149.39 166.054 119 166.139 119 165.833C119 165.724 115.556 165.667 109 165.667H99.0001V174.417V183.167H109C117.997 183.167 119 183.14 119 182.904C119 182.666 120.408 182.644 133.708 182.675C150.806 182.716 151.487 182.659 156.111 180.822C182.036 170.524 181.439 133.164 155.198 123.769L153.98 123.333H135.573H117.167V122.838C117.167 122.518 116.867 121.902 116.318 121.093C113.927 117.569 113.459 107.253 115.504 103.132C116.877 100.365 118.971 98.64 121.645 98.073C123.686 97.641 154 97.728 154 98.167C154 98.497 154.111 98.5 164.667 98.5H175.333V89.75V81L164.708 81.038C158.865 81.058 146.921 81.119 138.167 81.171ZM66.6441 97.125C65.4351 100.182 64.3171 104.324 63.9141 107.243C63.7741 108.255 63.6271 109.28 63.5881 109.521C63.4521 110.353 63.7081 110.455 66.7031 110.763C69.9161 111.093 69.8471 111.114 70.1611 109.71C70.5421 108.006 71.6651 104.973 72.7631 102.685C74.0551 99.991 74.0481 100.196 72.8751 99.583C72.3481 99.308 70.9051 98.541 69.6671 97.877C67.1531 96.53 66.9041 96.468 66.6441 97.125ZM63.6251 111.841C62.9381 112.255 63.7841 122.972 64.5691 123.797C64.7771 124.015 68.5431 123.68 68.8021 123.42C68.8611 123.361 68.9171 121.686 68.9251 119.698C68.9361 117.154 69.0251 115.571 69.2241 114.354C69.5811 112.173 69.6591 112.258 67.0401 112.012C65.8721 111.902 64.6921 111.78 64.4171 111.739C64.1421 111.698 63.7851 111.744 63.6251 111.841ZM66.8331 124.95C65.8711 125.085 65.0271 125.249 64.9591 125.314C64.6941 125.566 66.5021 130.865 67.5721 132.978C68.1281 134.076 68.2931 134.132 69.5201 133.646C71.1411 133.005 71.1211 133.083 70.3631 130.311C70.0031 128.994 69.6171 127.354 69.5061 126.667C69.2641 125.173 69.0801 124.66 68.7951 124.685C68.6791 124.695 67.7961 124.814 66.8331 124.95Z" clip-rule="evenodd"/><path fill="#040404" fill-rule="evenodd" d="M294 43.083V46.5H297.083H300.167V49.583V52.667H303.417H306.667V49.667V46.667H309.833H313V49.583V52.5H316.167H319.333V49.5V46.5H322.583H325.833V43.083V39.667H322.583H319.333V42.667V45.667H316.167H313V42.667V39.667L309.792 39.666H306.583L306.632 42.75L306.681 45.833H303.507H300.333V42.75V39.667H297.167H294V43.083ZM114.167 43.423C111.44 44.269 110.271 48.154 112.201 49.956C112.698 50.42 113.942 50.667 115.784 50.667C117.456 50.667 117.833 50.823 117.833 51.513C117.833 52.66 117.362 52.833 114.241 52.833H111.467L110.91 53.39C110.334 53.966 110.059 54.647 110.227 55.083C110.359 55.427 116.915 55.438 117.875 55.096C119.47 54.526 120.361 53.221 120.473 51.289C120.617 48.801 119.591 48 116.258 48C114.212 48 114 47.913 114 47.076C114 46.074 114.4 45.918 117 45.906C119.613 45.894 119.931 45.782 120.498 44.671C120.901 43.88 120.926 43.404 120.57 43.268C120.031 43.061 114.935 43.184 114.167 43.423ZM125.166 43.315C124.087 43.663 122.978 44.554 122.525 45.437C122.09 46.288 120.621 54.603 120.835 55.004C121.134 55.562 122.573 55.564 123.077 55.007C123.239 54.828 123.527 53.638 123.83 51.9C124.956 45.427 124.663 45.907 127.464 45.929C129.49 45.944 129.638 46.069 129.368 47.536C129.107 48.95 128.824 49.167 127.234 49.167C125.647 49.167 125.02 49.627 124.877 50.898C124.764 51.898 124.873 51.973 126.306 51.885C128.086 51.776 128.25 51.933 128.25 53.756V55.247L129 55.357C130.642 55.598 130.608 55.662 131.427 50.833C132.37 45.277 132.3 44.458 130.816 43.583C130.203 43.222 126.063 43.025 125.166 43.315ZM136.5 43.423C133.533 44.344 132.546 48.805 134.993 50.235C135.464 50.51 135.945 50.583 137.659 50.637C139.964 50.711 140.167 50.788 140.167 51.592C140.167 52.67 139.696 52.833 136.583 52.833C133.348 52.833 132.5 53.264 132.5 54.908V55.333L136.042 55.326C141.493 55.315 142.75 54.515 142.75 51.054C142.75 48.639 142.073 48.107 138.898 48.025C136.322 47.958 135.971 47.777 136.344 46.708C136.594 45.99 136.79 45.938 139.365 45.91C141.957 45.881 142.271 45.769 142.831 44.671C143.235 43.88 143.259 43.404 142.903 43.268C142.364 43.061 137.268 43.184 136.5 43.423ZM144.909 43.402C144.651 43.59 144.587 43.844 144.586 44.693L144.583 45.75L146.292 45.797C147.231 45.824 147.999 45.899 147.998 45.964C147.997 46.03 147.841 46.571 147.653 47.167C146.776 49.94 146.15 55.057 146.656 55.327C148.247 56.179 148.77 55.382 149.494 51C150.316 46.027 150.248 46.147 152.36 45.926C153.683 45.788 153.921 45.575 154.079 44.388C154.181 43.629 154.154 43.505 153.858 43.347C153.313 43.055 145.316 43.104 144.909 43.402ZM155.556 43.408C155.331 43.568 155.153 43.931 155.082 44.374C154.808 46.065 153.328 54.282 153.24 54.595C153.08 55.166 153.642 55.413 154.958 55.351C155.561 55.323 155.94 54.797 156.065 53.816C156.647 49.245 157.376 46.334 158.026 45.986C158.564 45.698 161.431 45.859 161.768 46.196C162.853 47.281 161.559 49.164 159.725 49.169C157.787 49.175 156.328 51.605 158.119 51.844C159.027 51.965 159.387 52.308 159.826 53.47C160.023 53.99 160.274 54.533 160.383 54.674C161.475 56.081 164.072 55.514 163.114 54.079C162.178 52.676 162.097 51.469 162.902 50.942C165 49.567 165.283 44.738 163.333 43.592C162.54 43.126 156.162 42.975 155.556 43.408ZM169.117 43.407C166.748 44.252 166.413 45.062 165.082 53.143C164.742 55.203 164.827 55.389 166.101 55.389C166.997 55.389 167.43 55.014 167.575 54.113C168.956 45.534 168.773 45.918 171.473 45.92C173.757 45.921 173.953 46.175 173.306 48.293C173.087 49.008 172.744 49.167 171.419 49.167C169.73 49.167 169.189 49.573 168.912 51.049C168.771 51.801 168.886 51.858 170.584 51.89C172.377 51.924 172.424 51.973 172.364 53.741C172.311 55.313 172.314 55.318 173.482 55.369C174.676 55.421 174.736 55.312 175.31 52.083C176.603 44.801 176.514 43.936 174.404 43.35C173.471 43.091 169.894 43.13 169.117 43.407ZM183.696 43.471C183.509 43.657 183.315 44.253 183.193 45.012C183.083 45.693 182.647 48.194 182.222 50.57L181.451 54.891L181.827 55.195C182.489 55.731 183.624 55.535 184.008 54.818C184.108 54.631 184.407 53.189 184.673 51.614C185.73 45.337 185.397 45.917 187.938 45.917C190.182 45.917 190.428 46.058 190.247 47.25C190.009 48.825 189.591 49.167 187.905 49.167C186.825 49.167 186.161 49.651 185.744 50.742C185.403 51.636 185.505 51.833 186.306 51.833C187.2 51.833 187.545 52.159 188.069 53.493C188.771 55.282 190.27 56.062 191.34 55.194L191.718 54.889L191.38 54.153C190.28 51.754 190.279 51.726 191.235 50.829C193.597 48.616 193.496 44.023 191.07 43.35C189.867 43.016 184.055 43.111 183.696 43.471ZM197.878 43.334C195.159 43.902 194.77 44.657 193.584 51.663C192.96 55.348 192.968 55.389 194.305 55.389C195.401 55.389 195.74 54.922 196.002 53.055C196.481 49.635 197.16 46.418 197.446 46.208C197.83 45.927 201.353 45.92 201.633 46.2C201.876 46.442 201.896 47.647 201.668 48.247C201.459 48.797 200.599 49.167 199.53 49.167C198.525 49.167 197.71 49.664 197.282 50.536C196.767 51.585 197.046 51.833 198.737 51.833C200.76 51.833 200.937 52.007 200.66 53.725C200.415 55.244 200.456 55.314 201.638 55.356C202.935 55.402 202.96 55.353 203.714 51.301C205.035 44.202 204.68 43.283 200.583 43.218C199.483 43.201 198.266 43.253 197.878 43.334ZM209.25 43.329C207.028 43.901 206.372 44.9 205.649 48.814C204.571 54.647 205.017 55.323 209.946 55.33C212.915 55.334 213.167 55.256 213.167 54.335C213.167 54.074 213.208 53.752 213.26 53.618C213.494 53.008 212.904 52.833 210.603 52.833C207.443 52.833 207.569 53.03 208.237 49.167C208.816 45.817 208.719 45.92 211.309 45.907C213.624 45.895 214.112 45.673 214.592 44.416C215.045 43.23 214.911 43.163 212.105 43.184C210.81 43.193 209.525 43.259 209.25 43.329ZM216.198 43.581C216.012 43.818 215.823 44.407 215.756 44.956C215.693 45.484 215.306 47.754 214.897 50C213.967 55.112 213.97 55.216 215.083 55.351C216.626 55.539 216.523 55.787 217.666 49.167C218.133 46.462 218.551 44.127 218.596 43.976C218.846 43.139 216.81 42.803 216.198 43.581ZM220.262 43.429C220.118 43.573 220 43.741 220 43.804C219.999 43.866 219.587 46.227 219.083 49.051C218.069 54.734 218.03 55.124 218.458 55.291C219.735 55.791 220.72 55.127 220.915 53.636C221.054 52.576 221.646 49.348 221.762 49.013C221.896 48.63 222.211 49.203 223.508 52.185C224.958 55.521 224.805 55.333 226.083 55.333C227.392 55.333 227.429 55.288 227.832 53.176C229.255 45.704 229.53 43.809 229.235 43.483C228.718 42.912 227.186 43.113 226.924 43.787C226.815 44.068 225.839 49.404 225.835 49.744C225.829 50.26 225.161 49.029 224.067 46.485C223.38 44.889 222.695 43.49 222.544 43.375C222.143 43.071 220.583 43.108 220.262 43.429ZM233.197 43.484C231.03 44.232 229.772 47.388 229.756 52.111C229.747 54.974 230.222 55.333 234.017 55.333C238.388 55.333 239.143 54.678 239.926 50.206C240.326 47.923 240.41 48 237.483 48C234.789 48 234.55 48.131 234.768 49.49C234.907 50.364 235.203 50.667 235.915 50.667C236.803 50.667 237 50.808 237 51.442C237 52.541 236.466 52.833 234.458 52.833C232.029 52.833 232.081 52.949 232.739 49.018C233.268 45.859 233.178 45.948 235.912 45.895C238.587 45.844 239.967 44.909 239.354 43.563C239.108 43.023 234.696 42.966 233.197 43.484ZM247.409 43.402C247.151 43.59 247.087 43.844 247.086 44.693L247.083 45.75L248.962 45.797L250.841 45.844L250.416 46.57C249.89 47.468 248.54 54.729 248.833 55.083C249.083 55.384 250.094 55.508 250.668 55.308C251.27 55.098 251.306 54.977 252.007 50.833C252.793 46.186 252.765 46.237 254.692 45.981C256.123 45.79 256.404 45.553 256.579 44.39C256.763 43.162 256.78 43.167 251.917 43.167C248.578 43.167 247.665 43.214 247.409 43.402ZM259.814 43.425C257.79 44.054 256.332 47.777 256.334 52.313C256.335 55.023 256.821 55.335 261.036 55.331C264.381 55.328 264.361 55.335 264.465 54.081C264.568 52.84 264.567 52.839 261.72 52.836C259.035 52.833 258.719 52.713 258.902 51.764C259.092 50.779 259.425 50.667 262.153 50.667C265.16 50.667 265.208 50.643 265.232 49.151L265.25 48.083L263.131 48.037C261.523 48.001 260.866 48.051 260.403 48.245C260.067 48.385 259.755 48.5 259.71 48.5C259.469 48.5 259.798 46.438 260.07 46.239C260.458 45.955 262.303 45.764 263.336 45.901C264.836 46.1 266.122 45.023 265.968 43.696L265.917 43.25L263.25 43.218C261.326 43.195 260.369 43.252 259.814 43.425ZM270.724 43.33C268.086 43.892 267.734 44.563 266.562 51.283C265.89 55.133 265.895 55.204 266.847 55.394C268.384 55.702 268.493 55.48 269.399 50.167C270.153 45.741 269.973 45.984 272.498 45.987C274.725 45.989 274.727 45.99 274.637 47.406C274.543 48.888 274.367 49.039 272.605 49.157C270.993 49.264 270.67 49.461 270.236 50.597C269.803 51.73 269.92 51.833 271.63 51.833C273.687 51.833 273.776 51.915 273.54 53.599C273.327 55.115 273.39 55.252 274.359 55.382C275.866 55.584 275.778 55.755 276.662 50.917C277.919 44.037 277.626 43.343 273.417 43.234C272.317 43.205 271.105 43.248 270.724 43.33ZM279.461 43.458C279.185 43.772 277.269 54.209 277.364 54.879C277.411 55.21 277.527 55.255 278.432 55.299C279.781 55.364 279.775 55.375 280.394 51.918C280.974 48.678 281.019 48.623 281.783 50.207C282.845 52.413 283.991 52.246 286.106 49.576C286.884 48.594 286.915 48.875 286.373 51.989C285.816 55.189 285.834 55.298 286.934 55.446C288.311 55.63 288.403 55.426 289.348 50.086C290.603 42.993 290.606 43.167 289.237 43.167C288.107 43.167 287.797 43.406 286.087 45.6C283.893 48.413 284.096 48.421 282.821 45.484C282.367 44.438 281.87 43.49 281.716 43.375C281.282 43.052 279.77 43.108 279.461 43.458ZM319.333 55.75V58.667H316.167H313V55.833V53H309.833H306.667V55.833V58.667H303.5H300.333V55.833V53H297.167H294V55.833V58.667H203.917C115.979 58.667 113.833 58.674 113.833 58.979C113.833 59.276 113.571 59.296 108.542 59.381C101.193 59.507 97.6789 60.057 91.8329 61.999C61.2689 72.153 46.9869 107.002 61.6219 135.714C62.3129 137.069 62.9039 138.151 62.9359 138.12C62.9669 138.088 62.7689 136.98 62.4959 135.656C60.8169 127.532 61.0039 119.547 63.0639 111.468C63.3749 110.248 63.7179 108.575 63.8249 107.75C64.3169 103.972 66.3099 96.96 66.9639 96.709C67.0969 96.658 67.5969 96.808 68.0759 97.043L68.9459 97.47L69.2509 96.953C69.4189 96.668 69.4879 96.411 69.4029 96.38C68.4389 96.033 67.5869 95.367 67.6289 94.994C67.7919 93.54 72.3209 86.648 74.9089 83.917L75.5399 83.25L76.8499 84.666L78.1589 86.083L78.5829 85.659L79.0069 85.235L77.7559 83.851C76.3029 82.243 76.2949 82.356 77.9449 80.903C82.4049 76.972 88.8899 73.214 92.8989 72.236L93.3819 72.118L93.2609 74.082C93.1469 75.925 93.1579 76.039 93.4369 75.932C100.83 73.095 105.713 71.989 112.042 71.72C114.481 71.616 114.5 71.618 114.5 71.974V72.334L230.875 72.292L347.25 72.25L347.464 71.25C348.405 66.853 346.047 61.526 342.13 59.199L341.202 58.648L333.518 58.662L325.833 58.676V55.755V52.833H322.583H319.333V55.75ZM363.5 58.724C363.5 58.755 363.653 59.224 363.84 59.766C370.348 78.634 356.579 97.727 335.956 98.431C333.187 98.525 332.82 98.574 331.833 98.976L330.75 99.417L317.629 99.463L304.508 99.51L304.456 138.546C304.406 175.39 304.387 177.653 304.105 178.824C303.475 181.441 302.325 183.484 301.137 184.099C300.652 184.349 297.116 184.374 257.977 184.394L215.344 184.417L202.464 172.531C193.212 163.993 189.184 160.383 188.167 159.717C187.387 159.208 186.153 158.297 185.423 157.695L184.097 156.599L184.657 157.591C185.465 159.024 185.437 158.956 185.833 160.5C186.984 164.993 190.643 169.559 195.261 172.265C195.653 172.495 201.801 178.061 208.923 184.633L221.873 196.583L264.927 196.56L307.982 196.536L308.472 196.186C309.062 195.766 309.892 194.512 310.254 193.493C311.029 191.314 311 192.952 311 151.074V111.671L324.208 111.606C337.799 111.54 345.167 111.345 346.917 111.004C366.658 107.16 377.134 86.907 368.515 69.25C368.068 68.333 367.458 66.836 367.159 65.924C366.29 63.268 363.5 57.778 363.5 58.724ZM97.6669 75.281C97.5289 75.329 96.4649 75.744 95.3009 76.203L93.1859 77.037L93.0989 77.893C93.0509 78.365 92.9669 79.725 92.9129 80.917C92.7839 83.78 92.9489 83.516 90.5489 84.696C88.6009 85.655 84.6639 88.1 84.4119 88.508C84.3509 88.607 84.4329 88.834 84.5939 89.012C84.8759 89.324 84.8719 89.354 84.4879 89.763L84.0879 90.189L83.7739 89.803C83.6019 89.59 83.3359 89.417 83.1829 89.417C83.0299 89.417 82.2959 88.77 81.5519 87.981L80.1979 86.544L79.7749 86.967L79.3529 87.389L80.5929 88.756C82.1279 90.446 82.1409 90.286 80.3199 92.087C78.6229 93.764 76.6159 96.186 75.5219 97.876C74.6899 99.161 74.6109 99.183 73.3949 98.488C72.9029 98.206 72.4999 98.044 72.4999 98.129C72.4999 98.408 73.0659 98.788 74.6669 99.586C75.5369 100.02 76.6249 100.617 77.0829 100.913C77.5419 101.209 78.5539 101.791 79.3329 102.206C84.9079 105.175 84.3429 105.037 85.2379 103.648C86.3359 101.943 88.3529 99.5 90.0519 97.817C92.0029 95.884 91.9999 96.227 90.0829 94.141C88.3149 92.216 88.3459 92.275 88.9039 91.909C89.3099 91.643 90.6779 92.82 92.1759 94.724C92.6169 95.285 92.8549 95.28 93.5359 94.7C95.0819 93.38 97.7839 91.685 100.534 90.31C102.347 89.403 102.491 89.296 102.568 88.792C102.793 87.321 103.094 77.833 102.916 77.833C102.748 77.833 99.0699 79.214 98.6039 79.452L98.1239 79.697L98.1869 77.489C98.2499 75.28 98.2059 75.094 97.6669 75.281ZM138.833 99.667L121.75 99.75L120.614 100.288C117.164 101.922 116.172 104.406 116.172 111.417C116.172 117.162 116.461 118.489 118.183 120.668L118.841 121.5H120.171H121.5L121.503 120.708C121.515 117.317 123.564 113.886 126.413 112.487L127.576 111.917L146.413 111.813C156.773 111.755 176.256 111.749 189.708 111.798L214.167 111.888V109.099C214.167 102.728 211.735 99.815 206.333 99.715C201.244 99.62 155.137 99.587 138.833 99.667ZM257.668 100.208C257.67 101.781 258.619 103.261 259.99 103.829L260.5 104.04V106.109C260.5 108.982 261.025 109.923 263.179 110.907C264.75 111.624 265.417 111.667 275.106 111.667H284.333V105.583V99.5H271H257.667L257.668 100.208ZM72.7679 102.703C71.6929 104.927 70.5609 107.96 70.1679 109.667C69.9059 110.801 69.7539 111 69.1459 111C68.5059 111 68.4249 111.98 69.0419 112.254C69.3399 112.386 69.4099 112.541 69.3839 113.012L69.3509 113.603L71.3489 113.781C73.6429 113.985 73.4859 113.918 73.3749 114.644L73.2899 115.204L72.5199 115.107C72.0969 115.054 71.1799 114.961 70.4829 114.901L69.2169 114.792L69.0859 115.354C68.8499 116.37 68.8509 124.009 69.0879 124.75C69.2039 125.117 69.3489 125.773 69.4099 126.208C69.5379 127.126 69.3839 127.092 71.9579 126.771C73.4929 126.579 73.6669 126.584 73.6689 126.82C73.6699 126.965 73.7129 127.239 73.7639 127.43C73.8519 127.758 73.7539 127.788 71.9259 127.992C70.8639 128.11 69.9589 128.265 69.9149 128.336C69.8209 128.488 70.6129 131.258 71.2229 132.911C71.4579 133.549 71.6359 134.081 71.6169 134.094C71.5989 134.107 71.0389 134.328 70.3729 134.586C68.5079 135.308 68.5359 135.46 71.2809 139.403C72.3949 141.005 73.3789 141.193 74.2369 139.968C74.4309 139.691 74.4959 139.74 74.9869 140.53C75.2819 141.005 75.4099 141.3 75.2709 141.184C74.9419 140.911 73.4999 141.707 73.4999 142.162C73.4999 142.528 77.1019 146.333 77.4489 146.333C77.5859 146.333 77.9159 146.179 78.1819 145.989L78.6639 145.646L79.0639 146.11L79.4639 146.575L78.9819 146.869C78.7169 147.03 78.4999 147.232 78.4999 147.318C78.4999 147.721 83.7049 151.423 85.6669 152.415C85.9869 152.577 86.8499 153.106 87.5829 153.589C88.3169 154.072 89.7039 154.898 90.6669 155.424C91.6289 155.951 93.0169 156.738 93.7499 157.173C96.9029 159.043 99.3489 159.979 96.5889 158.259C94.8479 157.174 92.5579 155.376 90.8219 153.731C89.1959 152.189 89.2159 152.199 88.6369 152.654C88.2319 152.973 88.2269 152.973 87.6919 152.553L87.1529 152.132L87.6929 151.843C88.4129 151.456 88.4359 151.297 87.8679 150.641C87.6019 150.334 86.8069 149.314 86.0999 148.374C84.9059 146.786 84.7889 146.678 84.4489 146.856C83.5759 147.312 83.1479 147.71 83.2419 147.977C83.3439 148.266 83.1969 148.106 82.1789 146.81C81.8639 146.41 81.7109 146.177 81.8369 146.292C82.2809 146.694 83.9999 146.109 83.9999 145.555C83.9999 145.126 81.2849 139.816 81.1019 139.889C79.3859 140.573 78.6719 140.928 78.6319 141.119C78.6049 141.247 78.3289 140.879 78.0179 140.301C77.7069 139.723 77.5529 139.344 77.6759 139.458C78.0209 139.779 78.4899 139.71 79.6249 139.174C80.8529 138.593 80.8589 138.565 80.2369 136.525C79.7729 135.003 79.0029 131.485 79.0009 130.875C78.9999 130.424 78.2849 130.387 76.0419 130.725C74.8229 130.909 74.6659 130.903 74.6639 130.674C74.6629 130.533 74.6189 130.258 74.5669 130.063C74.4769 129.726 74.5619 129.7 76.3929 129.495C78.9459 129.211 78.7229 129.562 78.6889 125.891C78.6729 124.163 78.7349 122.15 78.8279 121.417C79.3259 117.475 79.6479 117.96 76.3269 117.654L74.2379 117.462L74.3059 116.88L74.3739 116.297L75.9789 116.436C78.9349 116.693 79.5559 116.648 79.6889 116.167C80.4089 113.578 81.5609 110.446 82.5069 108.51C83.8619 105.734 83.9019 105.963 81.8849 104.917C81.0009 104.458 79.7089 103.742 79.0139 103.326C78.3189 102.909 76.8699 102.1 75.7939 101.529L73.8379 100.489L72.7679 102.703ZM235.1 103.417C236.799 111.859 236.082 118.589 232.75 125.467C226.563 138.239 212.504 145.517 199 142.938C198.313 142.807 197.733 142.715 197.712 142.735C197.692 142.754 200.783 145.634 204.581 149.135C212.483 156.417 211.317 155.709 214.667 155.257C235.328 152.469 247.589 129.287 238.251 110.667C237.86 109.888 237.277 108.462 236.955 107.5C236.342 105.669 234.926 102.551 235.1 103.417ZM103.167 133.449C103.167 133.919 104.291 136.753 105.183 138.532C108.732 145.612 114.568 150.897 121.992 153.754C123.791 154.446 121.662 154.375 139.875 154.353L155.667 154.333V150.982C155.667 146.571 155.247 144.989 153.551 143.008L152.974 142.333H135.904C124.923 142.333 118.833 142.391 118.833 142.496C118.833 142.601 118.684 142.601 118.406 142.496C118.171 142.406 117.721 142.333 117.406 142.333C117.091 142.333 116.833 142.271 116.833 142.195C116.833 142.119 116.177 141.809 115.375 141.506C111.306 139.968 107.595 137.584 104.375 134.439C103.71 133.79 103.167 133.344 103.167 133.449ZM76.6559 137.173C76.6619 137.222 76.5149 137.274 76.3289 137.288C76.1429 137.302 75.4629 137.568 74.8169 137.879L73.6439 138.446L73.1339 137.431C72.6859 136.539 72.6679 136.456 72.9889 136.744C73.5399 137.237 75.8129 136.41 75.8469 135.704C75.8579 135.472 76.6199 136.855 76.6559 137.173ZM79.9349 144.167C79.3719 144.3 78.4999 144.825 78.4999 145.03C78.4999 145.258 77.9149 144.749 77.4879 144.149L77.1779 143.715L77.5919 143.794C78.0489 143.882 79.3309 143.143 79.3359 142.789C79.3379 142.676 79.5529 142.921 79.8129 143.333C80.2789 144.071 80.2809 144.085 79.9349 144.167ZM176.075 144.25C176.115 144.433 176.224 144.883 176.318 145.25C180.681 162.263 168.991 180.458 151.417 184.011L149.583 184.381L127.583 184.349C105.958 184.317 103.268 184.259 98.9999 183.732C79.6069 181.34 61.1719 170.408 49.7029 154.5C48.0449 152.199 48.0569 152.208 48.7159 153.75C58.9729 177.722 83.2179 194.786 109.417 196.472C114.576 196.804 155.437 196.557 157.266 196.182C177.258 192.088 188.203 170.397 179.476 152.167C179.016 151.204 178.38 149.629 178.063 148.667C177.545 147.09 175.901 143.438 176.075 144.25ZM84.4999 149.576C84.6369 149.753 84.6699 149.849 84.5709 149.791C84.4729 149.732 84.1799 149.794 83.9199 149.929C83.4819 150.156 83.4179 150.148 83.0619 149.813L82.6769 149.452L83.1299 149.011L83.5829 148.57L83.9169 148.912C84.0999 149.1 84.3619 149.399 84.4999 149.576Z" clip-rule="evenodd"/><path fill="#1C1463" fill-rule="evenodd" d="M126.625 45.9541C126.923 45.9911 127.41 45.9911 127.708 45.9541C128.006 45.9171 127.763 45.8871 127.167 45.8871C126.571 45.8871 126.327 45.9171 126.625 45.9541ZM146.375 45.9481C146.535 45.9901 146.798 45.9901 146.958 45.9481C147.119 45.9061 146.987 45.8721 146.667 45.8721C146.346 45.8721 146.215 45.9061 146.375 45.9481ZM170.792 45.9541C171.09 45.9911 171.577 45.9911 171.875 45.9541C172.173 45.9171 171.929 45.8871 171.333 45.8871C170.737 45.8871 170.494 45.9171 170.792 45.9541ZM188.044 45.9531C188.297 45.9911 188.672 45.9901 188.877 45.9511C189.082 45.9111 188.875 45.8801 188.417 45.8811C187.958 45.8821 187.791 45.9151 188.044 45.9531ZM133.539 47.6671C133.539 47.9871 133.573 48.1191 133.615 47.9581C133.657 47.7981 133.657 47.5351 133.615 47.3751C133.573 47.2151 133.539 47.3461 133.539 47.6671ZM314.542 52.6241C315.435 52.6541 316.898 52.6541 317.792 52.6241C318.685 52.5941 317.954 52.5701 316.167 52.5701C314.379 52.5701 313.648 52.5941 314.542 52.6241ZM114.375 55.4551C114.719 55.4911 115.281 55.4911 115.625 55.4551C115.969 55.4191 115.688 55.3891 115 55.3891C114.313 55.3891 114.031 55.4191 114.375 55.4551ZM136.708 55.4551C137.052 55.4911 137.615 55.4911 137.958 55.4551C138.302 55.4191 138.021 55.3891 137.333 55.3891C136.646 55.3891 136.365 55.4191 136.708 55.4551ZM208.792 55.4511C208.998 55.4911 209.335 55.4911 209.542 55.4511C209.748 55.4111 209.579 55.3791 209.167 55.3791C208.754 55.3791 208.585 55.4111 208.792 55.4511ZM233.38 55.4561C233.818 55.4901 234.493 55.4901 234.88 55.4551C235.267 55.4201 234.908 55.3921 234.083 55.3921C233.258 55.3931 232.942 55.4221 233.38 55.4561ZM260.458 55.4551C260.848 55.4901 261.485 55.4901 261.875 55.4551C262.265 55.4201 261.946 55.3921 261.167 55.3921C260.387 55.3921 260.069 55.4201 260.458 55.4551ZM278.208 55.4481C278.369 55.4901 278.631 55.4901 278.792 55.4481C278.952 55.4061 278.821 55.3721 278.5 55.3721C278.179 55.3721 278.048 55.4061 278.208 55.4481ZM258.333 81.3371C254.175 81.8361 253.833 82.4611 253.833 89.5751C253.833 98.3891 252.564 97.8261 272.459 97.8301L286.168 97.8331L286.162 132.042L286.157 166.25L293.086 174.46C300.754 183.544 300.195 183.04 301.093 181.681C302.764 179.156 302.667 181.923 302.667 137.145V97.8331L315.792 97.8301C329.821 97.8271 330.24 97.8061 331.857 96.9941C333.842 95.9971 333.833 96.0301 333.833 89.5001C333.833 82.7181 333.799 82.6271 330.848 81.6231L329.75 81.2501L294.583 81.2281C275.242 81.2161 258.929 81.2651 258.333 81.3371ZM333.965 98.4571C334.541 98.4901 335.441 98.4891 335.965 98.4561C336.488 98.4231 336.017 98.3971 334.917 98.3971C333.817 98.3971 333.388 98.4241 333.965 98.4571ZM166.125 99.6251C167.706 99.6521 170.294 99.6521 171.875 99.6251C173.456 99.5971 172.162 99.5751 169 99.5751C165.837 99.5751 164.544 99.5971 166.125 99.6251ZM304.415 137.667C304.415 158.704 304.435 167.31 304.458 156.792C304.482 146.273 304.482 129.06 304.458 118.542C304.435 108.023 304.415 116.629 304.415 137.667ZM119.458 121.622C119.848 121.657 120.485 121.657 120.875 121.622C121.265 121.587 120.946 121.558 120.167 121.558C119.388 121.558 119.069 121.587 119.458 121.622ZM204.208 143.448C204.369 143.49 204.631 143.49 204.792 143.448C204.952 143.406 204.821 143.372 204.5 143.372C204.179 143.372 204.048 143.406 204.208 143.448Z" clip-rule="evenodd"/></svg>