<svg id="svg" version="1.1" xmlns="http://www.w3.org/2000/svg" xmlns:xlink="http://www.w3.org/1999/xlink" width="400" height="244.00478772090403" viewBox="0, 0, 400,244.00478772090403"><g id="svgg"><path id="path0" d="M91.167 72.840 C 87.424 74.258,83.133 76.666,80.250 78.968 C 78.533 80.338,76.827 81.866,76.656 82.187 C 76.498 82.482,77.858 84.110,80.978 87.362 C 81.746 88.162,82.481 88.970,82.613 89.158 C 82.943 89.629,82.985 89.615,84.275 88.607 C 86.088 87.188,88.225 85.857,90.530 84.710 C 92.125 83.917,92.686 83.556,92.749 83.282 C 92.822 82.965,93.333 73.572,93.333 72.546 C 93.333 72.047,93.219 72.062,91.167 72.840 M175.333 89.495 L 175.333 97.823 192.042 97.871 L 208.750 97.919 209.737 98.293 C 214.445 100.082,215.994 103.331,215.994 111.417 C 215.994 117.358,215.612 119.173,213.875 121.477 C 213.623 121.811,213.337 122.234,213.239 122.417 C 212.948 122.963,211.060 124.135,209.890 124.496 C 208.909 124.799,208.344 124.833,204.334 124.833 C 181.793 124.833,171.557 146.425,188.667 157.880 C 190.268 158.952,192.696 161.113,203.414 170.999 L 216.245 182.833 217.025 182.833 C 217.454 182.833,217.831 182.908,217.861 183.000 C 217.898 183.111,231.715 183.153,259.143 183.125 L 300.369 183.083 293.008 174.375 L 285.648 165.667 252.770 165.667 L 219.892 165.667 207.821 154.540 L 195.750 143.413 195.702 141.853 C 195.657 140.411,195.676 140.302,195.952 140.411 C 199.286 141.736,205.925 141.990,210.655 140.973 C 229.553 136.912,239.735 115.486,231.139 97.870 C 228.355 92.165,223.647 87.291,218.155 84.428 C 216.236 83.428,213.398 82.273,213.184 82.406 C 213.111 82.451,212.533 82.343,211.900 82.164 C 208.402 81.177,208.176 81.167,191.067 81.167 L 175.333 81.167 175.333 89.495 M74.909 83.917 C 71.737 87.264,67.017 94.784,67.692 95.416 C 68.019 95.722,74.313 99.000,74.574 99.000 C 74.695 99.000,75.122 98.494,75.522 97.876 C 76.616 96.186,78.623 93.764,80.320 92.087 C 81.152 91.264,81.833 90.487,81.833 90.360 C 81.833 90.146,79.712 87.718,76.785 84.583 L 75.541 83.250 74.909 83.917 " stroke="none" fill="#fb0404" fill-rule="evenodd"></path><path id="path1" d="M105.167 39.344 C 70.249 40.758,41.092 67.372,36.435 102.083 C 31.150 141.471,58.566 177.810,97.917 183.575 C 102.604 184.262,104.597 184.314,127.500 184.347 L 149.583 184.378 151.408 184.010 C 179.310 178.382,186.464 141.164,162.654 125.499 C 159.398 123.356,152.910 120.671,152.519 121.303 C 152.447 121.420,146.964 121.493,135.649 121.530 L 118.886 121.583 118.318 120.877 C 116.457 118.562,116.167 117.286,116.167 111.417 C 116.167 104.417,117.159 101.906,120.583 100.238 L 121.583 99.751 143.375 99.646 C 155.360 99.588,174.975 99.588,186.962 99.645 L 208.758 99.750 209.864 100.295 C 213.300 101.987,214.162 104.200,214.165 111.340 C 214.167 117.641,213.939 118.611,211.883 121.057 C 210.346 122.887,210.249 122.910,204.099 122.949 C 201.231 122.967,198.904 123.049,198.849 123.133 C 198.794 123.217,198.338 123.380,197.833 123.496 C 176.877 128.309,171.467 148.781,188.250 159.757 C 189.162 160.353,193.658 164.388,202.474 172.523 L 215.365 184.417 258.021 184.394 L 300.677 184.371 301.338 183.933 C 302.144 183.400,303.048 182.077,303.516 180.744 C 304.368 178.320,304.333 180.118,304.333 138.402 L 304.333 99.500 316.992 99.500 C 330.310 99.500,330.595 99.486,332.312 98.728 C 333.136 98.365,333.428 98.333,335.958 98.333 C 356.757 98.333,370.680 78.016,363.332 58.387 C 360.314 50.324,352.939 43.513,344.507 41.002 C 341.209 40.020,340.599 39.961,332.958 39.880 L 325.833 39.806 325.833 43.153 L 325.833 46.500 322.583 46.500 L 319.333 46.500 319.333 49.583 L 319.333 52.667 316.167 52.667 L 313.000 52.667 313.000 49.667 L 313.000 46.667 309.833 46.667 L 306.667 46.667 306.667 49.667 L 306.667 52.667 303.417 52.667 L 300.167 52.667 300.167 49.583 L 300.167 46.500 297.083 46.500 L 294.000 46.500 294.000 43.167 L 294.000 39.833 203.917 39.833 C 113.944 39.833,113.833 39.833,113.833 39.500 C 113.833 39.123,111.626 39.083,105.167 39.344 M300.333 42.833 L 300.333 45.833 303.500 45.833 L 306.667 45.833 306.667 42.833 L 306.667 39.833 303.500 39.833 L 300.333 39.833 300.333 42.833 M313.000 42.750 L 313.000 45.667 316.167 45.667 L 319.333 45.667 319.333 42.750 L 319.333 39.833 316.167 39.833 L 313.000 39.833 313.000 42.750 M120.802 43.612 C 121.022 45.158,119.824 45.882,116.989 45.916 C 114.366 45.948,114.000 46.092,114.000 47.089 C 114.000 47.884,114.213 47.962,116.583 48.026 C 119.051 48.094,119.554 48.279,120.151 49.341 C 120.951 50.765,120.400 53.424,119.099 54.416 C 117.823 55.389,116.527 55.528,110.458 55.342 C 109.818 55.323,110.258 53.845,111.102 53.181 C 111.510 52.861,111.759 52.833,114.280 52.833 C 117.355 52.833,117.833 52.656,117.833 51.517 C 117.833 50.827,117.720 50.790,115.233 50.660 C 112.738 50.530,112.082 50.277,111.600 49.261 C 110.577 47.105,111.760 44.252,114.009 43.453 C 115.290 42.997,120.732 43.125,120.802 43.612 M130.672 43.542 C 132.394 44.412,132.441 44.896,131.401 51.004 C 130.591 55.762,130.620 55.710,128.977 55.382 L 128.250 55.237 128.250 53.795 C 128.250 51.962,128.207 51.918,126.399 51.912 C 124.770 51.907,124.636 51.808,124.858 50.775 C 125.111 49.603,125.755 49.167,127.234 49.167 C 128.827 49.167,129.109 48.950,129.355 47.539 C 129.615 46.044,129.555 46.000,127.255 46.000 C 125.631 46.000,125.347 46.042,125.099 46.316 C 124.827 46.616,123.884 51.110,123.579 53.557 C 123.412 54.900,122.955 55.417,121.937 55.417 C 120.560 55.417,120.556 55.395,121.248 51.400 C 122.390 44.804,122.660 44.226,124.980 43.397 C 126.087 43.001,129.789 43.096,130.672 43.542 M143.135 43.612 C 143.356 45.163,142.143 45.896,139.313 45.923 C 136.690 45.947,136.333 46.088,136.333 47.103 C 136.333 47.880,136.670 48.000,138.853 48.000 C 142.009 48.000,142.946 48.794,142.798 51.344 C 142.611 54.588,140.865 55.583,135.667 55.411 C 134.337 55.367,133.081 55.331,132.875 55.332 C 132.151 55.335,132.525 53.898,133.436 53.181 C 133.844 52.861,134.092 52.833,136.613 52.833 C 139.691 52.833,140.167 52.657,140.167 51.513 C 140.167 50.807,139.790 50.667,137.886 50.666 C 136.986 50.665,135.967 50.586,135.620 50.490 C 132.518 49.628,133.049 44.634,136.366 43.481 C 137.787 42.987,143.060 43.089,143.135 43.612 M154.002 43.419 C 154.717 44.281,153.837 45.772,152.525 45.920 C 150.258 46.176,150.380 45.970,149.503 51.007 C 148.775 55.186,148.629 55.500,147.407 55.500 C 146.504 55.500,146.174 55.055,146.341 54.061 C 146.416 53.615,146.638 52.252,146.833 51.031 C 147.144 49.093,147.634 46.880,147.916 46.145 C 147.990 45.952,147.718 45.904,146.429 45.886 C 145.561 45.874,144.764 45.810,144.657 45.744 C 144.335 45.545,144.544 43.669,144.919 43.394 C 145.402 43.041,153.707 43.064,154.002 43.419 M162.850 43.356 C 165.197 44.143,165.369 48.521,163.138 50.695 C 162.152 51.655,162.145 52.245,163.097 54.026 C 163.609 54.984,163.256 55.500,162.086 55.500 C 160.890 55.500,160.236 54.856,159.677 53.128 C 159.411 52.306,158.791 51.833,157.978 51.833 C 157.230 51.833,157.118 51.420,157.595 50.415 C 158.036 49.485,158.400 49.275,159.801 49.142 C 161.441 48.985,162.000 48.487,162.000 47.184 C 162.000 46.093,161.804 45.969,159.918 45.871 C 157.387 45.738,157.469 45.612,156.520 51.160 C 155.803 55.351,155.768 55.423,154.505 55.405 C 153.501 55.390,153.103 55.106,153.255 54.512 C 153.315 54.276,153.770 51.764,154.265 48.930 C 154.888 45.369,155.251 43.683,155.442 43.472 C 155.776 43.103,161.814 43.009,162.850 43.356 M174.415 43.353 C 176.015 43.797,176.468 44.929,176.083 47.520 C 174.955 55.108,174.775 55.613,173.259 55.409 C 172.180 55.264,172.243 55.379,172.305 53.671 C 172.369 51.912,172.385 51.929,170.583 51.915 C 168.943 51.902,168.769 51.812,168.912 51.049 C 169.184 49.601,169.738 49.167,171.314 49.167 C 173.075 49.167,173.497 48.728,173.499 46.893 C 173.500 46.029,173.427 45.999,171.278 46.003 C 168.804 46.006,169.036 45.542,167.760 53.064 C 167.391 55.241,166.673 55.919,165.389 55.306 C 164.735 54.994,164.738 54.926,165.561 50.308 C 166.510 44.984,166.976 44.051,169.000 43.423 C 169.919 43.138,173.474 43.092,174.415 43.353 M191.667 43.587 C 193.530 44.664,193.377 48.520,191.387 50.670 C 190.333 51.808,190.346 51.688,191.102 53.449 C 191.817 55.114,191.691 55.501,190.433 55.499 C 189.125 55.498,188.700 55.051,187.695 52.622 C 187.489 52.123,186.927 51.833,186.166 51.833 C 185.511 51.833,185.417 51.598,185.736 50.762 C 186.180 49.601,186.647 49.284,188.115 49.143 C 189.802 48.982,190.691 47.796,190.164 46.410 C 189.961 45.876,186.235 45.709,185.733 46.211 C 185.642 46.303,185.295 48.091,184.662 51.732 C 184.150 54.686,183.930 55.261,183.247 55.432 C 182.667 55.578,181.668 55.364,181.555 55.070 C 181.371 54.590,183.378 43.788,183.715 43.452 C 184.195 42.972,190.796 43.084,191.667 43.587 M203.005 43.542 C 204.730 44.413,204.818 45.303,203.758 51.167 C 203.002 55.356,203.060 55.152,202.564 55.341 C 201.033 55.923,200.263 55.108,200.683 53.352 C 200.980 52.107,200.629 51.804,198.928 51.836 C 197.295 51.866,197.346 51.878,197.147 51.440 C 196.739 50.546,198.074 49.167,199.349 49.166 C 201.136 49.163,201.833 48.590,201.833 47.125 C 201.833 46.067,201.698 46.000,199.562 46.000 C 197.566 46.000,197.258 46.110,197.087 46.887 C 196.920 47.642,196.332 50.982,196.083 52.583 C 195.682 55.165,195.237 55.725,193.831 55.416 C 192.989 55.231,192.983 55.029,193.689 50.999 C 194.657 45.470,194.866 44.857,196.068 44.034 C 197.406 43.117,201.579 42.821,203.005 43.542 M214.570 43.268 C 214.926 43.404,214.901 43.880,214.498 44.671 C 213.968 45.709,213.513 45.913,211.674 45.938 C 209.192 45.971,209.194 45.971,208.925 46.381 C 208.687 46.743,207.833 51.195,207.833 52.071 C 207.833 52.714,208.287 52.833,210.719 52.833 C 213.305 52.833,213.390 52.875,213.228 54.058 C 213.051 55.350,213.088 55.334,210.083 55.369 C 205.240 55.425,204.628 54.726,205.419 50.049 C 206.262 45.067,206.784 44.063,208.870 43.412 C 209.600 43.184,214.057 43.071,214.570 43.268 M218.410 43.434 C 218.558 43.581,218.641 43.825,218.595 43.976 C 218.549 44.127,218.286 45.600,218.009 47.250 C 216.590 55.714,216.642 55.552,215.367 55.418 C 215.028 55.382,214.659 55.348,214.548 55.343 C 214.060 55.320,214.007 54.715,214.339 52.977 C 214.521 52.027,214.933 49.712,215.255 47.833 C 215.980 43.596,215.947 43.744,216.262 43.428 C 216.618 43.072,218.052 43.076,218.410 43.434 M222.548 43.375 C 222.701 43.490,223.396 44.896,224.092 46.500 C 225.525 49.803,225.739 50.137,225.879 49.304 C 225.931 48.999,226.131 47.813,226.324 46.667 C 226.797 43.865,226.795 43.871,227.171 43.496 C 227.784 42.883,229.500 43.161,229.500 43.873 C 229.500 44.319,227.636 54.462,227.481 54.855 C 227.334 55.230,227.185 55.306,226.446 55.380 C 224.999 55.527,224.909 55.430,223.502 52.215 C 222.218 49.279,221.912 48.744,221.765 49.180 C 221.655 49.508,221.210 51.852,221.001 53.207 C 220.700 55.158,220.152 55.720,218.861 55.401 C 218.005 55.189,218.008 55.012,218.995 49.398 C 220.057 43.355,219.982 43.709,220.276 43.415 C 220.583 43.107,222.153 43.079,222.548 43.375 M239.440 43.615 C 239.788 45.004,238.542 45.878,236.130 45.937 C 235.096 45.962,234.120 45.987,233.962 45.991 C 233.048 46.019,231.833 52.221,232.656 52.661 C 233.366 53.041,236.141 52.874,236.591 52.424 C 237.401 51.614,237.024 50.670,235.886 50.664 C 235.091 50.660,234.667 50.082,234.667 49.001 C 234.667 48.101,234.952 48.000,237.491 48.000 C 240.428 48.000,240.339 47.916,239.935 50.301 C 239.203 54.627,238.324 55.394,234.083 55.406 C 229.829 55.418,229.201 54.642,229.833 50.161 C 230.682 44.147,231.630 43.183,236.705 43.172 L 239.327 43.167 239.440 43.615 M256.496 43.412 C 256.770 43.742,256.561 45.228,256.195 45.553 C 256.042 45.689,255.357 45.886,254.672 45.991 C 252.730 46.288,252.823 46.108,251.947 51.261 C 251.325 54.915,251.217 55.243,250.578 55.403 C 250.032 55.540,249.066 55.364,248.835 55.086 C 248.544 54.735,249.745 47.982,250.306 46.813 L 250.756 45.875 249.062 45.875 C 247.008 45.875,247.000 45.871,247.000 44.740 C 247.000 43.143,246.926 43.167,251.980 43.167 C 255.571 43.167,256.327 43.208,256.496 43.412 M265.980 43.392 C 266.316 43.798,265.622 45.334,264.935 45.702 C 264.741 45.806,263.646 45.912,262.500 45.939 C 260.003 45.997,259.667 46.202,259.667 47.669 L 259.667 48.485 260.354 48.243 C 260.814 48.081,261.724 48.000,263.098 48.000 C 265.491 48.000,265.572 48.051,265.319 49.403 C 265.081 50.677,265.107 50.666,262.355 50.669 C 259.604 50.672,259.179 50.792,258.937 51.636 C 258.657 52.615,258.957 52.737,261.880 52.833 L 264.417 52.917 264.466 53.855 C 264.545 55.361,263.567 55.672,259.593 55.406 C 256.295 55.185,255.780 54.155,256.592 49.393 C 257.279 45.355,258.038 43.987,259.913 43.399 C 260.883 43.095,265.729 43.090,265.980 43.392 M276.038 43.544 C 277.508 44.180,277.649 45.519,276.767 50.431 C 276.456 52.165,276.149 53.905,276.085 54.298 C 275.927 55.271,275.458 55.571,274.338 55.417 C 273.284 55.272,273.299 55.303,273.528 53.679 C 273.772 51.953,273.759 51.939,271.701 51.833 C 269.838 51.737,269.695 51.584,270.321 50.357 C 270.798 49.423,271.233 49.167,272.346 49.167 C 274.179 49.167,274.667 48.731,274.667 47.093 C 274.667 45.996,274.675 46.000,272.324 46.000 C 269.993 46.000,270.146 45.762,269.309 50.703 C 268.505 55.455,268.252 55.884,266.584 55.334 C 265.842 55.089,265.839 55.217,266.670 50.530 C 267.711 44.657,268.086 43.974,270.622 43.339 C 271.623 43.088,275.307 43.228,276.038 43.544 M281.717 43.375 C 281.871 43.490,282.376 44.442,282.838 45.491 C 284.127 48.413,283.844 48.403,286.058 45.603 C 287.959 43.200,288.001 43.167,289.083 43.167 C 290.160 43.167,290.333 43.280,290.333 43.982 C 290.333 44.520,288.848 53.304,288.569 54.416 C 288.331 55.364,286.935 55.828,286.183 55.208 L 285.829 54.917 286.331 52.083 C 286.607 50.525,286.833 49.196,286.833 49.130 C 286.834 48.824,286.336 49.264,285.659 50.168 C 284.129 52.212,282.756 52.223,281.778 50.198 C 281.033 48.657,280.989 48.713,280.409 51.963 C 279.799 55.381,279.358 55.952,277.792 55.351 C 277.176 55.114,277.173 55.147,278.250 49.091 C 278.754 46.255,279.167 43.880,279.167 43.813 C 279.167 43.229,281.078 42.901,281.717 43.375 M325.833 55.755 L 325.833 58.676 333.518 58.662 L 341.202 58.648 342.140 59.199 C 349.708 63.646,349.338 75.269,341.500 79.314 C 338.619 80.800,334.235 81.146,331.750 80.083 L 330.583 79.583 294.337 79.539 C 258.561 79.496,258.073 79.500,256.772 79.829 C 254.738 80.343,253.346 81.268,252.538 82.643 L 252.083 83.417 252.083 89.500 C 252.083 96.830,252.198 97.191,254.956 98.567 C 256.854 99.515,256.597 99.500,271.035 99.500 L 284.333 99.500 284.333 131.917 L 284.333 164.333 252.708 164.330 L 221.083 164.327 218.083 161.552 C 216.433 160.026,213.771 157.578,212.167 156.111 C 200.382 145.339,197.452 142.596,197.873 142.730 C 200.116 143.439,207.140 143.502,210.417 142.842 C 235.410 137.807,244.643 106.397,226.448 88.311 C 222.453 84.340,215.216 80.351,211.528 80.087 C 210.593 80.020,209.451 79.805,209.117 79.634 C 208.529 79.331,122.825 79.443,121.083 79.748 C 102.823 82.948,91.200 101.263,95.820 119.557 C 98.376 129.679,105.964 138.076,115.792 141.661 C 116.365 141.870,116.833 142.106,116.833 142.187 C 116.833 142.267,117.091 142.333,117.406 142.333 C 117.721 142.333,118.171 142.406,118.406 142.496 C 118.684 142.601,118.833 142.601,118.833 142.496 C 118.833 142.391,124.923 142.333,135.904 142.333 L 152.974 142.333 153.585 143.042 C 155.384 145.126,155.667 146.398,155.667 152.417 C 155.667 159.497,154.838 161.686,151.465 163.515 L 150.417 164.083 129.083 164.203 C 103.556 164.347,103.699 164.351,98.083 163.246 C 63.517 156.441,45.322 117.681,62.177 86.755 C 71.680 69.318,88.940 59.333,109.579 59.333 C 113.722 59.333,113.833 59.325,113.833 59.000 C 113.833 58.667,113.944 58.667,203.917 58.667 L 294.000 58.667 294.000 55.833 L 294.000 53.000 297.167 53.000 L 300.333 53.000 300.333 55.833 L 300.333 58.667 303.500 58.667 L 306.667 58.667 306.667 55.833 L 306.667 53.000 309.833 53.000 L 313.000 53.000 313.000 55.833 L 313.000 58.667 316.167 58.667 L 319.333 58.667 319.333 55.750 L 319.333 52.833 322.583 52.833 L 325.833 52.833 325.833 55.755 M208.770 81.518 C 209.881 81.698,211.298 81.990,211.919 82.167 C 212.540 82.345,213.109 82.452,213.183 82.406 C 213.665 82.109,219.086 84.757,221.492 86.465 C 236.548 97.152,238.557 119.183,225.693 132.542 C 218.482 140.031,208.046 143.190,198.000 140.924 C 197.037 140.707,196.116 140.476,195.952 140.411 C 195.676 140.302,195.657 140.411,195.702 141.853 L 195.750 143.413 207.821 154.540 L 219.892 165.667 252.770 165.667 C 274.508 165.667,285.682 165.723,285.750 165.833 C 285.807 165.925,285.924 166.000,286.010 166.000 C 286.107 166.000,286.167 153.103,286.167 131.917 L 286.167 97.833 272.458 97.830 C 257.801 97.827,257.433 97.809,255.809 96.994 C 253.827 95.998,253.833 96.020,253.833 89.575 C 253.833 82.764,253.910 82.565,256.917 81.618 L 258.083 81.250 293.833 81.250 L 329.583 81.250 330.760 81.620 C 333.788 82.573,333.833 82.689,333.833 89.500 C 333.833 98.375,335.022 97.826,315.794 97.830 L 302.671 97.833 302.627 137.792 L 302.583 177.750 302.212 179.054 C 301.781 180.566,301.102 181.896,300.530 182.346 C 300.290 182.535,300.168 182.762,300.226 182.914 C 300.312 183.139,295.875 183.167,259.078 183.167 C 231.693 183.167,217.833 183.111,217.833 183.000 C 217.833 182.908,217.476 182.833,217.039 182.833 L 216.245 182.833 203.414 170.999 C 192.696 161.113,190.268 158.952,188.667 157.880 C 171.557 146.425,181.793 124.833,204.334 124.833 C 208.344 124.833,208.909 124.799,209.890 124.496 C 211.060 124.135,212.948 122.963,213.239 122.417 C 213.337 122.234,213.623 121.811,213.875 121.477 C 215.612 119.173,215.994 117.358,215.994 111.417 C 215.994 103.331,214.445 100.082,209.737 98.293 L 208.750 97.919 192.042 97.871 C 175.341 97.823,175.333 97.823,175.333 98.161 C 175.333 98.498,175.278 98.500,164.667 98.500 C 154.111 98.500,154.000 98.497,154.000 98.167 C 154.000 97.728,123.686 97.641,121.645 98.073 C 118.971 98.640,116.877 100.365,115.504 103.132 C 114.630 104.893,114.477 105.866,114.381 110.277 C 114.245 116.509,114.616 118.584,116.318 121.093 C 116.867 121.902,117.167 122.518,117.167 122.838 L 117.167 123.333 135.573 123.333 L 153.980 123.333 155.198 123.769 C 181.439 133.164,182.036 170.524,156.111 180.822 C 151.487 182.659,150.806 182.716,133.708 182.675 C 120.408 182.644,119.000 182.666,119.000 182.904 C 119.000 183.140,117.997 183.167,109.000 183.167 L 99.000 183.167 99.000 174.417 L 99.000 165.667 109.000 165.667 C 115.556 165.667,119.000 165.724,119.000 165.833 C 119.000 166.139,149.390 166.054,150.576 165.745 C 153.537 164.974,155.780 162.742,156.940 159.415 C 157.400 158.094,157.404 158.043,157.467 153.124 C 157.551 146.458,157.157 144.638,155.076 142.083 C 154.667 141.581,154.333 141.020,154.333 140.836 C 154.333 140.501,154.265 140.500,136.097 140.500 L 117.860 140.500 116.388 139.983 C 103.916 135.599,95.598 122.605,96.666 109.175 C 97.758 95.440,107.106 84.680,120.583 81.643 C 123.689 80.943,204.506 80.829,208.770 81.518 " stroke="none" fill="#fbfbfb" fill-rule="evenodd"></path><path id="path2" d="M138.167 81.171 C 120.216 81.279,121.384 81.197,116.983 82.662 C 99.694 88.416,91.519 108.806,99.896 125.281 C 103.400 132.172,109.411 137.530,116.388 139.983 L 117.860 140.500 136.097 140.500 C 154.265 140.500,154.333 140.501,154.333 140.836 C 154.333 141.020,154.667 141.581,155.076 142.083 C 157.157 144.638,157.551 146.458,157.467 153.124 C 157.404 158.043,157.400 158.094,156.940 159.415 C 155.780 162.742,153.537 164.974,150.576 165.745 C 149.390 166.054,119.000 166.139,119.000 165.833 C 119.000 165.724,115.556 165.667,109.000 165.667 L 99.000 165.667 99.000 174.417 L 99.000 183.167 109.000 183.167 C 117.997 183.167,119.000 183.140,119.000 182.904 C 119.000 182.666,120.408 182.644,133.708 182.675 C 150.806 182.716,151.487 182.659,156.111 180.822 C 182.036 170.524,181.439 133.164,155.198 123.769 L 153.980 123.333 135.573 123.333 L 117.167 123.333 117.167 122.838 C 117.167 122.518,116.867 121.902,116.318 121.093 C 113.927 117.569,113.459 107.253,115.504 103.132 C 116.877 100.365,118.971 98.640,121.645 98.073 C 123.686 97.641,154.000 97.728,154.000 98.167 C 154.000 98.497,154.111 98.500,164.667 98.500 L 175.333 98.500 175.333 89.750 L 175.333 81.000 164.708 81.038 C 158.865 81.058,146.921 81.119,138.167 81.171 M66.644 97.125 C 65.435 100.182,64.317 104.324,63.914 107.243 C 63.774 108.255,63.627 109.280,63.588 109.521 C 63.452 110.353,63.708 110.455,66.703 110.763 C 69.916 111.093,69.847 111.114,70.161 109.710 C 70.542 108.006,71.665 104.973,72.763 102.685 C 74.055 99.991,74.048 100.196,72.875 99.583 C 72.348 99.308,70.905 98.541,69.667 97.877 C 67.153 96.530,66.904 96.468,66.644 97.125 M63.625 111.841 C 62.938 112.255,63.784 122.972,64.569 123.797 C 64.777 124.015,68.543 123.680,68.802 123.420 C 68.861 123.361,68.917 121.686,68.925 119.698 C 68.936 117.154,69.025 115.571,69.224 114.354 C 69.581 112.173,69.659 112.258,67.040 112.012 C 65.872 111.902,64.692 111.780,64.417 111.739 C 64.142 111.698,63.785 111.744,63.625 111.841 M66.833 124.950 C 65.871 125.085,65.027 125.249,64.959 125.314 C 64.694 125.566,66.502 130.865,67.572 132.978 C 68.128 134.076,68.293 134.132,69.520 133.646 C 71.141 133.005,71.121 133.083,70.363 130.311 C 70.003 128.994,69.617 127.354,69.506 126.667 C 69.264 125.173,69.080 124.660,68.795 124.685 C 68.679 124.695,67.796 124.814,66.833 124.950 " stroke="none" fill="#fbfb04" fill-rule="evenodd"></path><path id="path3" d="M294.000 43.083 L 294.000 46.500 297.083 46.500 L 300.167 46.500 300.167 49.583 L 300.167 52.667 303.417 52.667 L 306.667 52.667 306.667 49.667 L 306.667 46.667 309.833 46.667 L 313.000 46.667 313.000 49.583 L 313.000 52.500 316.167 52.500 L 319.333 52.500 319.333 49.500 L 319.333 46.500 322.583 46.500 L 325.833 46.500 325.833 43.083 L 325.833 39.667 322.583 39.667 L 319.333 39.667 319.333 42.667 L 319.333 45.667 316.167 45.667 L 313.000 45.667 313.000 42.667 L 313.000 39.667 309.792 39.666 L 306.583 39.666 306.632 42.750 L 306.681 45.833 303.507 45.833 L 300.333 45.833 300.333 42.750 L 300.333 39.667 297.167 39.667 L 294.000 39.667 294.000 43.083 M114.167 43.423 C 111.440 44.269,110.271 48.154,112.201 49.956 C 112.698 50.420,113.942 50.667,115.784 50.667 C 117.456 50.667,117.833 50.823,117.833 51.513 C 117.833 52.660,117.362 52.833,114.241 52.833 L 111.467 52.833 110.910 53.390 C 110.334 53.966,110.059 54.647,110.227 55.083 C 110.359 55.427,116.915 55.438,117.875 55.096 C 119.470 54.526,120.361 53.221,120.473 51.289 C 120.617 48.801,119.591 48.000,116.258 48.000 C 114.212 48.000,114.000 47.913,114.000 47.076 C 114.000 46.074,114.400 45.918,117.000 45.906 C 119.613 45.894,119.931 45.782,120.498 44.671 C 120.901 43.880,120.926 43.404,120.570 43.268 C 120.031 43.061,114.935 43.184,114.167 43.423 M125.166 43.315 C 124.087 43.663,122.978 44.554,122.525 45.437 C 122.090 46.288,120.621 54.603,120.835 55.004 C 121.134 55.562,122.573 55.564,123.077 55.007 C 123.239 54.828,123.527 53.638,123.830 51.900 C 124.956 45.427,124.663 45.907,127.464 45.929 C 129.490 45.944,129.638 46.069,129.368 47.536 C 129.107 48.950,128.824 49.167,127.234 49.167 C 125.647 49.167,125.020 49.627,124.877 50.898 C 124.764 51.898,124.873 51.973,126.306 51.885 C 128.086 51.776,128.250 51.933,128.250 53.756 L 128.250 55.247 129.000 55.357 C 130.642 55.598,130.608 55.662,131.427 50.833 C 132.370 45.277,132.300 44.458,130.816 43.583 C 130.203 43.222,126.063 43.025,125.166 43.315 M136.500 43.423 C 133.533 44.344,132.546 48.805,134.993 50.235 C 135.464 50.510,135.945 50.583,137.659 50.637 C 139.964 50.711,140.167 50.788,140.167 51.592 C 140.167 52.670,139.696 52.833,136.583 52.833 C 133.348 52.833,132.500 53.264,132.500 54.908 L 132.500 55.333 136.042 55.326 C 141.493 55.315,142.750 54.515,142.750 51.054 C 142.750 48.639,142.073 48.107,138.898 48.025 C 136.322 47.958,135.971 47.777,136.344 46.708 C 136.594 45.990,136.790 45.938,139.365 45.910 C 141.957 45.881,142.271 45.769,142.831 44.671 C 143.235 43.880,143.259 43.404,142.903 43.268 C 142.364 43.061,137.268 43.184,136.500 43.423 M144.909 43.402 C 144.651 43.590,144.587 43.844,144.586 44.693 L 144.583 45.750 146.292 45.797 C 147.231 45.824,147.999 45.899,147.998 45.964 C 147.997 46.030,147.841 46.571,147.653 47.167 C 146.776 49.940,146.150 55.057,146.656 55.327 C 148.247 56.179,148.770 55.382,149.494 51.000 C 150.316 46.027,150.248 46.147,152.360 45.926 C 153.683 45.788,153.921 45.575,154.079 44.388 C 154.181 43.629,154.154 43.505,153.858 43.347 C 153.313 43.055,145.316 43.104,144.909 43.402 M155.556 43.408 C 155.331 43.568,155.153 43.931,155.082 44.374 C 154.808 46.065,153.328 54.282,153.240 54.595 C 153.080 55.166,153.642 55.413,154.958 55.351 C 155.561 55.323,155.940 54.797,156.065 53.816 C 156.647 49.245,157.376 46.334,158.026 45.986 C 158.564 45.698,161.431 45.859,161.768 46.196 C 162.853 47.281,161.559 49.164,159.725 49.169 C 157.787 49.175,156.328 51.605,158.119 51.844 C 159.027 51.965,159.387 52.308,159.826 53.470 C 160.023 53.990,160.274 54.533,160.383 54.674 C 161.475 56.081,164.072 55.514,163.114 54.079 C 162.178 52.676,162.097 51.469,162.902 50.942 C 165.000 49.567,165.283 44.738,163.333 43.592 C 162.540 43.126,156.162 42.975,155.556 43.408 M169.117 43.407 C 166.748 44.252,166.413 45.062,165.082 53.143 C 164.742 55.203,164.827 55.389,166.101 55.389 C 166.997 55.389,167.430 55.014,167.575 54.113 C 168.956 45.534,168.773 45.918,171.473 45.920 C 173.757 45.921,173.953 46.175,173.306 48.293 C 173.087 49.008,172.744 49.167,171.419 49.167 C 169.730 49.167,169.189 49.573,168.912 51.049 C 168.771 51.801,168.886 51.858,170.584 51.890 C 172.377 51.924,172.424 51.973,172.364 53.741 C 172.311 55.313,172.314 55.318,173.482 55.369 C 174.676 55.421,174.736 55.312,175.310 52.083 C 176.603 44.801,176.514 43.936,174.404 43.350 C 173.471 43.091,169.894 43.130,169.117 43.407 M183.696 43.471 C 183.509 43.657,183.315 44.253,183.193 45.012 C 183.083 45.693,182.647 48.194,182.222 50.570 L 181.451 54.891 181.827 55.195 C 182.489 55.731,183.624 55.535,184.008 54.818 C 184.108 54.631,184.407 53.189,184.673 51.614 C 185.730 45.337,185.397 45.917,187.938 45.917 C 190.182 45.917,190.428 46.058,190.247 47.250 C 190.009 48.825,189.591 49.167,187.905 49.167 C 186.825 49.167,186.161 49.651,185.744 50.742 C 185.403 51.636,185.505 51.833,186.306 51.833 C 187.200 51.833,187.545 52.159,188.069 53.493 C 188.771 55.282,190.270 56.062,191.340 55.194 L 191.718 54.889 191.380 54.153 C 190.280 51.754,190.279 51.726,191.235 50.829 C 193.597 48.616,193.496 44.023,191.070 43.350 C 189.867 43.016,184.055 43.111,183.696 43.471 M197.878 43.334 C 195.159 43.902,194.770 44.657,193.584 51.663 C 192.960 55.348,192.968 55.389,194.305 55.389 C 195.401 55.389,195.740 54.922,196.002 53.055 C 196.481 49.635,197.160 46.418,197.446 46.208 C 197.830 45.927,201.353 45.920,201.633 46.200 C 201.876 46.442,201.896 47.647,201.668 48.247 C 201.459 48.797,200.599 49.167,199.530 49.167 C 198.525 49.167,197.710 49.664,197.282 50.536 C 196.767 51.585,197.046 51.833,198.737 51.833 C 200.760 51.833,200.937 52.007,200.660 53.725 C 200.415 55.244,200.456 55.314,201.638 55.356 C 202.935 55.402,202.960 55.353,203.714 51.301 C 205.035 44.202,204.680 43.283,200.583 43.218 C 199.483 43.201,198.266 43.253,197.878 43.334 M209.250 43.329 C 207.028 43.901,206.372 44.900,205.649 48.814 C 204.571 54.647,205.017 55.323,209.946 55.330 C 212.915 55.334,213.167 55.256,213.167 54.335 C 213.167 54.074,213.208 53.752,213.260 53.618 C 213.494 53.008,212.904 52.833,210.603 52.833 C 207.443 52.833,207.569 53.030,208.237 49.167 C 208.816 45.817,208.719 45.920,211.309 45.907 C 213.624 45.895,214.112 45.673,214.592 44.416 C 215.045 43.230,214.911 43.163,212.105 43.184 C 210.810 43.193,209.525 43.259,209.250 43.329 M216.198 43.581 C 216.012 43.818,215.823 44.407,215.756 44.956 C 215.693 45.484,215.306 47.754,214.897 50.000 C 213.967 55.112,213.970 55.216,215.083 55.351 C 216.626 55.539,216.523 55.787,217.666 49.167 C 218.133 46.462,218.551 44.127,218.596 43.976 C 218.846 43.139,216.810 42.803,216.198 43.581 M220.262 43.429 C 220.118 43.573,220.000 43.741,220.000 43.804 C 219.999 43.866,219.587 46.227,219.083 49.051 C 218.069 54.734,218.030 55.124,218.458 55.291 C 219.735 55.791,220.720 55.127,220.915 53.636 C 221.054 52.576,221.646 49.348,221.762 49.013 C 221.896 48.630,222.211 49.203,223.508 52.185 C 224.958 55.521,224.805 55.333,226.083 55.333 C 227.392 55.333,227.429 55.288,227.832 53.176 C 229.255 45.704,229.530 43.809,229.235 43.483 C 228.718 42.912,227.186 43.113,226.924 43.787 C 226.815 44.068,225.839 49.404,225.835 49.744 C 225.829 50.260,225.161 49.029,224.067 46.485 C 223.380 44.889,222.695 43.490,222.544 43.375 C 222.143 43.071,220.583 43.108,220.262 43.429 M233.197 43.484 C 231.030 44.232,229.772 47.388,229.756 52.111 C 229.747 54.974,230.222 55.333,234.017 55.333 C 238.388 55.333,239.143 54.678,239.926 50.206 C 240.326 47.923,240.410 48.000,237.483 48.000 C 234.789 48.000,234.550 48.131,234.768 49.490 C 234.907 50.364,235.203 50.667,235.915 50.667 C 236.803 50.667,237.000 50.808,237.000 51.442 C 237.000 52.541,236.466 52.833,234.458 52.833 C 232.029 52.833,232.081 52.949,232.739 49.018 C 233.268 45.859,233.178 45.948,235.912 45.895 C 238.587 45.844,239.967 44.909,239.354 43.563 C 239.108 43.023,234.696 42.966,233.197 43.484 M247.409 43.402 C 247.151 43.590,247.087 43.844,247.086 44.693 L 247.083 45.750 248.962 45.797 L 250.841 45.844 250.416 46.570 C 249.890 47.468,248.540 54.729,248.833 55.083 C 249.083 55.384,250.094 55.508,250.668 55.308 C 251.270 55.098,251.306 54.977,252.007 50.833 C 252.793 46.186,252.765 46.237,254.692 45.981 C 256.123 45.790,256.404 45.553,256.579 44.390 C 256.763 43.162,256.780 43.167,251.917 43.167 C 248.578 43.167,247.665 43.214,247.409 43.402 M259.814 43.425 C 257.790 44.054,256.332 47.777,256.334 52.313 C 256.335 55.023,256.821 55.335,261.036 55.331 C 264.381 55.328,264.361 55.335,264.465 54.081 C 264.568 52.840,264.567 52.839,261.720 52.836 C 259.035 52.833,258.719 52.713,258.902 51.764 C 259.092 50.779,259.425 50.667,262.153 50.667 C 265.160 50.667,265.208 50.643,265.232 49.151 L 265.250 48.083 263.131 48.037 C 261.523 48.001,260.866 48.051,260.403 48.245 C 260.067 48.385,259.755 48.500,259.710 48.500 C 259.469 48.500,259.798 46.438,260.070 46.239 C 260.458 45.955,262.303 45.764,263.336 45.901 C 264.836 46.100,266.122 45.023,265.968 43.696 L 265.917 43.250 263.250 43.218 C 261.326 43.195,260.369 43.252,259.814 43.425 M270.724 43.330 C 268.086 43.892,267.734 44.563,266.562 51.283 C 265.890 55.133,265.895 55.204,266.847 55.394 C 268.384 55.702,268.493 55.480,269.399 50.167 C 270.153 45.741,269.973 45.984,272.498 45.987 C 274.725 45.989,274.727 45.990,274.637 47.406 C 274.543 48.888,274.367 49.039,272.605 49.157 C 270.993 49.264,270.670 49.461,270.236 50.597 C 269.803 51.730,269.920 51.833,271.630 51.833 C 273.687 51.833,273.776 51.915,273.540 53.599 C 273.327 55.115,273.390 55.252,274.359 55.382 C 275.866 55.584,275.778 55.755,276.662 50.917 C 277.919 44.037,277.626 43.343,273.417 43.234 C 272.317 43.205,271.105 43.248,270.724 43.330 M279.461 43.458 C 279.185 43.772,277.269 54.209,277.364 54.879 C 277.411 55.210,277.527 55.255,278.432 55.299 C 279.781 55.364,279.775 55.375,280.394 51.918 C 280.974 48.678,281.019 48.623,281.783 50.207 C 282.845 52.413,283.991 52.246,286.106 49.576 C 286.884 48.594,286.915 48.875,286.373 51.989 C 285.816 55.189,285.834 55.298,286.934 55.446 C 288.311 55.630,288.403 55.426,289.348 50.086 C 290.603 42.993,290.606 43.167,289.237 43.167 C 288.107 43.167,287.797 43.406,286.087 45.600 C 283.893 48.413,284.096 48.421,282.821 45.484 C 282.367 44.438,281.870 43.490,281.716 43.375 C 281.282 43.052,279.770 43.108,279.461 43.458 M319.333 55.750 L 319.333 58.667 316.167 58.667 L 313.000 58.667 313.000 55.833 L 313.000 53.000 309.833 53.000 L 306.667 53.000 306.667 55.833 L 306.667 58.667 303.500 58.667 L 300.333 58.667 300.333 55.833 L 300.333 53.000 297.167 53.000 L 294.000 53.000 294.000 55.833 L 294.000 58.667 203.917 58.667 C 115.979 58.667,113.833 58.674,113.833 58.979 C 113.833 59.276,113.571 59.296,108.542 59.381 C 101.193 59.507,97.679 60.057,91.833 61.999 C 61.269 72.153,46.987 107.002,61.622 135.714 C 62.313 137.069,62.904 138.151,62.936 138.120 C 62.967 138.088,62.769 136.980,62.496 135.656 C 60.817 127.532,61.004 119.547,63.064 111.468 C 63.375 110.248,63.718 108.575,63.825 107.750 C 64.317 103.972,66.310 96.960,66.964 96.709 C 67.097 96.658,67.597 96.808,68.076 97.043 L 68.946 97.470 69.251 96.953 C 69.419 96.668,69.488 96.411,69.403 96.380 C 68.439 96.033,67.587 95.367,67.629 94.994 C 67.792 93.540,72.321 86.648,74.909 83.917 L 75.540 83.250 76.850 84.666 L 78.159 86.083 78.583 85.659 L 79.007 85.235 77.756 83.851 C 76.303 82.243,76.295 82.356,77.945 80.903 C 82.405 76.972,88.890 73.214,92.899 72.236 L 93.382 72.118 93.261 74.082 C 93.147 75.925,93.158 76.039,93.437 75.932 C 100.830 73.095,105.713 71.989,112.042 71.720 C 114.481 71.616,114.500 71.618,114.500 71.974 L 114.500 72.334 230.875 72.292 L 347.250 72.250 347.464 71.250 C 348.405 66.853,346.047 61.526,342.130 59.199 L 341.202 58.648 333.518 58.662 L 325.833 58.676 325.833 55.755 L 325.833 52.833 322.583 52.833 L 319.333 52.833 319.333 55.750 M363.500 58.724 C 363.500 58.755,363.653 59.224,363.840 59.766 C 370.348 78.634,356.579 97.727,335.956 98.431 C 333.187 98.525,332.820 98.574,331.833 98.976 L 330.750 99.417 317.629 99.463 L 304.508 99.510 304.456 138.546 C 304.406 175.390,304.387 177.653,304.105 178.824 C 303.475 181.441,302.325 183.484,301.137 184.099 C 300.652 184.349,297.116 184.374,257.977 184.394 L 215.344 184.417 202.464 172.531 C 193.212 163.993,189.184 160.383,188.167 159.717 C 187.387 159.208,186.153 158.297,185.423 157.695 L 184.097 156.599 184.657 157.591 C 185.465 159.024,185.437 158.956,185.833 160.500 C 186.984 164.993,190.643 169.559,195.261 172.265 C 195.653 172.495,201.801 178.061,208.923 184.633 L 221.873 196.583 264.927 196.560 L 307.982 196.536 308.472 196.186 C 309.062 195.766,309.892 194.512,310.254 193.493 C 311.029 191.314,311.000 192.952,311.000 151.074 L 311.000 111.671 324.208 111.606 C 337.799 111.540,345.167 111.345,346.917 111.004 C 366.658 107.160,377.134 86.907,368.515 69.250 C 368.068 68.333,367.458 66.836,367.159 65.924 C 366.290 63.268,363.500 57.778,363.500 58.724 M97.667 75.281 C 97.529 75.329,96.465 75.744,95.301 76.203 L 93.186 77.037 93.099 77.893 C 93.051 78.365,92.967 79.725,92.913 80.917 C 92.784 83.780,92.949 83.516,90.549 84.696 C 88.601 85.655,84.664 88.100,84.412 88.508 C 84.351 88.607,84.433 88.834,84.594 89.012 C 84.876 89.324,84.872 89.354,84.488 89.763 L 84.088 90.189 83.774 89.803 C 83.602 89.590,83.336 89.417,83.183 89.417 C 83.030 89.417,82.296 88.770,81.552 87.981 L 80.198 86.544 79.775 86.967 L 79.353 87.389 80.593 88.756 C 82.128 90.446,82.141 90.286,80.320 92.087 C 78.623 93.764,76.616 96.186,75.522 97.876 C 74.690 99.161,74.611 99.183,73.395 98.488 C 72.903 98.206,72.500 98.044,72.500 98.129 C 72.500 98.408,73.066 98.788,74.667 99.586 C 75.537 100.020,76.625 100.617,77.083 100.913 C 77.542 101.209,78.554 101.791,79.333 102.206 C 84.908 105.175,84.343 105.037,85.238 103.648 C 86.336 101.943,88.353 99.500,90.052 97.817 C 92.003 95.884,92.000 96.227,90.083 94.141 C 88.315 92.216,88.346 92.275,88.904 91.909 C 89.310 91.643,90.678 92.820,92.176 94.724 C 92.617 95.285,92.855 95.280,93.536 94.700 C 95.082 93.380,97.784 91.685,100.534 90.310 C 102.347 89.403,102.491 89.296,102.568 88.792 C 102.793 87.321,103.094 77.833,102.916 77.833 C 102.748 77.833,99.070 79.214,98.604 79.452 L 98.124 79.697 98.187 77.489 C 98.250 75.280,98.206 75.094,97.667 75.281 M138.833 99.667 L 121.750 99.750 120.614 100.288 C 117.164 101.922,116.172 104.406,116.172 111.417 C 116.172 117.162,116.461 118.489,118.183 120.668 L 118.841 121.500 120.171 121.500 L 121.500 121.500 121.503 120.708 C 121.515 117.317,123.564 113.886,126.413 112.487 L 127.576 111.917 146.413 111.813 C 156.773 111.755,176.256 111.749,189.708 111.798 L 214.167 111.888 214.167 109.099 C 214.167 102.728,211.735 99.815,206.333 99.715 C 201.244 99.620,155.137 99.587,138.833 99.667 M257.668 100.208 C 257.670 101.781,258.619 103.261,259.990 103.829 L 260.500 104.040 260.500 106.109 C 260.500 108.982,261.025 109.923,263.179 110.907 C 264.750 111.624,265.417 111.667,275.106 111.667 L 284.333 111.667 284.333 105.583 L 284.333 99.500 271.000 99.500 L 257.667 99.500 257.668 100.208 M72.768 102.703 C 71.693 104.927,70.561 107.960,70.168 109.667 C 69.906 110.801,69.754 111.000,69.146 111.000 C 68.506 111.000,68.425 111.980,69.042 112.254 C 69.340 112.386,69.410 112.541,69.384 113.012 L 69.351 113.603 71.349 113.781 C 73.643 113.985,73.486 113.918,73.375 114.644 L 73.290 115.204 72.520 115.107 C 72.097 115.054,71.180 114.961,70.483 114.901 L 69.217 114.792 69.086 115.354 C 68.850 116.370,68.851 124.009,69.088 124.750 C 69.204 125.117,69.349 125.773,69.410 126.208 C 69.538 127.126,69.384 127.092,71.958 126.771 C 73.493 126.579,73.667 126.584,73.669 126.820 C 73.670 126.965,73.713 127.239,73.764 127.430 C 73.852 127.758,73.754 127.788,71.926 127.992 C 70.864 128.110,69.959 128.265,69.915 128.336 C 69.821 128.488,70.613 131.258,71.223 132.911 C 71.458 133.549,71.636 134.081,71.617 134.094 C 71.599 134.107,71.039 134.328,70.373 134.586 C 68.508 135.308,68.536 135.460,71.281 139.403 C 72.395 141.005,73.379 141.193,74.237 139.968 C 74.431 139.691,74.496 139.740,74.987 140.530 C 75.282 141.005,75.410 141.300,75.271 141.184 C 74.942 140.911,73.500 141.707,73.500 142.162 C 73.500 142.528,77.102 146.333,77.449 146.333 C 77.586 146.333,77.916 146.179,78.182 145.989 L 78.664 145.646 79.064 146.110 L 79.464 146.575 78.982 146.869 C 78.717 147.030,78.500 147.232,78.500 147.318 C 78.500 147.721,83.705 151.423,85.667 152.415 C 85.987 152.577,86.850 153.106,87.583 153.589 C 88.317 154.072,89.704 154.898,90.667 155.424 C 91.629 155.951,93.017 156.738,93.750 157.173 C 96.903 159.043,99.349 159.979,96.589 158.259 C 94.848 157.174,92.558 155.376,90.822 153.731 C 89.196 152.189,89.216 152.199,88.637 152.654 C 88.232 152.973,88.227 152.973,87.692 152.553 L 87.153 152.132 87.693 151.843 C 88.413 151.456,88.436 151.297,87.868 150.641 C 87.602 150.334,86.807 149.314,86.100 148.374 C 84.906 146.786,84.789 146.678,84.449 146.856 C 83.576 147.312,83.148 147.710,83.242 147.977 C 83.344 148.266,83.197 148.106,82.179 146.810 C 81.864 146.410,81.711 146.177,81.837 146.292 C 82.281 146.694,84.000 146.109,84.000 145.555 C 84.000 145.126,81.285 139.816,81.102 139.889 C 79.386 140.573,78.672 140.928,78.632 141.119 C 78.605 141.247,78.329 140.879,78.018 140.301 C 77.707 139.723,77.553 139.344,77.676 139.458 C 78.021 139.779,78.490 139.710,79.625 139.174 C 80.853 138.593,80.859 138.565,80.237 136.525 C 79.773 135.003,79.003 131.485,79.001 130.875 C 79.000 130.424,78.285 130.387,76.042 130.725 C 74.823 130.909,74.666 130.903,74.664 130.674 C 74.663 130.533,74.619 130.258,74.567 130.063 C 74.477 129.726,74.562 129.700,76.393 129.495 C 78.946 129.211,78.723 129.562,78.689 125.891 C 78.673 124.163,78.735 122.150,78.828 121.417 C 79.326 117.475,79.648 117.960,76.327 117.654 L 74.238 117.462 74.306 116.880 L 74.374 116.297 75.979 116.436 C 78.935 116.693,79.556 116.648,79.689 116.167 C 80.409 113.578,81.561 110.446,82.507 108.510 C 83.862 105.734,83.902 105.963,81.885 104.917 C 81.001 104.458,79.709 103.742,79.014 103.326 C 78.319 102.909,76.870 102.100,75.794 101.529 L 73.838 100.489 72.768 102.703 M235.100 103.417 C 236.799 111.859,236.082 118.589,232.750 125.467 C 226.563 138.239,212.504 145.517,199.000 142.938 C 198.313 142.807,197.733 142.715,197.712 142.735 C 197.692 142.754,200.783 145.634,204.581 149.135 C 212.483 156.417,211.317 155.709,214.667 155.257 C 235.328 152.469,247.589 129.287,238.251 110.667 C 237.860 109.888,237.277 108.462,236.955 107.500 C 236.342 105.669,234.926 102.551,235.100 103.417 M103.167 133.449 C 103.167 133.919,104.291 136.753,105.183 138.532 C 108.732 145.612,114.568 150.897,121.992 153.754 C 123.791 154.446,121.662 154.375,139.875 154.353 L 155.667 154.333 155.667 150.982 C 155.667 146.571,155.247 144.989,153.551 143.008 L 152.974 142.333 135.904 142.333 C 124.923 142.333,118.833 142.391,118.833 142.496 C 118.833 142.601,118.684 142.601,118.406 142.496 C 118.171 142.406,117.721 142.333,117.406 142.333 C 117.091 142.333,116.833 142.271,116.833 142.195 C 116.833 142.119,116.177 141.809,115.375 141.506 C 111.306 139.968,107.595 137.584,104.375 134.439 C 103.710 133.790,103.167 133.344,103.167 133.449 M76.656 137.173 C 76.662 137.222,76.515 137.274,76.329 137.288 C 76.143 137.302,75.463 137.568,74.817 137.879 L 73.644 138.446 73.134 137.431 C 72.686 136.539,72.668 136.456,72.989 136.744 C 73.540 137.237,75.813 136.410,75.847 135.704 C 75.858 135.472,76.620 136.855,76.656 137.173 M79.935 144.167 C 79.372 144.300,78.500 144.825,78.500 145.030 C 78.500 145.258,77.915 144.749,77.488 144.149 L 77.178 143.715 77.592 143.794 C 78.049 143.882,79.331 143.143,79.336 142.789 C 79.338 142.676,79.553 142.921,79.813 143.333 C 80.279 144.071,80.281 144.085,79.935 144.167 M176.075 144.250 C 176.115 144.433,176.224 144.883,176.318 145.250 C 180.681 162.263,168.991 180.458,151.417 184.011 L 149.583 184.381 127.583 184.349 C 105.958 184.317,103.268 184.259,99.000 183.732 C 79.607 181.340,61.172 170.408,49.703 154.500 C 48.045 152.199,48.057 152.208,48.716 153.750 C 58.973 177.722,83.218 194.786,109.417 196.472 C 114.576 196.804,155.437 196.557,157.266 196.182 C 177.258 192.088,188.203 170.397,179.476 152.167 C 179.016 151.204,178.380 149.629,178.063 148.667 C 177.545 147.090,175.901 143.438,176.075 144.250 M84.500 149.576 C 84.637 149.753,84.670 149.849,84.571 149.791 C 84.473 149.732,84.180 149.794,83.920 149.929 C 83.482 150.156,83.418 150.148,83.062 149.813 L 82.677 149.452 83.130 149.011 L 83.583 148.570 83.917 148.912 C 84.100 149.100,84.362 149.399,84.500 149.576 " stroke="none" fill="#040404" fill-rule="evenodd"></path><path id="path4" d="M126.625 45.954 C 126.923 45.991,127.410 45.991,127.708 45.954 C 128.006 45.917,127.763 45.887,127.167 45.887 C 126.571 45.887,126.327 45.917,126.625 45.954 M146.375 45.948 C 146.535 45.990,146.798 45.990,146.958 45.948 C 147.119 45.906,146.987 45.872,146.667 45.872 C 146.346 45.872,146.215 45.906,146.375 45.948 M170.792 45.954 C 171.090 45.991,171.577 45.991,171.875 45.954 C 172.173 45.917,171.929 45.887,171.333 45.887 C 170.737 45.887,170.494 45.917,170.792 45.954 M188.044 45.953 C 188.297 45.991,188.672 45.990,188.877 45.951 C 189.082 45.911,188.875 45.880,188.417 45.881 C 187.958 45.882,187.791 45.915,188.044 45.953 M133.539 47.667 C 133.539 47.987,133.573 48.119,133.615 47.958 C 133.657 47.798,133.657 47.535,133.615 47.375 C 133.573 47.215,133.539 47.346,133.539 47.667 M314.542 52.624 C 315.435 52.654,316.898 52.654,317.792 52.624 C 318.685 52.594,317.954 52.570,316.167 52.570 C 314.379 52.570,313.648 52.594,314.542 52.624 M114.375 55.455 C 114.719 55.491,115.281 55.491,115.625 55.455 C 115.969 55.419,115.688 55.389,115.000 55.389 C 114.313 55.389,114.031 55.419,114.375 55.455 M136.708 55.455 C 137.052 55.491,137.615 55.491,137.958 55.455 C 138.302 55.419,138.021 55.389,137.333 55.389 C 136.646 55.389,136.365 55.419,136.708 55.455 M208.792 55.451 C 208.998 55.491,209.335 55.491,209.542 55.451 C 209.748 55.411,209.579 55.379,209.167 55.379 C 208.754 55.379,208.585 55.411,208.792 55.451 M233.380 55.456 C 233.818 55.490,234.493 55.490,234.880 55.455 C 235.267 55.420,234.908 55.392,234.083 55.392 C 233.258 55.393,232.942 55.422,233.380 55.456 M260.458 55.455 C 260.848 55.490,261.485 55.490,261.875 55.455 C 262.265 55.420,261.946 55.392,261.167 55.392 C 260.387 55.392,260.069 55.420,260.458 55.455 M278.208 55.448 C 278.369 55.490,278.631 55.490,278.792 55.448 C 278.952 55.406,278.821 55.372,278.500 55.372 C 278.179 55.372,278.048 55.406,278.208 55.448 M258.333 81.337 C 254.175 81.836,253.833 82.461,253.833 89.575 C 253.833 98.389,252.564 97.826,272.459 97.830 L 286.168 97.833 286.162 132.042 L 286.157 166.250 293.086 174.460 C 300.754 183.544,300.195 183.040,301.093 181.681 C 302.764 179.156,302.667 181.923,302.667 137.145 L 302.667 97.833 315.792 97.830 C 329.821 97.827,330.240 97.806,331.857 96.994 C 333.842 95.997,333.833 96.030,333.833 89.500 C 333.833 82.718,333.799 82.627,330.848 81.623 L 329.750 81.250 294.583 81.228 C 275.242 81.216,258.929 81.265,258.333 81.337 M333.965 98.457 C 334.541 98.490,335.441 98.489,335.965 98.456 C 336.488 98.423,336.017 98.397,334.917 98.397 C 333.817 98.397,333.388 98.424,333.965 98.457 M166.125 99.625 C 167.706 99.652,170.294 99.652,171.875 99.625 C 173.456 99.597,172.162 99.575,169.000 99.575 C 165.837 99.575,164.544 99.597,166.125 99.625 M304.415 137.667 C 304.415 158.704,304.435 167.310,304.458 156.792 C 304.482 146.273,304.482 129.060,304.458 118.542 C 304.435 108.023,304.415 116.629,304.415 137.667 M119.458 121.622 C 119.848 121.657,120.485 121.657,120.875 121.622 C 121.265 121.587,120.946 121.558,120.167 121.558 C 119.388 121.558,119.069 121.587,119.458 121.622 M204.208 143.448 C 204.369 143.490,204.631 143.490,204.792 143.448 C 204.952 143.406,204.821 143.372,204.500 143.372 C 204.179 143.372,204.048 143.406,204.208 143.448 " stroke="none" fill="#1c1463" fill-rule="evenodd"></path></g></svg>